<svg id="svg" version="1.1" xmlns="http://www.w3.org/2000/svg" style="display: block;" viewBox="0 0 146 136"><path d="M0,0 L146,0 L146,136 L0,136 Z " transform="translate(0,0)" style="fill: #36455F;"/><path d="M0,0 L3,0 L3,1 L5,1 L5,3 L4,3 L4,13 L5,13 L5,15 L1,15 L1,13 L2,13 L2,3 L0,3 L0,5 L-1,5 L-1,4 L-2,4 L-2,3 L-5,3 L-5,14 L-4,14 L-4,15 L-9,15 L-9,16 L-10,16 L-10,14 L-11,14 L-11,13 L-12,13 L-12,15 L-16,15 L-16,14 L-15,14 L-15,12 L-16,12 L-16,10 L-20,10 L-20,14 L-19,14 L-19,15 L-24,15 L-24,14 L-27,14 L-27,15 L-31,15 L-31,14 L-33,14 L-33,13 L-34,13 L-34,12 L-35,12 L-35,5 L-34,5 L-34,4 L-33,4 L-33,3 L-32,3 L-32,2 L-23,2 L-23,5 L-21,5 L-21,6 L-20,6 L-20,4 L-19,4 L-19,2 L-16,2 L-16,3 L-14,3 L-14,2 L-13,2 L-13,1 L0,1 Z " transform="translate(96,78)" style="fill: #687485;"/><path d="M0,0 L17,0 L17,1 L19,1 L19,2 L20,2 L20,3 L21,3 L21,4 L22,4 L22,11 L21,11 L21,12 L20,12 L20,13 L18,13 L18,14 L9,14 L9,13 L8,13 L8,14 L0,14 L0,13 L1,13 L1,2 L0,2 Z " transform="translate(23,79)" style="fill: #4E596B;"/><path d="M0,0 L20,0 L20,5 L17,5 L17,3 L16,3 L16,2 L8,2 L8,12 L16,12 L16,11 L17,11 L17,10 L19,10 L19,17 L16,17 L16,15 L8,15 L8,26 L9,26 L9,27 L11,27 L11,28 L0,28 L0,27 L1,27 L1,26 L2,26 L2,25 L3,25 L3,3 L2,3 L2,2 L1,2 L1,1 L0,1 Z " transform="translate(24,43)" style="fill: #E3E3E2;"/><path d="M0,0 L12,0 L12,1 L10,1 L10,4 L11,4 L11,6 L12,6 L12,8 L13,8 L13,9 L14,9 L14,10 L15,10 L15,9 L16,9 L16,8 L17,8 L17,6 L18,6 L18,4 L19,4 L19,1 L17,1 L17,0 L26,0 L26,1 L25,1 L25,2 L24,2 L24,3 L23,3 L23,4 L22,4 L22,5 L21,5 L21,7 L20,7 L20,9 L19,9 L19,10 L18,10 L18,12 L17,12 L17,13 L16,13 L16,25 L17,25 L17,26 L18,26 L18,27 L19,27 L19,28 L8,28 L8,26 L10,26 L10,24 L11,24 L11,14 L10,14 L10,12 L9,12 L9,11 L8,11 L8,9 L7,9 L7,8 L6,8 L6,6 L5,6 L5,5 L4,5 L4,3 L3,3 L3,2 L1,2 L1,1 L0,1 Z " transform="translate(99,43)" style="fill: #E1E1DF;"/><path d="M0,0 L11,0 L11,1 L10,1 L10,2 L9,2 L9,3 L8,3 L8,25 L9,25 L9,26 L19,26 L19,25 L20,25 L20,24 L21,24 L21,21 L24,21 L24,23 L23,23 L23,26 L22,26 L22,28 L0,28 L0,26 L2,26 L2,25 L3,25 L3,2 L1,2 L1,1 L0,1 Z " transform="translate(59,43)" style="fill: #E0E0E0;"/><path d="M0,0 L9,0 L9,3 L11,3 L11,4 L12,4 L12,7 L11,7 L11,9 L10,9 L10,11 L9,11 L9,13 L8,13 L8,12 L5,12 L5,13 L1,13 L1,12 L-1,12 L-1,11 L-2,11 L-2,10 L-3,10 L-3,3 L-2,3 L-2,2 L-1,2 L-1,1 L0,1 Z " transform="translate(64,80)" style="fill: #3C4B60;"/><path d="M0,0 L6,0 L6,1 L8,1 L8,2 L9,2 L9,3 L10,3 L10,10 L8,10 L8,11 L7,11 L7,12 L5,12 L5,13 L0,13 L0,12 L-2,12 L-2,11 L-3,11 L-3,10 L-4,10 L-4,3 L-3,3 L-3,2 L-2,2 L-2,1 L0,1 Z " transform="translate(107,80)" style="fill: #3D4B5E;"/><path d="M0,0 L10,0 L10,1 L11,1 L11,2 L12,2 L12,3 L13,3 L13,10 L12,10 L12,11 L11,11 L11,12 L9,12 L9,13 L0,13 L0,12 L1,12 L1,11 L2,11 L2,1 L0,1 Z " transform="translate(32,80)" style="fill: #C9D0D9;"/><path d="M0,0 L6,0 L6,1 L8,1 L8,2 L9,2 L9,3 L10,3 L10,10 L8,10 L8,11 L7,11 L7,12 L5,12 L5,13 L0,13 L0,12 L-2,12 L-2,11 L-3,11 L-3,10 L-4,10 L-4,3 L-3,3 L-3,2 L-2,2 L-2,1 L0,1 Z M1,1 L1,2 L-1,2 L-1,4 L-2,4 L-2,9 L-1,9 L-1,10 L0,10 L0,11 L6,11 L6,10 L7,10 L7,8 L8,8 L8,5 L7,5 L7,3 L6,3 L6,2 L4,2 L4,1 Z " transform="translate(107,80)" style="fill: #ADB6C1;"/><path d="M0,0 L4,0 L4,1 L5,1 L5,2 L6,2 L6,4 L7,4 L7,5 L8,5 L8,6 L9,6 L9,7 L10,7 L10,8 L11,8 L11,9 L12,9 L12,1 L11,1 L11,0 L15,0 L15,1 L13,1 L13,13 L12,13 L12,12 L11,12 L11,10 L10,10 L10,9 L9,9 L9,8 L8,8 L8,7 L7,7 L7,6 L6,6 L6,5 L4,5 L4,12 L5,12 L5,13 L1,13 L1,12 L2,12 L2,1 L0,1 Z " transform="translate(117,80)" style="fill: #CCD5DF;"/><path d="M0,0 L3,0 L3,3 L4,3 L4,6 L5,6 L5,9 L6,9 L6,11 L7,11 L7,13 L3,13 L3,12 L4,12 L4,10 L3,10 L3,8 L-1,8 L-1,12 L0,12 L0,13 L-4,13 L-4,11 L-3,11 L-3,9 L-2,9 L-2,7 L-1,7 L-1,2 L0,2 Z " transform="translate(77,80)" style="fill: #AEB5C0;"/><path d="M0,0 L3,0 L3,1 L5,1 L5,2 L6,2 L6,3 L7,3 L7,7 L6,7 L6,9 L5,9 L5,10 L0,10 Z " transform="translate(36,81)" style="fill: #39475B;"/><path d="M0,0 L5,0 L5,1 L3,1 L3,10 L4,10 L4,11 L9,11 L9,10 L10,10 L10,1 L9,1 L9,0 L13,0 L13,1 L12,1 L12,12 L13,12 L13,13 L10,13 L10,12 L9,12 L9,13 L4,13 L4,12 L3,12 L3,11 L2,11 L2,1 L0,1 Z " transform="translate(46,80)" style="fill: #B9C2CF;"/><path d="M0,0 L3,0 L3,2 L2,2 L2,5 L1,5 L1,7 L-21,7 L-21,5 L-19,5 L-19,4 L-17,4 L-17,5 L-18,5 L-18,6 L-12,6 L-12,5 L-2,5 L-2,4 L-1,4 L-1,3 L0,3 Z " transform="translate(80,64)" style="fill: #CFD2D8;"/><path d="M0,0 L9,0 L9,1 L8,1 L8,2 L7,2 L7,3 L6,3 L6,4 L5,4 L5,5 L4,5 L4,7 L3,7 L3,9 L2,9 L2,10 L1,10 L1,12 L0,12 L0,13 L-1,13 L-1,11 L-3,11 L-3,10 L-2,10 L-2,9 L-1,9 L-1,8 L0,8 L0,6 L1,6 L1,4 L2,4 L2,1 L0,1 Z " transform="translate(116,43)" style="fill: #D5D8DC;"/><path d="M0,0 L8,0 L8,2 L7,2 L7,1 L3,1 L3,6 L6,6 L6,5 L7,5 L7,8 L6,8 L6,7 L3,7 L3,12 L7,12 L7,11 L8,11 L8,10 L9,10 L9,12 L8,12 L8,13 L0,13 L0,12 L1,12 L1,1 L0,1 Z " transform="translate(23,80)" style="fill: #BAC4CE;"/><path d="M0,0 L8,0 L8,3 L7,3 L7,2 L5,2 L5,1 L2,1 L2,2 L0,2 L0,3 L-1,3 L-1,9 L0,9 L0,11 L7,11 L7,10 L8,10 L8,12 L5,12 L5,13 L1,13 L1,12 L-1,12 L-1,11 L-2,11 L-2,10 L-3,10 L-3,3 L-2,3 L-2,2 L-1,2 L-1,1 L0,1 Z " transform="translate(64,80)" style="fill: #B8C1CC;"/><path d="M0,0 L1,0 L1,10 L9,10 L9,9 L10,9 L10,8 L12,8 L12,15 L9,15 L9,13 L1,13 L1,12 L8,12 L8,11 L0,11 Z " transform="translate(31,45)" style="fill: #C2C6CD;"/><path d="M0,0 L20,0 L20,5 L17,5 L17,3 L16,3 L16,2 L7,2 L7,1 L4,1 L4,2 L3,2 L3,3 L2,3 L2,2 L1,2 L1,1 L0,1 Z " transform="translate(24,43)" style="fill: #D7DBE0;"/><path d="M0,0 L1,0 L1,11 L2,11 L2,12 L3,12 L3,13 L4,13 L4,14 L-7,14 L-7,12 L-5,12 L-5,10 L-4,10 L-4,12 L-3,12 L-3,10 L-2,10 L-2,8 L-1,8 L-1,10 L0,10 Z " transform="translate(114,57)" style="fill: #CED1D5;"/><path d="M0,0 L1,0 L1,10 L6,10 L6,9 L7,9 L7,7 L8,7 L8,9 L9,9 L9,10 L8,10 L8,11 L6,11 L6,12 L-3,12 L-3,11 L-2,11 L-2,10 L-1,10 L-1,11 L0,11 Z " transform="translate(35,81)" style="fill: #979EAA;"/><path d="M0,0 L4,0 L4,1 L3,1 L3,11 L4,11 L4,13 L0,13 L0,11 L1,11 L1,1 L0,1 Z " transform="translate(97,80)" style="fill: #B8C1CC;"/><path d="M0,0 L3,0 L3,3 L2,3 L2,5 L1,5 L1,7 L0,7 L0,8 L-1,8 L-1,9 L-2,9 L-2,8 L-3,8 L-3,7 L-4,7 L-4,5 L-2,5 L-2,4 L-1,4 L-1,3 L0,3 L0,2 L-1,2 L-1,1 L0,1 Z " transform="translate(115,44)" style="fill: #424D60;"/><path d="M0,0 L5,0 L5,1 L1,1 L1,2 L-1,2 L-1,4 L-2,4 L-2,9 L-1,9 L-1,11 L-3,11 L-3,10 L-4,10 L-4,3 L-3,3 L-3,2 L-2,2 L-2,1 L0,1 Z " transform="translate(107,80)" style="fill: #C3CCD6;"/><path d="M0,0 L6,0 L6,4 L5,4 L5,5 L1,5 L1,4 L0,4 Z " transform="translate(125,67)" style="fill: #CFD5DA;"/><path d="M0,0 L6,0 L6,4 L5,4 L5,5 L1,5 L1,4 L0,4 Z " transform="translate(46,67)" style="fill: #D0D5DA;"/><path d="M0,0 L3,0 L3,1 L5,1 L5,2 L1,2 L1,3 L0,3 L0,2 L-12,2 L-12,5 L-13,5 L-13,1 L0,1 Z " transform="translate(96,78)" style="fill: #5D6A79;"/><path d="M0,0 L1,0 L1,1 L2,1 L2,2 L3,2 L3,3 L2,3 L2,10 L3,10 L3,11 L-1,11 L-1,10 L0,10 Z " transform="translate(119,82)" style="fill: #949FA8;"/><path d="M0,0 L5,0 L5,4 L0,4 Z " transform="translate(88,67)" style="fill: #E5E7E5;"/><path d="M0,0 L1,0 L1,1 L3,1 L3,3 L2,3 L2,4 L1,4 L1,6 L0,6 L0,7 L-1,7 L-1,5 L-3,5 L-3,4 L-2,4 L-2,3 L-1,3 L-1,2 L0,2 Z " transform="translate(116,49)" style="fill: #CDCFD7;"/><path d="M0,0 L1,0 L1,4 L6,4 L6,5 L1,5 L1,6 L0,6 L0,7 L-2,7 L-2,6 L-3,6 L-3,5 L-2,5 L-2,4 L0,4 Z " transform="translate(87,67)" style="fill: #616B80;"/></svg>