<svg id="svg" version="1.1" xmlns="http://www.w3.org/2000/svg" style="display: block;" viewBox="0 0 300 300"><path d="M0,0 L300,0 L300,300 L0,300 Z " transform="translate(0,0)" style="fill: #FEFEFE;"/><path d="M0,0 L19,0 L19,1 L23,1 L23,2 L25,2 L25,3 L27,3 L27,4 L29,4 L29,5 L31,5 L31,6 L32,6 L32,7 L33,7 L33,9 L34,9 L34,10 L35,10 L35,12 L36,12 L36,14 L37,14 L37,16 L38,16 L38,27 L37,27 L37,31 L36,31 L36,34 L35,34 L35,36 L34,36 L34,39 L33,39 L33,40 L32,40 L32,42 L31,42 L31,43 L30,43 L30,45 L29,45 L29,46 L28,46 L28,47 L27,47 L27,49 L26,49 L26,50 L25,50 L25,51 L24,51 L24,52 L23,52 L23,53 L22,53 L22,54 L21,54 L21,55 L20,55 L20,56 L19,56 L19,57 L18,57 L18,58 L16,58 L16,59 L15,59 L15,60 L13,60 L13,59 L14,59 L14,58 L15,58 L15,57 L16,57 L16,56 L17,56 L17,54 L18,54 L18,50 L19,50 L19,42 L18,42 L18,41 L17,41 L17,40 L16,40 L16,39 L15,39 L15,38 L13,38 L13,37 L11,37 L11,36 L7,36 L7,35 L18,35 L18,36 L20,36 L20,37 L21,37 L21,39 L22,39 L22,46 L21,46 L21,49 L22,49 L22,48 L23,48 L23,45 L24,45 L24,32 L23,32 L23,31 L22,31 L22,30 L21,30 L21,29 L20,29 L20,28 L19,28 L19,27 L18,27 L18,26 L15,26 L15,25 L12,25 L12,24 L0,24 L0,25 L-5,25 L-5,26 L-8,26 L-8,27 L-10,27 L-10,28 L-13,28 L-13,29 L-15,29 L-15,30 L-16,30 L-16,31 L-18,31 L-18,32 L-20,32 L-20,33 L-21,33 L-21,34 L-23,34 L-23,35 L-24,35 L-24,36 L-25,36 L-25,37 L-23,37 L-23,36 L-21,36 L-21,35 L-20,35 L-20,34 L-18,34 L-18,33 L-17,33 L-17,32 L-15,32 L-15,31 L-13,31 L-13,30 L-11,30 L-11,29 L-8,29 L-8,28 L-6,28 L-6,27 L-2,27 L-2,28 L-4,28 L-4,29 L-6,29 L-6,30 L-5,30 L-5,36 L-8,36 L-8,37 L-11,37 L-11,38 L-15,38 L-15,39 L-16,39 L-16,40 L-14,40 L-14,39 L-9,39 L-9,40 L-11,40 L-11,41 L-12,41 L-12,42 L-14,42 L-14,43 L-15,43 L-15,44 L-17,44 L-17,45 L-18,45 L-18,46 L-19,46 L-19,47 L-21,47 L-21,48 L-22,48 L-22,49 L-23,49 L-23,50 L-24,50 L-24,51 L-25,51 L-25,52 L-27,52 L-27,53 L-28,53 L-28,54 L-29,54 L-29,55 L-30,55 L-30,56 L-31,56 L-31,58 L-32,58 L-32,59 L-33,59 L-33,60 L-34,60 L-34,62 L-35,62 L-35,63 L-36,63 L-36,64 L-37,64 L-37,66 L-38,66 L-38,68 L-39,68 L-39,71 L-40,71 L-40,75 L-39,75 L-39,78 L-38,78 L-38,79 L-37,79 L-37,80 L-39,80 L-39,79 L-41,79 L-41,78 L-42,78 L-42,77 L-43,77 L-43,76 L-44,76 L-44,75 L-45,75 L-45,73 L-46,73 L-46,62 L-47,62 L-47,64 L-48,64 L-48,67 L-49,67 L-49,70 L-50,70 L-50,71 L-51,71 L-51,72 L-50,72 L-50,80 L-49,80 L-49,81 L-48,81 L-48,82 L-46,82 L-46,83 L-44,83 L-44,84 L-38,84 L-38,85 L-26,85 L-26,84 L-20,84 L-20,83 L-17,83 L-17,82 L-13,82 L-13,81 L-10,81 L-10,80 L-7,80 L-7,81 L-9,81 L-9,82 L-12,82 L-12,83 L-15,83 L-15,84 L-19,84 L-19,85 L-23,85 L-23,86 L-28,86 L-28,87 L-42,87 L-42,86 L-46,86 L-46,85 L-49,85 L-49,84 L-51,84 L-51,83 L-53,83 L-53,82 L-54,82 L-54,81 L-55,81 L-55,80 L-56,80 L-56,79 L-57,79 L-57,78 L-58,78 L-58,77 L-59,77 L-59,76 L-60,76 L-60,74 L-61,74 L-61,72 L-62,72 L-62,69 L-63,69 L-63,55 L-62,55 L-62,51 L-61,51 L-61,49 L-60,49 L-60,46 L-59,46 L-59,44 L-58,44 L-58,42 L-57,42 L-57,40 L-56,40 L-56,39 L-55,39 L-55,38 L-54,38 L-54,36 L-53,36 L-53,34 L-52,34 L-52,33 L-51,33 L-51,32 L-50,32 L-50,30 L-49,30 L-49,29 L-48,29 L-48,28 L-47,28 L-47,27 L-46,27 L-46,26 L-45,26 L-45,25 L-44,25 L-44,24 L-43,24 L-43,23 L-42,23 L-42,22 L-41,22 L-41,21 L-40,21 L-40,20 L-38,20 L-38,19 L-37,19 L-37,18 L-36,18 L-36,17 L-35,17 L-35,16 L-33,16 L-33,15 L-32,15 L-32,14 L-30,14 L-30,13 L-29,13 L-29,12 L-27,12 L-27,11 L-25,11 L-25,10 L-24,10 L-24,9 L-22,9 L-22,8 L-20,8 L-20,7 L-17,7 L-17,6 L-15,6 L-15,5 L-13,5 L-13,4 L-10,4 L-10,3 L-7,3 L-7,2 L-3,2 L-3,1 L0,1 Z " transform="translate(101,41)" style="fill: #A07117;"/><path d="M0,0 L12,0 L12,1 L15,1 L15,2 L18,2 L18,3 L19,3 L19,4 L20,4 L20,5 L21,5 L21,6 L22,6 L22,7 L23,7 L23,8 L24,8 L24,21 L23,21 L23,24 L22,24 L22,25 L21,25 L21,22 L22,22 L22,15 L21,15 L21,13 L20,13 L20,12 L18,12 L18,11 L7,11 L7,12 L11,12 L11,13 L13,13 L13,14 L15,14 L15,15 L16,15 L16,16 L17,16 L17,17 L18,17 L18,18 L19,18 L19,26 L18,26 L18,30 L17,30 L17,32 L16,32 L16,33 L15,33 L15,34 L14,34 L14,35 L13,35 L13,36 L15,36 L15,35 L16,35 L16,34 L18,34 L18,33 L19,33 L19,32 L20,32 L20,31 L21,31 L21,30 L22,30 L22,29 L23,29 L23,31 L22,31 L22,32 L21,32 L21,33 L20,33 L20,34 L19,34 L19,35 L24,35 L24,36 L23,36 L23,37 L22,37 L22,38 L20,38 L20,39 L19,39 L19,40 L18,40 L18,41 L16,41 L16,42 L15,42 L15,45 L14,45 L14,46 L12,46 L12,47 L11,47 L11,48 L9,48 L9,49 L8,49 L8,50 L6,50 L6,51 L4,51 L4,52 L3,52 L3,53 L0,53 L0,54 L-2,54 L-2,55 L-3,55 L-3,56 L-6,56 L-6,57 L-7,57 L-7,56 L-10,56 L-10,57 L-13,57 L-13,58 L-17,58 L-17,59 L-20,59 L-20,60 L-26,60 L-26,61 L-38,61 L-38,60 L-44,60 L-44,59 L-46,59 L-46,58 L-48,58 L-48,57 L-49,57 L-49,56 L-50,56 L-50,48 L-51,48 L-51,47 L-50,47 L-50,46 L-49,46 L-49,43 L-48,43 L-48,40 L-47,40 L-47,38 L-46,38 L-46,49 L-45,49 L-45,51 L-44,51 L-44,52 L-43,52 L-43,53 L-42,53 L-42,54 L-41,54 L-41,55 L-39,55 L-39,56 L-37,56 L-37,55 L-38,55 L-38,54 L-39,54 L-39,51 L-40,51 L-40,47 L-39,47 L-39,44 L-38,44 L-38,42 L-37,42 L-37,40 L-36,40 L-36,39 L-35,39 L-35,38 L-34,38 L-34,36 L-33,36 L-33,35 L-32,35 L-32,34 L-31,34 L-31,32 L-30,32 L-30,31 L-29,31 L-29,30 L-28,30 L-28,29 L-27,29 L-27,28 L-25,28 L-25,27 L-24,27 L-24,26 L-23,26 L-23,25 L-22,25 L-22,24 L-21,24 L-21,23 L-19,23 L-19,22 L-18,22 L-18,21 L-17,21 L-17,20 L-15,20 L-15,19 L-14,19 L-14,18 L-12,18 L-12,17 L-11,17 L-11,16 L-9,16 L-9,15 L-14,15 L-14,16 L-16,16 L-16,15 L-15,15 L-15,14 L-11,14 L-11,13 L-8,13 L-8,12 L-5,12 L-5,6 L-6,6 L-6,5 L-4,5 L-4,4 L-2,4 L-2,3 L-6,3 L-6,4 L-8,4 L-8,5 L-11,5 L-11,6 L-13,6 L-13,7 L-15,7 L-15,8 L-17,8 L-17,9 L-18,9 L-18,10 L-20,10 L-20,11 L-21,11 L-21,12 L-23,12 L-23,13 L-25,13 L-25,12 L-24,12 L-24,11 L-23,11 L-23,10 L-21,10 L-21,9 L-20,9 L-20,8 L-18,8 L-18,7 L-16,7 L-16,6 L-15,6 L-15,5 L-13,5 L-13,4 L-10,4 L-10,3 L-8,3 L-8,2 L-5,2 L-5,1 L0,1 Z " transform="translate(101,65)" style="fill: #FAFAF9;"/><path d="M0,0 L12,0 L12,6 L11,6 L11,9 L10,9 L10,15 L11,15 L11,17 L12,17 L12,20 L13,20 L13,17 L37,17 L37,21 L29,21 L29,32 L33,32 L33,26 L36,26 L36,27 L37,27 L37,37 L36,37 L36,38 L34,38 L34,40 L32,40 L32,39 L33,39 L33,37 L28,37 L28,39 L29,39 L29,42 L30,42 L30,43 L33,43 L33,44 L32,44 L32,45 L36,45 L36,52 L34,52 L34,51 L32,51 L32,50 L28,50 L28,49 L20,49 L20,50 L17,50 L17,51 L16,51 L16,52 L14,52 L14,53 L13,53 L13,54 L12,54 L12,55 L11,55 L11,57 L10,57 L10,59 L9,59 L9,61 L8,61 L8,69 L9,69 L9,72 L10,72 L10,75 L11,75 L11,76 L12,76 L12,77 L13,77 L13,78 L14,78 L14,79 L15,79 L15,80 L17,80 L17,81 L30,81 L30,65 L36,65 L36,84 L34,84 L34,85 L30,85 L30,86 L15,86 L15,85 L12,85 L12,84 L11,84 L11,83 L9,83 L9,82 L8,82 L8,81 L7,81 L7,80 L6,80 L6,78 L5,78 L5,76 L4,76 L4,73 L3,73 L3,57 L2,57 L2,55 L1,55 L1,56 L0,56 L0,57 L-2,57 L-2,55 L-3,55 L-3,62 L-4,62 L-4,64 L-5,64 L-5,85 L-7,85 L-7,83 L-8,83 L-8,82 L-9,82 L-9,81 L-10,81 L-10,80 L-11,80 L-11,79 L-12,79 L-12,78 L-13,78 L-13,77 L-14,77 L-14,76 L-15,76 L-15,75 L-16,75 L-16,74 L-17,74 L-17,73 L-18,73 L-18,72 L-19,72 L-19,71 L-20,71 L-20,70 L-21,70 L-21,69 L-22,69 L-22,68 L-23,68 L-23,67 L-24,67 L-24,66 L-25,66 L-25,65 L-26,65 L-26,64 L-27,64 L-27,63 L-28,63 L-28,62 L-29,62 L-29,60 L-30,60 L-30,59 L-32,59 L-32,86 L-38,86 L-38,45 L-37,45 L-37,46 L-36,46 L-36,47 L-35,47 L-35,48 L-34,48 L-34,49 L-33,49 L-33,50 L-32,50 L-32,51 L-31,51 L-31,52 L-30,52 L-30,53 L-29,53 L-29,54 L-28,54 L-28,55 L-27,55 L-27,56 L-26,56 L-26,57 L-25,57 L-25,58 L-24,58 L-24,59 L-23,59 L-23,60 L-22,60 L-22,61 L-21,61 L-21,62 L-20,62 L-20,63 L-19,63 L-19,64 L-18,64 L-18,65 L-17,65 L-17,66 L-16,66 L-16,67 L-15,67 L-15,68 L-14,68 L-14,69 L-13,69 L-13,70 L-12,70 L-12,72 L-10,72 L-10,45 L-7,45 L-7,44 L-5,44 L-5,43 L-3,43 L-3,42 L-2,42 L-2,41 L-1,41 L-1,40 L0,40 L0,38 L1,38 L1,37 L0,37 Z " transform="translate(214,119)" style="fill: #F3FAFA;"/><path d="M0,0 L15,0 L15,5 L12,5 L12,4 L3,4 L3,5 L2,5 L2,6 L0,6 L0,7 L-1,7 L-1,13 L0,13 L0,14 L1,14 L1,15 L2,15 L2,16 L4,16 L4,17 L7,17 L7,18 L9,18 L9,19 L11,19 L11,20 L13,20 L13,21 L14,21 L14,22 L18,22 L18,25 L19,25 L19,28 L18,28 L18,29 L19,29 L19,33 L20,33 L20,35 L19,35 L19,36 L18,36 L18,37 L17,37 L17,38 L15,38 L15,40 L14,40 L14,41 L13,41 L13,42 L11,42 L11,44 L12,44 L12,43 L14,43 L14,44 L16,44 L16,45 L15,45 L15,46 L17,46 L17,47 L18,47 L18,48 L20,48 L20,49 L19,49 L19,84 L15,84 L15,68 L-1,68 L-1,85 L-7,85 L-7,70 L-8,70 L-8,68 L-9,68 L-9,63 L-8,63 L-8,60 L-7,60 L-7,50 L-9,50 L-9,49 L-5,49 L-5,48 L-4,48 L-4,47 L-5,47 L-5,45 L-6,45 L-6,44 L-5,44 L-5,43 L-7,43 L-7,37 L-6,37 L-6,35 L-4,35 L-4,36 L7,36 L7,35 L9,35 L9,34 L10,34 L10,33 L11,33 L11,26 L10,26 L10,25 L8,25 L8,24 L6,24 L6,23 L4,23 L4,22 L1,22 L1,21 L-1,21 L-1,20 L-3,20 L-3,19 L-4,19 L-4,18 L-5,18 L-5,16 L-6,16 L-6,15 L-7,15 L-7,7 L-6,7 L-6,5 L-5,5 L-5,4 L-4,4 L-4,3 L-3,3 L-3,2 L-2,2 L-2,1 L0,1 Z " transform="translate(121,164)" style="fill: #FCFCF9;"/><path d="M0,0 L2,0 L2,1 L3,1 L3,2 L2,2 L2,3 L4,3 L4,2 L7,2 L7,1 L8,1 L8,4 L9,4 L9,5 L14,5 L14,29 L15,29 L15,32 L16,32 L16,34 L17,34 L17,35 L19,35 L19,36 L26,36 L26,35 L27,35 L27,34 L28,34 L28,33 L29,33 L29,31 L30,31 L30,5 L34,5 L34,6 L35,6 L35,29 L34,29 L34,32 L33,32 L33,34 L32,34 L32,36 L31,36 L31,37 L30,37 L30,38 L28,38 L28,39 L26,39 L26,40 L18,40 L18,39 L16,39 L16,38 L15,38 L15,39 L12,39 L12,38 L13,38 L13,37 L12,37 L12,36 L9,36 L9,37 L8,37 L8,38 L7,38 L7,40 L6,40 L6,41 L-3,41 L-3,39 L-4,39 L-4,37 L-6,37 L-6,33 L-10,33 L-10,30 L-11,30 L-11,28 L-12,28 L-12,32 L-13,32 L-13,39 L-18,39 L-18,5 L-14,5 L-14,19 L-12,19 L-12,18 L-11,18 L-11,17 L-10,17 L-10,16 L-9,16 L-9,15 L-8,15 L-8,8 L-6,8 L-6,7 L-4,7 L-4,6 L-3,6 L-3,5 L-2,5 L-2,1 L0,1 Z " transform="translate(166,209)" style="fill: #FDFCF6;"/><path d="M0,0 L9,0 L9,1 L10,1 L10,2 L11,2 L11,3 L12,3 L12,4 L14,4 L14,5 L15,5 L15,1 L17,1 L17,0 L37,0 L37,4 L29,4 L29,34 L23,34 L23,12 L22,12 L22,9 L21,9 L21,8 L19,8 L19,7 L18,7 L18,8 L16,8 L16,21 L17,21 L17,22 L16,22 L16,24 L17,24 L17,25 L16,25 L16,26 L17,26 L17,27 L18,27 L18,28 L17,28 L17,30 L16,30 L16,29 L15,29 L15,31 L14,31 L14,30 L13,30 L13,32 L12,32 L12,33 L13,33 L13,34 L12,34 L12,35 L10,35 L10,36 L8,36 L8,37 L6,37 L6,36 L4,36 L4,37 L-3,37 L-3,36 L-6,36 L-6,29 L-7,29 L-7,25 L-3,25 L-3,28 L-2,28 L-2,29 L-1,29 L-1,30 L0,30 L0,31 L6,31 L6,30 L7,30 L7,29 L8,29 L8,28 L9,28 L9,21 L8,21 L8,20 L6,20 L6,19 L5,19 L5,18 L2,18 L2,17 L0,17 L0,16 L-2,16 L-2,15 L-3,15 L-3,14 L-4,14 L-4,13 L-5,13 L-5,11 L-6,11 L-6,5 L-5,5 L-5,4 L-4,4 L-4,3 L-3,3 L-3,2 L-2,2 L-2,1 L0,1 Z M13,5 L13,6 L14,6 L14,5 Z " transform="translate(214,214)" style="fill: #F3EED8;"/><path d="M0,0 L4,0 L4,1 L2,1 L2,2 L0,2 L0,3 L1,3 L1,9 L-2,9 L-2,10 L-5,10 L-5,11 L-9,11 L-9,12 L-10,12 L-10,13 L-8,13 L-8,12 L-3,12 L-3,13 L-5,13 L-5,14 L-6,14 L-6,15 L-8,15 L-8,16 L-9,16 L-9,17 L-11,17 L-11,18 L-12,18 L-12,19 L-13,19 L-13,20 L-15,20 L-15,21 L-16,21 L-16,22 L-17,22 L-17,23 L-18,23 L-18,24 L-19,24 L-19,25 L-21,25 L-21,26 L-22,26 L-22,27 L-23,27 L-23,28 L-24,28 L-24,29 L-25,29 L-25,31 L-26,31 L-26,32 L-27,32 L-27,33 L-28,33 L-28,35 L-29,35 L-29,36 L-30,36 L-30,37 L-31,37 L-31,39 L-32,39 L-32,41 L-33,41 L-33,44 L-34,44 L-34,48 L-33,48 L-33,51 L-32,51 L-32,52 L-31,52 L-31,53 L-33,53 L-33,52 L-35,52 L-35,51 L-36,51 L-36,50 L-37,50 L-37,49 L-38,49 L-38,48 L-39,48 L-39,46 L-40,46 L-40,35 L-41,35 L-41,37 L-42,37 L-42,40 L-43,40 L-43,43 L-44,43 L-44,44 L-45,44 L-45,45 L-44,45 L-44,52 L-45,52 L-45,51 L-46,51 L-46,49 L-47,49 L-47,42 L-46,42 L-46,39 L-45,39 L-45,37 L-44,37 L-44,35 L-43,35 L-43,33 L-42,33 L-42,32 L-41,32 L-41,31 L-40,31 L-40,30 L-39,30 L-39,28 L-38,28 L-38,27 L-37,27 L-37,26 L-36,26 L-36,25 L-34,25 L-34,23 L-33,23 L-33,22 L-32,22 L-32,21 L-31,21 L-31,20 L-30,20 L-30,19 L-29,19 L-29,18 L-28,18 L-28,17 L-27,17 L-27,16 L-26,16 L-26,15 L-25,15 L-25,14 L-24,14 L-24,13 L-23,13 L-23,12 L-22,12 L-22,11 L-21,11 L-21,10 L-17,10 L-17,9 L-15,9 L-15,8 L-14,8 L-14,7 L-12,7 L-12,6 L-11,6 L-11,5 L-9,5 L-9,4 L-7,4 L-7,3 L-5,3 L-5,2 L-2,2 L-2,1 L0,1 Z " transform="translate(95,68)" style="fill: #E3DED1;"/><path d="M0,0 L1,0 L1,1 L2,1 L2,2 L3,2 L3,3 L4,3 L4,4 L5,4 L5,5 L6,5 L6,6 L7,6 L7,7 L8,7 L8,8 L9,8 L9,9 L10,9 L10,10 L11,10 L11,11 L12,11 L12,12 L13,12 L13,13 L14,13 L14,14 L15,14 L15,15 L16,15 L16,16 L17,16 L17,17 L18,17 L18,18 L19,18 L19,19 L20,19 L20,20 L21,20 L21,21 L22,21 L22,22 L23,22 L23,23 L24,23 L24,24 L25,24 L25,25 L26,25 L26,27 L28,27 L28,0 L33,0 L33,40 L31,40 L31,38 L30,38 L30,37 L29,37 L29,36 L28,36 L28,35 L27,35 L27,34 L26,34 L26,33 L25,33 L25,32 L24,32 L24,31 L23,31 L23,30 L22,30 L22,29 L21,29 L21,28 L20,28 L20,27 L19,27 L19,26 L18,26 L18,25 L17,25 L17,24 L16,24 L16,23 L15,23 L15,22 L14,22 L14,21 L13,21 L13,20 L12,20 L12,19 L11,19 L11,18 L10,18 L10,17 L9,17 L9,15 L8,15 L8,14 L6,14 L6,41 L0,41 Z " transform="translate(176,164)" style="fill: #203653;"/><path d="M0,0 L12,0 L12,6 L11,6 L11,9 L10,9 L10,15 L11,15 L11,17 L12,17 L12,20 L13,20 L13,17 L37,17 L37,21 L29,21 L29,32 L33,32 L33,26 L36,26 L36,27 L37,27 L37,34 L36,34 L36,35 L35,35 L35,36 L27,36 L27,35 L26,35 L26,33 L25,33 L25,21 L22,21 L22,27 L21,27 L21,30 L20,30 L20,32 L19,32 L19,33 L18,33 L18,34 L17,34 L17,35 L15,35 L15,36 L13,36 L13,37 L12,37 L12,36 L11,36 L11,35 L10,35 L10,33 L12,33 L12,32 L14,32 L14,31 L15,31 L15,30 L16,30 L16,29 L17,29 L17,27 L18,27 L18,21 L13,21 L13,24 L12,24 L12,26 L11,26 L11,27 L5,27 L5,24 L8,24 L8,23 L9,23 L9,20 L8,20 L8,17 L7,17 L7,14 L6,14 L6,9 L7,9 L7,5 L8,5 L8,3 L4,3 L4,37 L0,37 Z " transform="translate(214,119)" style="fill: #374C67;"/><path d="M0,0 L18,0 L18,7 L16,7 L16,6 L14,6 L14,5 L10,5 L10,4 L2,4 L2,5 L-1,5 L-1,6 L-2,6 L-2,7 L-4,7 L-4,8 L-5,8 L-5,9 L-6,9 L-6,10 L-7,10 L-7,12 L-8,12 L-8,14 L-9,14 L-9,16 L-10,16 L-10,24 L-9,24 L-9,27 L-8,27 L-8,30 L-7,30 L-7,31 L-6,31 L-6,32 L-5,32 L-5,33 L-4,33 L-4,34 L-3,34 L-3,35 L-1,35 L-1,36 L12,36 L12,20 L18,20 L18,39 L16,39 L16,40 L12,40 L12,41 L-3,41 L-3,40 L-6,40 L-6,39 L-7,39 L-7,38 L-9,38 L-9,37 L-10,37 L-10,36 L-11,36 L-11,35 L-12,35 L-12,33 L-13,33 L-13,31 L-14,31 L-14,28 L-15,28 L-15,14 L-14,14 L-14,11 L-13,11 L-13,9 L-12,9 L-12,8 L-11,8 L-11,7 L-10,7 L-10,6 L-9,6 L-9,5 L-8,5 L-8,4 L-7,4 L-7,3 L-6,3 L-6,2 L-4,2 L-4,1 L0,1 Z " transform="translate(232,164)" style="fill: #163554;"/><path d="M0,0 L21,0 L21,5 L6,5 L6,17 L21,17 L21,22 L6,22 L6,36 L21,36 L21,41 L0,41 Z " transform="translate(146,164)" style="fill: #2D4568;"/><path d="M0,0 L15,0 L15,5 L12,5 L12,4 L3,4 L3,5 L2,5 L2,6 L0,6 L0,7 L-1,7 L-1,13 L0,13 L0,14 L1,14 L1,15 L2,15 L2,16 L4,16 L4,17 L7,17 L7,18 L9,18 L9,19 L11,19 L11,20 L13,20 L13,21 L14,21 L14,22 L15,22 L15,23 L16,23 L16,25 L17,25 L17,33 L16,33 L16,35 L15,35 L15,36 L14,36 L14,37 L13,37 L13,38 L12,38 L12,39 L10,39 L10,40 L7,40 L7,41 L-6,41 L-6,35 L-4,35 L-4,36 L7,36 L7,35 L9,35 L9,34 L10,34 L10,33 L11,33 L11,26 L10,26 L10,25 L8,25 L8,24 L6,24 L6,23 L4,23 L4,22 L1,22 L1,21 L-1,21 L-1,20 L-3,20 L-3,19 L-4,19 L-4,18 L-5,18 L-5,16 L-6,16 L-6,15 L-7,15 L-7,7 L-6,7 L-6,5 L-5,5 L-5,4 L-4,4 L-4,3 L-3,3 L-3,2 L-2,2 L-2,1 L0,1 Z " transform="translate(121,164)" style="fill: #193259;"/><path d="M0,0 L1,0 L1,1 L3,1 L3,2 L4,2 L4,4 L5,4 L5,5 L6,5 L6,6 L5,6 L5,12 L6,12 L6,19 L5,19 L5,23 L7,23 L7,24 L6,24 L6,25 L5,25 L5,26 L7,26 L7,27 L8,27 L8,21 L9,21 L9,20 L8,20 L8,7 L9,7 L9,4 L10,4 L10,3 L11,3 L11,4 L12,4 L12,2 L14,2 L14,0 L18,0 L18,1 L27,1 L27,2 L28,2 L28,5 L27,5 L27,4 L26,4 L26,3 L25,3 L25,2 L16,2 L16,3 L14,3 L14,4 L13,4 L13,5 L12,5 L12,6 L11,6 L11,7 L10,7 L10,13 L11,13 L11,15 L12,15 L12,16 L13,16 L13,17 L14,17 L14,18 L16,18 L16,19 L18,19 L18,20 L21,20 L21,21 L22,21 L22,22 L24,22 L24,23 L25,23 L25,30 L24,30 L24,31 L23,31 L23,32 L22,32 L22,33 L16,33 L16,32 L15,32 L15,31 L14,31 L14,30 L13,30 L13,27 L9,27 L9,31 L10,31 L10,33 L8,33 L8,32 L7,32 L7,31 L6,31 L6,30 L5,30 L5,31 L4,31 L4,34 L3,34 L3,33 L2,33 L2,35 L1,35 L1,36 L0,36 L0,37 L-1,37 L-1,38 L-6,38 L-6,39 L-9,39 L-9,40 L-11,40 L-11,39 L-14,39 L-14,37 L-6,37 L-6,36 L-4,36 L-4,35 L-2,35 L-2,34 L-1,34 L-1,33 L0,33 L0,31 L1,31 L1,29 L2,29 L2,26 L3,26 L3,3 L2,3 L2,2 L0,2 Z " transform="translate(198,212)" style="fill: #FAF7E8;"/><path d="M0,0 L3,0 L3,1 L4,1 L4,3 L2,3 L2,4 L-3,4 L-3,6 L3,6 L3,9 L-3,9 L-3,11 L3,11 L3,14 L-3,14 L-3,17 L23,17 L23,14 L17,14 L17,11 L23,11 L23,9 L17,9 L17,6 L23,6 L23,4 L17,4 L17,0 L27,0 L27,16 L28,16 L28,17 L29,17 L29,26 L25,26 L25,20 L-4,20 L-4,26 L-8,26 L-8,17 L-6,17 L-6,1 L0,1 Z " transform="translate(173,118)" style="fill: #14294B;"/><path d="M0,0 L34,0 L34,4 L19,4 L19,29 L35,29 L35,33 L-2,33 L-2,29 L15,29 L15,4 L0,4 Z " transform="translate(117,120)" style="fill: #253854;"/><path d="M0,0 L2,0 L2,1 L1,1 L1,2 L0,2 L0,3 L-2,3 L-2,4 L-3,4 L-3,5 L-4,5 L-4,6 L-6,6 L-6,7 L-7,7 L-7,8 L-9,8 L-9,9 L-10,9 L-10,10 L-12,10 L-12,11 L-14,11 L-14,12 L-15,12 L-15,13 L-17,13 L-17,14 L-19,14 L-19,15 L-21,15 L-21,16 L-23,16 L-23,17 L-25,17 L-25,18 L-28,18 L-28,19 L-31,19 L-31,20 L-33,20 L-33,21 L-38,21 L-38,22 L-43,22 L-43,23 L-54,23 L-54,22 L-55,22 L-55,21 L-57,21 L-57,20 L-58,20 L-58,19 L-59,19 L-59,17 L-60,17 L-60,12 L-57,12 L-57,13 L-53,13 L-53,14 L-37,14 L-37,13 L-31,13 L-31,12 L-26,12 L-26,11 L-22,11 L-22,10 L-19,10 L-19,9 L-16,9 L-16,8 L-13,8 L-13,7 L-11,7 L-11,6 L-9,6 L-9,5 L-6,5 L-6,4 L-5,4 L-5,3 L-3,3 L-3,2 L-1,2 L-1,1 L0,1 Z " transform="translate(123,100)" style="fill: #37494B;"/><path d="M0,0 L12,0 L12,1 L15,1 L15,2 L18,2 L18,3 L19,3 L19,4 L20,4 L20,5 L21,5 L21,6 L22,6 L22,7 L23,7 L23,8 L24,8 L24,21 L23,21 L23,24 L22,24 L22,25 L21,25 L21,22 L22,22 L22,15 L21,15 L21,13 L20,13 L20,12 L18,12 L18,11 L7,11 L7,12 L6,12 L6,10 L3,10 L3,11 L-1,11 L-1,12 L-5,12 L-5,6 L-6,6 L-6,5 L-4,5 L-4,4 L-2,4 L-2,3 L-6,3 L-6,4 L-8,4 L-8,5 L-11,5 L-11,6 L-13,6 L-13,7 L-15,7 L-15,8 L-17,8 L-17,9 L-18,9 L-18,10 L-20,10 L-20,11 L-21,11 L-21,12 L-23,12 L-23,13 L-25,13 L-25,12 L-24,12 L-24,11 L-23,11 L-23,10 L-21,10 L-21,9 L-20,9 L-20,8 L-18,8 L-18,7 L-16,7 L-16,6 L-15,6 L-15,5 L-13,5 L-13,4 L-10,4 L-10,3 L-8,3 L-8,2 L-5,2 L-5,1 L0,1 Z " transform="translate(101,65)" style="fill: #E1D1A6;"/><path d="M0,0 L4,0 L4,14 L20,14 L20,0 L24,0 L24,34 L20,34 L20,18 L4,18 L4,34 L0,34 Z " transform="translate(116,214)" style="fill: #896420;"/><path d="M0,0 L4,0 L4,24 L5,24 L5,27 L6,27 L6,29 L7,29 L7,30 L9,30 L9,31 L16,31 L16,30 L17,30 L17,29 L18,29 L18,28 L19,28 L19,26 L20,26 L20,0 L24,0 L24,1 L25,1 L25,24 L24,24 L24,27 L23,27 L23,29 L22,29 L22,31 L21,31 L21,32 L20,32 L20,33 L18,33 L18,34 L16,34 L16,35 L8,35 L8,34 L6,34 L6,33 L5,33 L5,32 L4,32 L4,31 L3,31 L3,30 L2,30 L2,28 L1,28 L1,26 L0,26 Z " transform="translate(176,214)" style="fill: #90723F;"/><path d="M0,0 L4,0 L4,14 L6,14 L6,13 L7,13 L7,12 L8,12 L8,11 L9,11 L9,10 L10,10 L10,9 L11,9 L11,8 L12,8 L12,7 L13,7 L13,5 L14,5 L14,4 L15,4 L15,3 L17,3 L17,2 L18,2 L18,0 L24,0 L24,2 L22,2 L22,3 L21,3 L21,4 L20,4 L20,5 L19,5 L19,6 L18,6 L18,7 L17,7 L17,8 L16,8 L16,9 L15,9 L15,10 L14,10 L14,11 L13,11 L13,12 L12,12 L12,13 L11,13 L11,14 L10,14 L10,15 L9,15 L9,17 L10,17 L10,18 L11,18 L11,19 L12,19 L12,20 L13,20 L13,21 L14,21 L14,22 L15,22 L15,24 L16,24 L16,25 L17,25 L17,26 L18,26 L18,27 L19,27 L19,28 L20,28 L20,30 L21,30 L21,31 L22,31 L22,32 L23,32 L23,33 L24,33 L24,34 L18,34 L18,33 L17,33 L17,32 L16,32 L16,30 L15,30 L15,29 L14,29 L14,28 L13,28 L13,27 L12,27 L12,25 L11,25 L11,24 L10,24 L10,23 L9,23 L9,22 L8,22 L8,20 L7,20 L7,19 L5,19 L5,20 L4,20 L4,34 L0,34 Z " transform="translate(148,214)" style="fill: #81682E;"/><path d="M0,0 L2,0 L2,1 L3,1 L3,3 L8,3 L8,4 L12,4 L12,7 L11,7 L11,9 L12,9 L12,10 L11,10 L11,12 L12,12 L12,13 L13,13 L13,14 L12,14 L12,15 L11,15 L11,17 L13,17 L13,18 L20,18 L20,21 L-6,21 L-6,18 L0,18 L0,15 L-6,15 L-6,13 L0,13 L0,10 L-6,10 L-6,8 L-1,8 L-1,7 L1,7 L1,5 L0,5 L0,4 L-3,4 L-3,5 L-6,5 L-6,3 L-5,3 L-5,2 L-3,2 L-3,3 L0,3 Z " transform="translate(176,114)" style="fill: #E1E7EE;"/><path d="M0,0 L9,0 L9,1 L10,1 L10,2 L11,2 L11,3 L12,3 L12,6 L10,6 L10,7 L9,7 L9,6 L8,6 L8,5 L7,5 L7,4 L1,4 L1,5 L-1,5 L-1,6 L-2,6 L-2,10 L-1,10 L-1,11 L0,11 L0,12 L1,12 L1,13 L3,13 L3,14 L6,14 L6,15 L8,15 L8,16 L9,16 L9,17 L11,17 L11,18 L12,18 L12,20 L13,20 L13,29 L12,29 L12,31 L11,31 L11,32 L10,32 L10,33 L8,33 L8,34 L7,34 L7,35 L-1,35 L-1,34 L-3,34 L-3,33 L-4,33 L-4,32 L-5,32 L-5,31 L-6,31 L-6,29 L-7,29 L-7,25 L-3,25 L-3,28 L-2,28 L-2,29 L-1,29 L-1,30 L0,30 L0,31 L6,31 L6,30 L7,30 L7,29 L8,29 L8,28 L9,28 L9,21 L8,21 L8,20 L6,20 L6,19 L5,19 L5,18 L2,18 L2,17 L0,17 L0,16 L-2,16 L-2,15 L-3,15 L-3,14 L-4,14 L-4,13 L-5,13 L-5,11 L-6,11 L-6,5 L-5,5 L-5,4 L-4,4 L-4,3 L-3,3 L-3,2 L-2,2 L-2,1 L0,1 Z " transform="translate(214,214)" style="fill: #89662F;"/><path d="M0,0 L12,0 L12,6 L11,6 L11,9 L10,9 L10,15 L11,15 L11,17 L12,17 L12,26 L11,26 L11,27 L5,27 L5,24 L8,24 L8,23 L9,23 L9,20 L8,20 L8,17 L7,17 L7,14 L6,14 L6,9 L7,9 L7,5 L8,5 L8,3 L4,3 L4,37 L0,37 Z " transform="translate(214,119)" style="fill: #183054;"/><path d="M0,0 L1,0 L1,11 L2,11 L2,13 L3,13 L3,14 L4,14 L4,15 L5,15 L5,16 L6,16 L6,17 L8,17 L8,18 L10,18 L10,17 L9,17 L9,16 L8,16 L8,13 L7,13 L7,9 L8,9 L8,12 L9,12 L9,14 L10,14 L10,16 L11,16 L11,17 L12,17 L12,18 L14,18 L14,19 L15,19 L15,20 L26,20 L26,19 L31,19 L31,18 L36,18 L36,17 L38,17 L38,16 L41,16 L41,15 L44,15 L44,14 L46,14 L46,13 L48,13 L48,12 L50,12 L50,11 L52,11 L52,10 L54,10 L54,9 L55,9 L55,8 L57,8 L57,7 L59,7 L59,6 L60,6 L60,5 L62,5 L62,7 L61,7 L61,8 L59,8 L59,9 L58,9 L58,10 L56,10 L56,11 L55,11 L55,12 L53,12 L53,13 L51,13 L51,14 L50,14 L50,15 L47,15 L47,16 L45,16 L45,17 L44,17 L44,18 L41,18 L41,19 L40,19 L40,18 L37,18 L37,19 L34,19 L34,20 L30,20 L30,21 L27,21 L27,22 L21,22 L21,23 L9,23 L9,22 L3,22 L3,21 L1,21 L1,20 L-1,20 L-1,19 L-2,19 L-2,18 L-3,18 L-3,10 L-4,10 L-4,9 L-3,9 L-3,8 L-2,8 L-2,5 L-1,5 L-1,2 L0,2 Z " transform="translate(54,103)" style="fill: #F5F4E9;"/><path d="M0,0 L5,0 L5,2 L6,2 L6,3 L15,3 L15,12 L12,12 L12,14 L-5,14 L-5,12 L-8,12 L-8,3 L1,3 L1,1 L0,1 Z " transform="translate(235,118)" style="fill: #122745;"/><path d="M0,0 L22,0 L22,3 L20,3 L20,4 L18,4 L18,5 L16,5 L16,6 L30,6 L30,9 L13,9 L13,14 L12,14 L12,15 L4,15 L4,14 L3,14 L3,12 L10,12 L10,9 L-8,9 L-8,6 L10,6 L10,4 L12,4 L12,3 L0,3 Z " transform="translate(172,140)" style="fill: #102548;"/><path d="M0,0 L1,0 L1,1 L2,1 L2,2 L3,2 L3,4 L2,4 L2,6 L3,6 L3,7 L2,7 L2,9 L3,9 L3,10 L8,10 L8,11 L10,11 L10,12 L11,12 L11,14 L12,14 L12,15 L10,15 L10,14 L6,14 L6,41 L0,41 Z " transform="translate(176,164)" style="fill: #082650;"/><path d="M0,0 L19,0 L19,1 L23,1 L23,2 L25,2 L25,3 L27,3 L27,4 L29,4 L29,5 L31,5 L31,6 L32,6 L32,7 L33,7 L33,9 L34,9 L34,10 L35,10 L35,12 L36,12 L36,15 L35,15 L35,13 L31,13 L31,12 L30,12 L30,11 L29,11 L29,7 L27,7 L27,6 L25,6 L25,5 L21,5 L21,4 L19,4 L19,3 L17,3 L17,4 L16,4 L16,5 L14,5 L14,6 L11,6 L11,5 L13,5 L13,4 L15,4 L15,3 L11,3 L11,4 L10,4 L10,3 L9,3 L9,4 L8,4 L8,2 L5,2 L5,3 L2,3 L2,4 L-4,4 L-4,6 L-11,6 L-11,7 L-12,7 L-12,8 L-16,8 L-16,10 L-17,10 L-17,11 L-18,11 L-18,12 L-20,12 L-20,11 L-24,11 L-24,12 L-26,12 L-26,13 L-28,13 L-28,14 L-29,14 L-29,15 L-32,15 L-32,14 L-30,14 L-30,13 L-29,13 L-29,12 L-27,12 L-27,11 L-25,11 L-25,10 L-24,10 L-24,9 L-22,9 L-22,8 L-20,8 L-20,7 L-17,7 L-17,6 L-15,6 L-15,5 L-13,5 L-13,4 L-10,4 L-10,3 L-7,3 L-7,2 L-3,2 L-3,1 L0,1 Z M30,13 L31,13 L31,15 L30,15 L30,16 L29,16 L29,14 L30,14 Z " transform="translate(101,41)" style="fill: #8C6519;"/><path d="M0,0 L18,0 L18,7 L16,7 L16,6 L14,6 L14,5 L10,5 L10,4 L2,4 L2,5 L-1,5 L-1,6 L-2,6 L-2,7 L-4,7 L-4,8 L-5,8 L-5,9 L-6,9 L-6,10 L-7,10 L-7,12 L-8,12 L-8,14 L-9,14 L-9,16 L-10,16 L-10,26 L-11,26 L-11,20 L-12,20 L-12,25 L-13,25 L-13,21 L-14,21 L-14,26 L-15,26 L-15,14 L-14,14 L-14,11 L-13,11 L-13,9 L-12,9 L-12,8 L-11,8 L-11,7 L-10,7 L-10,6 L-9,6 L-9,5 L-8,5 L-8,4 L-7,4 L-7,3 L-6,3 L-6,2 L-4,2 L-4,1 L0,1 Z " transform="translate(232,164)" style="fill: #122749;"/><path d="M0,0 L1,0 L1,9 L2,9 L2,17 L3,17 L3,20 L4,20 L4,21 L6,21 L6,19 L8,19 L8,10 L10,10 L10,7 L11,7 L11,5 L12,5 L12,4 L13,4 L13,8 L12,8 L12,10 L11,10 L11,12 L10,12 L10,15 L9,15 L9,22 L10,22 L10,24 L11,24 L11,25 L12,25 L12,26 L13,26 L13,27 L14,27 L14,28 L16,28 L16,29 L18,29 L18,30 L24,30 L24,31 L36,31 L36,30 L42,30 L42,29 L45,29 L45,28 L49,28 L49,27 L52,27 L52,26 L55,26 L55,27 L53,27 L53,28 L50,28 L50,29 L47,29 L47,30 L43,30 L43,31 L39,31 L39,32 L34,32 L34,33 L20,33 L20,32 L16,32 L16,31 L13,31 L13,30 L11,30 L11,29 L9,29 L9,28 L8,28 L8,27 L7,27 L7,26 L6,26 L6,25 L5,25 L5,24 L4,24 L4,23 L3,23 L3,22 L2,22 L2,20 L1,20 L1,18 L0,18 L0,15 L-1,15 L-1,1 L0,1 Z " transform="translate(39,95)" style="fill: #97742A;"/><path d="M0,0 L20,0 L20,4 L12,4 L12,34 L8,34 L8,4 L0,4 Z " transform="translate(231,214)" style="fill: #87662B;"/><path d="M0,0 L10,0 L10,16 L11,16 L11,17 L12,17 L12,26 L8,26 L8,20 L-21,20 L-21,19 L7,19 L7,18 L6,18 L6,14 L0,14 L0,11 L6,11 L6,9 L0,9 L0,6 L6,6 L6,4 L0,4 Z " transform="translate(190,118)" style="fill: #3A4C6E;"/><path d="M0,0 L2,0 L2,1 L1,1 L1,6 L2,6 L2,4 L3,4 L3,5 L4,5 L4,6 L6,6 L6,8 L5,8 L5,9 L4,9 L4,11 L3,11 L3,12 L2,12 L2,13 L1,13 L1,15 L0,15 L0,17 L-1,17 L-1,20 L-2,20 L-2,24 L-1,24 L-1,27 L0,27 L0,28 L1,28 L1,29 L-1,29 L-1,28 L-3,28 L-3,27 L-4,27 L-4,26 L-5,26 L-5,25 L-6,25 L-6,24 L-7,24 L-7,22 L-8,22 L-8,11 L-7,11 L-7,9 L-6,9 L-6,7 L-5,7 L-5,5 L-4,5 L-4,4 L-3,4 L-3,3 L-2,3 L-2,2 L-1,2 L-1,1 L0,1 Z " transform="translate(63,92)" style="fill: #3F607B;"/><path d="M0,0 L1,0 L1,24 L2,24 L2,26 L3,26 L3,28 L4,28 L4,29 L5,29 L5,30 L6,30 L6,32 L3,32 L3,31 L4,31 L4,30 L3,30 L3,29 L0,29 L0,30 L-1,30 L-1,31 L-2,31 L-2,33 L-3,33 L-3,34 L-12,34 L-12,32 L-13,32 L-13,30 L-15,30 L-15,26 L-19,26 L-19,23 L-20,23 L-20,21 L-21,21 L-21,25 L-22,25 L-22,32 L-23,32 L-23,18 L-22,18 L-22,17 L-20,17 L-20,18 L-19,18 L-19,20 L-18,20 L-18,21 L-17,21 L-17,22 L-16,22 L-16,23 L-15,23 L-15,25 L-14,25 L-14,26 L-13,26 L-13,27 L-12,27 L-12,28 L-11,28 L-11,30 L-10,30 L-10,31 L-9,31 L-9,32 L-3,32 L-3,31 L-4,31 L-4,30 L-5,30 L-5,29 L-6,29 L-6,28 L-7,28 L-7,26 L-4,26 L-4,25 L-2,25 L-2,20 L-1,20 L-1,6 L0,6 Z " transform="translate(175,216)" style="fill: #FBF9E6;"/><path d="M0,0 L34,0 L34,4 L18,4 L18,29 L17,29 L17,5 L16,5 L16,28 L15,28 L15,4 L0,4 Z " transform="translate(117,120)" style="fill: #1B2E51;"/><path d="M0,0 L4,0 L4,1 L5,1 L5,12 L6,12 L6,14 L11,14 L11,13 L12,13 L12,14 L13,14 L13,15 L15,15 L15,14 L17,14 L17,13 L18,13 L18,2 L19,2 L19,0 L25,0 L25,1 L24,1 L24,2 L20,2 L20,16 L4,16 L4,2 L0,2 L0,36 L4,36 L4,37 L-2,37 L-2,22 L-3,22 L-3,20 L-4,20 L-4,15 L-3,15 L-3,12 L-2,12 L-2,2 L-4,2 L-4,1 L0,1 Z " transform="translate(116,212)" style="fill: #F6EFD5;"/><path d="M0,0 L1,0 L1,1 L2,1 L2,2 L6,2 L6,3 L9,3 L9,10 L10,10 L10,14 L11,14 L11,20 L13,20 L13,21 L14,21 L14,22 L13,22 L13,24 L12,24 L12,23 L11,23 L11,25 L10,25 L10,24 L9,24 L9,26 L8,26 L8,27 L9,27 L9,28 L8,28 L8,29 L6,29 L6,30 L4,30 L4,31 L2,31 L2,30 L0,30 L0,31 L-7,31 L-7,30 L-10,30 L-10,25 L-9,25 L-9,26 L-8,26 L-8,27 L-7,27 L-7,28 L-5,28 L-5,29 L3,29 L3,28 L4,28 L4,27 L6,27 L6,26 L7,26 L7,25 L8,25 L8,23 L9,23 L9,14 L8,14 L8,12 L7,12 L7,11 L5,11 L5,10 L4,10 L4,9 L2,9 L2,8 L-1,8 L-1,7 L-3,7 L-3,6 L-4,6 L-4,4 L-3,4 L-3,3 L-4,3 L-4,1 L0,1 Z " transform="translate(218,220)" style="fill: #F8F9EF;"/><path d="M0,0 L2,0 L2,1 L1,1 L1,2 L0,2 L0,3 L-2,3 L-2,4 L-3,4 L-3,5 L-4,5 L-4,6 L-6,6 L-6,7 L-7,7 L-7,8 L-9,8 L-9,9 L-10,9 L-10,10 L-12,10 L-12,11 L-14,11 L-14,12 L-15,12 L-15,13 L-17,13 L-17,14 L-19,14 L-19,15 L-21,15 L-21,16 L-23,16 L-23,17 L-25,17 L-25,18 L-28,18 L-28,19 L-31,19 L-31,20 L-33,20 L-33,21 L-36,21 L-36,20 L-37,20 L-37,19 L-39,19 L-39,18 L-36,18 L-36,17 L-35,17 L-35,15 L-34,15 L-34,14 L-37,14 L-37,13 L-31,13 L-31,12 L-26,12 L-26,11 L-22,11 L-22,10 L-19,10 L-19,9 L-16,9 L-16,8 L-13,8 L-13,7 L-11,7 L-11,6 L-9,6 L-9,5 L-6,5 L-6,4 L-5,4 L-5,3 L-3,3 L-3,2 L-1,2 L-1,1 L0,1 Z " transform="translate(123,100)" style="fill: #675832;"/><path d="M0,0 L1,0 L1,1 L2,1 L2,0 L3,0 L3,1 L5,1 L5,0 L6,0 L6,1 L7,1 L7,0 L11,0 L11,1 L9,1 L9,2 L8,2 L8,3 L7,3 L7,4 L6,4 L6,5 L4,5 L4,6 L3,6 L3,7 L2,7 L2,8 L1,8 L1,9 L0,9 L0,10 L-1,10 L-1,11 L-2,11 L-2,12 L-3,12 L-3,13 L-4,13 L-4,14 L-5,14 L-5,15 L-6,15 L-6,17 L-7,17 L-7,18 L-8,18 L-8,19 L-9,19 L-9,21 L-10,21 L-10,23 L-11,23 L-11,24 L-12,24 L-12,25 L-13,25 L-13,27 L-14,27 L-14,29 L-15,29 L-15,31 L-16,31 L-16,34 L-17,34 L-17,36 L-18,36 L-18,40 L-19,40 L-19,54 L-18,54 L-18,57 L-17,57 L-17,59 L-18,59 L-18,60 L-19,60 L-19,55 L-20,55 L-20,39 L-19,39 L-19,34 L-18,34 L-18,32 L-17,32 L-17,29 L-16,29 L-16,27 L-15,27 L-15,26 L-16,26 L-16,24 L-15,24 L-15,23 L-14,23 L-14,19 L-13,19 L-13,18 L-12,18 L-12,16 L-11,16 L-11,17 L-10,17 L-10,16 L-9,16 L-9,15 L-8,15 L-8,14 L-7,14 L-7,13 L-6,13 L-6,12 L-5,12 L-5,11 L-4,11 L-4,10 L-2,10 L-2,7 L-1,7 L-1,6 L0,6 L0,4 L1,4 L1,3 L0,3 L0,2 L-1,2 L-1,1 L0,1 Z " transform="translate(57,56)" style="fill: #F8F2D8;"/><path d="M0,0 L4,0 L4,1 L2,1 L2,2 L0,2 L0,3 L1,3 L1,9 L-2,9 L-2,10 L-5,10 L-5,11 L-9,11 L-9,12 L-13,12 L-13,13 L-15,13 L-15,14 L-16,14 L-16,15 L-19,15 L-19,16 L-21,16 L-21,17 L-23,17 L-23,18 L-25,18 L-25,19 L-27,19 L-27,18 L-26,18 L-26,17 L-25,17 L-25,16 L-24,16 L-24,15 L-23,15 L-23,14 L-22,14 L-22,13 L-21,13 L-21,12 L-20,12 L-20,11 L-19,11 L-19,10 L-17,10 L-17,9 L-15,9 L-15,8 L-14,8 L-14,7 L-12,7 L-12,6 L-11,6 L-11,5 L-9,5 L-9,4 L-7,4 L-7,3 L-5,3 L-5,2 L-2,2 L-2,1 L0,1 Z " transform="translate(95,68)" style="fill: #D1BC92;"/><path d="M0,0 L11,0 L11,1 L13,1 L13,2 L14,2 L14,4 L15,4 L15,11 L14,11 L14,14 L15,14 L15,13 L16,13 L16,10 L17,10 L17,0 L18,0 L18,7 L20,7 L20,6 L23,6 L23,10 L22,10 L22,11 L21,11 L21,12 L20,12 L20,14 L19,14 L19,15 L18,15 L18,16 L17,16 L17,17 L16,17 L16,18 L15,18 L15,19 L14,19 L14,20 L13,20 L13,21 L12,21 L12,22 L11,22 L11,23 L9,23 L9,24 L8,24 L8,25 L6,25 L6,24 L7,24 L7,23 L8,23 L8,22 L9,22 L9,21 L10,21 L10,19 L11,19 L11,15 L12,15 L12,7 L11,7 L11,6 L10,6 L10,5 L9,5 L9,4 L8,4 L8,3 L6,3 L6,2 L4,2 L4,1 L0,1 Z " transform="translate(108,76)" style="fill: #A48B4C;"/><path d="M0,0 L12,0 L12,1 L15,1 L15,2 L18,2 L18,3 L19,3 L19,4 L20,4 L20,5 L21,5 L21,6 L22,6 L22,7 L23,7 L23,8 L24,8 L24,21 L23,21 L23,24 L22,24 L22,25 L21,25 L21,22 L22,22 L22,15 L21,15 L21,13 L20,13 L20,12 L18,12 L18,11 L16,11 L16,10 L7,10 L7,9 L11,9 L11,8 L9,8 L9,7 L12,7 L12,6 L11,6 L11,4 L12,4 L12,3 L13,3 L13,2 L-1,2 L-1,1 L0,1 Z " transform="translate(101,65)" style="fill: #F6F1E7;"/><path d="M0,0 L4,0 L4,24 L5,24 L5,27 L6,27 L6,29 L7,29 L7,30 L9,30 L9,31 L11,31 L11,33 L9,33 L9,34 L16,34 L16,35 L8,35 L8,34 L6,34 L6,33 L5,33 L5,32 L4,32 L4,31 L3,31 L3,30 L2,30 L2,28 L1,28 L1,26 L0,26 Z " transform="translate(176,214)" style="fill: #806628;"/><path d="M0,0 L21,0 L21,4 L6,4 L6,3 L4,3 L4,14 L3,14 L3,12 L2,12 L2,2 L3,2 L3,1 L1,1 L1,40 L21,40 L21,41 L0,41 Z " transform="translate(146,164)" style="fill: #334868;"/><path d="M0,0 L7,0 L7,1 L19,1 L19,0 L21,0 L21,1 L20,1 L20,2 L23,2 L23,4 L22,4 L22,5 L23,5 L23,7 L22,7 L22,8 L21,8 L21,9 L20,9 L20,10 L16,10 L16,11 L14,11 L14,12 L13,12 L13,37 L7,37 L7,36 L11,36 L11,6 L19,6 L19,2 L-1,2 L-1,1 L0,1 Z " transform="translate(232,212)" style="fill: #FDF7E6;"/><path d="M0,0 L4,0 L4,15 L5,15 L5,16 L6,16 L6,17 L5,17 L5,18 L7,18 L7,19 L5,19 L5,20 L4,20 L4,34 L0,34 Z " transform="translate(148,214)" style="fill: #866629;"/><path d="M0,0 L29,0 L29,6 L31,6 L31,7 L22,7 L22,6 L23,6 L23,5 L25,5 L25,2 L3,2 L3,5 L15,5 L15,6 L13,6 L13,8 L-5,8 L-5,7 L-3,7 L-3,6 L0,6 Z " transform="translate(169,138)" style="fill: #E0F3F8;"/><path d="M0,0 L3,0 L3,1 L5,1 L5,2 L4,2 L4,3 L3,3 L3,4 L2,4 L2,5 L0,5 L0,6 L-1,6 L-1,7 L-2,7 L-2,8 L-3,8 L-3,9 L-4,9 L-4,10 L-6,10 L-6,11 L-7,11 L-7,12 L-8,12 L-8,13 L-9,13 L-9,14 L-10,14 L-10,16 L-11,16 L-11,15 L-13,15 L-13,14 L-14,14 L-14,13 L-15,13 L-15,15 L-16,15 L-16,10 L-15,10 L-15,9 L-16,9 L-16,8 L-14,8 L-14,7 L-12,7 L-12,6 L-11,6 L-11,5 L-9,5 L-9,4 L-7,4 L-7,3 L-5,3 L-5,2 L-3,2 L-3,1 L0,1 Z " transform="translate(80,83)" style="fill: #A9B1BE;"/><path d="M0,0 L9,0 L9,1 L12,1 L12,3 L11,3 L11,4 L9,4 L9,5 L8,5 L8,6 L7,6 L7,8 L6,8 L6,6 L5,6 L5,7 L4,7 L4,11 L5,11 L5,12 L8,12 L8,14 L7,14 L7,15 L6,15 L6,14 L4,14 L4,13 L1,13 L1,12 L-1,12 L-1,11 L-2,11 L-2,10 L-3,10 L-3,9 L-4,9 L-4,3 L-3,3 L-3,2 L-1,2 L-1,1 L0,1 Z " transform="translate(124,168)" style="fill: #F2F7F8;"/><path d="M0,0 L2,0 L2,1 L3,1 L3,10 L4,10 L4,26 L7,26 L7,25 L9,25 L9,27 L12,27 L12,26 L15,26 L15,27 L14,27 L14,28 L13,28 L13,29 L12,29 L12,30 L5,30 L5,29 L3,29 L3,28 L2,28 L2,26 L1,26 L1,23 L0,23 Z " transform="translate(180,215)" style="fill: #F5F1D7;"/><path d="M0,0 L2,0 L2,2 L1,2 L1,3 L-1,3 L-1,4 L-2,4 L-2,5 L-4,5 L-4,6 L-5,6 L-5,7 L-7,7 L-7,8 L-9,8 L-9,9 L-10,9 L-10,10 L-13,10 L-13,11 L-15,11 L-15,12 L-16,12 L-16,13 L-19,13 L-19,14 L-20,14 L-20,13 L-23,13 L-23,14 L-26,14 L-26,15 L-30,15 L-30,16 L-33,16 L-33,17 L-39,17 L-39,18 L-51,18 L-51,17 L-50,17 L-50,16 L-49,16 L-49,15 L-34,15 L-34,14 L-29,14 L-29,13 L-24,13 L-24,12 L-22,12 L-22,11 L-19,11 L-19,10 L-16,10 L-16,9 L-14,9 L-14,8 L-12,8 L-12,7 L-10,7 L-10,6 L-8,6 L-8,5 L-6,5 L-6,4 L-5,4 L-5,3 L-3,3 L-3,2 L-1,2 L-1,1 L0,1 Z " transform="translate(114,108)" style="fill: #EFEDD9;"/><path d="M0,0 L2,0 L2,1 L1,1 L1,22 L4,22 L4,35 L3,35 L3,25 L2,25 L2,35 L1,35 L1,36 L2,36 L2,38 L4,38 L4,37 L5,37 L5,36 L20,36 L20,39 L0,39 Z " transform="translate(147,165)" style="fill: #082042;"/><path d="M0,0 L1,0 L1,2 L2,2 L2,3 L3,3 L3,4 L4,4 L4,5 L5,5 L5,6 L6,6 L6,7 L7,7 L7,8 L8,8 L8,9 L10,9 L10,10 L12,10 L12,11 L15,11 L15,12 L19,12 L19,13 L33,13 L33,12 L38,12 L38,11 L42,11 L42,10 L46,10 L46,9 L49,9 L49,8 L51,8 L51,10 L50,10 L50,11 L48,11 L48,12 L47,12 L47,11 L46,11 L46,13 L35,13 L35,14 L16,14 L16,13 L10,13 L10,12 L7,12 L7,11 L6,11 L6,12 L5,12 L5,10 L3,10 L3,9 L2,9 L2,7 L1,7 L1,6 L0,6 Z " transform="translate(40,115)" style="fill: #F9F5E5;"/><path d="M0,0 L32,0 L32,1 L36,1 L36,2 L37,2 L37,4 L39,4 L39,5 L40,5 L40,6 L42,6 L42,7 L43,7 L43,9 L44,9 L44,10 L43,10 L43,11 L42,11 L42,10 L41,10 L41,8 L40,8 L40,7 L39,7 L39,6 L37,6 L37,5 L35,5 L35,4 L33,4 L33,3 L31,3 L31,2 L27,2 L27,1 L8,1 L8,2 L5,2 L5,3 L1,3 L1,4 L-2,4 L-2,5 L-5,5 L-5,6 L-7,6 L-7,7 L-9,7 L-9,8 L-10,8 L-10,4 L-11,4 L-11,3 L-8,3 L-8,2 L-7,2 L-7,3 L-2,3 L-2,1 L0,1 Z " transform="translate(93,40)" style="fill: #FAF2DB;"/><path d="M0,0 L4,0 L4,34 L3,34 L3,31 L2,31 L2,27 L3,27 L3,26 L2,26 L2,25 L0,25 Z " transform="translate(204,165)" style="fill: #0B2749;"/><path d="M0,0 L8,0 L8,1 L12,1 L12,2 L1,2 L1,3 L-4,3 L-4,4 L-7,4 L-7,5 L-9,5 L-9,6 L-12,6 L-12,7 L-14,7 L-14,8 L-15,8 L-15,9 L-17,9 L-17,10 L-19,10 L-19,11 L-20,11 L-20,12 L-22,12 L-22,13 L-23,13 L-23,14 L-24,14 L-24,15 L-28,15 L-28,13 L-27,13 L-27,12 L-26,12 L-26,10 L-25,10 L-25,9 L-23,9 L-23,10 L-22,10 L-22,9 L-21,9 L-21,8 L-19,8 L-19,7 L-20,7 L-20,6 L-17,6 L-17,5 L-14,5 L-14,4 L-10,4 L-10,2 L-8,2 L-8,1 L0,1 Z " transform="translate(100,63)" style="fill: #9A772C;"/><path d="M0,0 L18,0 L18,7 L16,7 L16,6 L14,6 L14,5 L10,5 L10,4 L2,4 L2,5 L-1,5 L-1,6 L-2,6 L-2,7 L-4,7 L-4,3 L-6,3 L-6,2 L-4,2 L-4,1 L0,1 Z " transform="translate(232,164)" style="fill: #263A5F;"/><path d="M0,0 L1,0 L1,2 L0,2 L0,3 L-2,3 L-2,4 L-3,4 L-3,5 L-4,5 L-4,6 L-6,6 L-6,8 L-8,8 L-8,9 L-9,9 L-9,10 L-7,10 L-7,11 L-9,11 L-9,12 L-12,12 L-12,13 L-13,13 L-13,16 L-14,16 L-14,18 L-15,18 L-15,21 L-16,21 L-16,22 L-17,22 L-17,23 L-18,23 L-18,24 L-20,24 L-20,25 L-22,25 L-22,27 L-23,27 L-23,29 L-24,29 L-24,31 L-25,31 L-25,37 L-26,37 L-26,39 L-27,39 L-27,38 L-28,38 L-28,34 L-27,34 L-27,31 L-26,31 L-26,29 L-25,29 L-25,27 L-24,27 L-24,25 L-23,25 L-23,24 L-22,24 L-22,23 L-21,23 L-21,21 L-20,21 L-20,19 L-19,19 L-19,18 L-18,18 L-18,17 L-17,17 L-17,15 L-16,15 L-16,14 L-15,14 L-15,13 L-14,13 L-14,12 L-13,12 L-13,11 L-12,11 L-12,10 L-11,10 L-11,9 L-10,9 L-10,8 L-9,8 L-9,7 L-8,7 L-8,6 L-7,6 L-7,5 L-5,5 L-5,4 L-4,4 L-4,3 L-3,3 L-3,2 L-2,2 L-2,1 L0,1 Z " transform="translate(68,56)" style="fill: #916E18;"/><path d="M0,0 L6,0 L6,1 L7,1 L7,2 L5,2 L5,3 L2,3 L2,4 L-4,4 L-4,6 L-11,6 L-11,7 L-12,7 L-12,8 L-16,8 L-16,10 L-17,10 L-17,11 L-18,11 L-18,12 L-20,12 L-20,11 L-24,11 L-24,12 L-26,12 L-26,13 L-28,13 L-28,14 L-29,14 L-29,15 L-32,15 L-32,14 L-30,14 L-30,13 L-29,13 L-29,12 L-27,12 L-27,11 L-25,11 L-25,10 L-24,10 L-24,9 L-22,9 L-22,8 L-20,8 L-20,7 L-17,7 L-17,6 L-15,6 L-15,5 L-13,5 L-13,4 L-10,4 L-10,3 L-7,3 L-7,2 L-3,2 L-3,1 L0,1 Z " transform="translate(101,41)" style="fill: #916F2B;"/><path d="M0,0 L3,0 L3,1 L7,1 L7,0 L9,0 L9,3 L8,3 L8,5 L9,5 L9,6 L8,6 L8,8 L9,8 L9,9 L10,9 L10,10 L9,10 L9,11 L8,11 L8,13 L9,13 L9,15 L8,15 L8,16 L7,16 L7,15 L6,15 L6,14 L4,14 L4,15 L0,15 L0,14 L-1,14 L-1,13 L0,13 L0,12 L2,12 L2,10 L1,10 L1,9 L2,9 L2,8 L3,8 L3,9 L4,9 L4,10 L6,10 L6,9 L7,9 L7,7 L6,7 L6,6 L3,6 L3,7 L-1,7 L-1,6 L-2,6 L-2,5 L-1,5 L-1,4 L2,4 L2,2 L0,2 Z " transform="translate(179,118)" style="fill: #1F2E4A;"/><path d="M0,0 L1,0 L1,3 L0,3 L0,4 L1,4 L1,5 L-1,5 L-1,6 L-2,6 L-2,7 L-3,7 L-3,6 L-4,6 L-4,8 L-5,8 L-5,11 L-6,11 L-6,12 L-7,12 L-7,13 L-5,13 L-5,14 L-6,14 L-6,16 L-7,16 L-7,17 L-5,17 L-5,18 L-4,18 L-4,19 L-3,19 L-3,20 L-4,20 L-4,22 L-3,22 L-3,23 L-2,23 L-2,26 L-3,26 L-3,25 L-4,25 L-4,24 L-5,24 L-5,23 L-6,23 L-6,22 L-7,22 L-7,20 L-8,20 L-8,19 L-9,19 L-9,18 L-10,18 L-10,17 L-11,17 L-11,16 L-12,16 L-12,15 L-13,15 L-13,13 L-12,13 L-12,12 L-11,12 L-11,11 L-10,11 L-10,10 L-9,10 L-9,9 L-8,9 L-8,8 L-7,8 L-7,7 L-6,7 L-6,6 L-5,6 L-5,5 L-4,5 L-4,4 L-3,4 L-3,3 L-2,3 L-2,2 L-1,2 L-1,1 L0,1 Z " transform="translate(170,216)" style="fill: #FBFAEE;"/><path d="M0,0 L16,0 L16,16 L20,16 L20,18 L16,18 L16,17 L15,17 L15,15 L14,15 L14,2 L2,2 L2,7 L3,7 L3,10 L2,10 L2,16 L0,16 Z " transform="translate(120,232)" style="fill: #FDF5DD;"/><path d="M0,0 L2,0 L2,1 L3,1 L3,11 L7,11 L7,5 L10,5 L10,6 L11,6 L11,13 L10,13 L10,14 L9,14 L9,15 L1,15 L1,14 L0,14 Z " transform="translate(240,140)" style="fill: #2D364D;"/><path d="M0,0 L4,0 L4,1 L7,1 L7,2 L9,2 L9,3 L11,3 L11,5 L14,5 L14,6 L15,6 L15,9 L16,9 L16,10 L15,10 L15,11 L16,11 L16,12 L15,12 L15,13 L16,13 L16,14 L17,14 L17,13 L18,13 L18,12 L19,12 L19,10 L20,10 L20,9 L21,9 L21,10 L22,10 L22,11 L23,11 L23,12 L22,12 L22,15 L21,15 L21,16 L20,16 L20,18 L19,18 L19,19 L18,19 L18,17 L15,17 L15,18 L13,18 L13,11 L12,11 L12,8 L11,8 L11,7 L10,7 L10,6 L9,6 L9,5 L8,5 L8,4 L7,4 L7,3 L6,3 L6,2 L3,2 L3,1 L0,1 Z M15,14 L15,15 L16,15 L16,14 Z " transform="translate(113,65)" style="fill: #9F813A;"/><path d="M0,0 L3,0 L3,3 L2,3 L2,4 L0,4 L0,5 L-1,5 L-1,6 L-2,6 L-2,7 L-4,7 L-4,8 L-5,8 L-5,9 L-7,9 L-7,12 L-6,12 L-6,13 L-5,13 L-5,14 L-6,14 L-6,15 L-8,15 L-8,14 L-10,14 L-10,15 L-11,15 L-11,16 L-12,16 L-12,17 L-13,17 L-13,18 L-15,18 L-15,19 L-18,19 L-18,20 L-20,20 L-20,21 L-19,21 L-19,22 L-21,22 L-21,21 L-22,21 L-22,22 L-23,22 L-23,23 L-24,23 L-24,24 L-29,24 L-29,26 L-30,26 L-30,25 L-33,25 L-33,24 L-30,24 L-30,23 L-27,23 L-27,22 L-26,22 L-26,21 L-24,21 L-24,20 L-21,20 L-21,19 L-20,19 L-20,18 L-18,18 L-18,17 L-16,17 L-16,16 L-15,16 L-15,15 L-13,15 L-13,14 L-12,14 L-12,13 L-10,13 L-10,12 L-9,12 L-9,9 L-8,9 L-8,8 L-6,8 L-6,7 L-5,7 L-5,6 L-4,6 L-4,5 L-2,5 L-2,4 L-1,4 L-1,3 L0,3 L0,2 L-1,2 L-1,1 L0,1 Z " transform="translate(125,98)" style="fill: #FBF5E5;"/><path d="M0,0 L5,0 L5,19 L3,19 L3,18 L1,18 L1,16 L0,16 Z " transform="translate(245,184)" style="fill: #0E2A4C;"/><path d="M0,0 L8,0 L8,9 L7,9 L7,12 L6,12 L6,14 L5,14 L5,15 L4,15 L4,16 L3,16 L3,17 L1,17 L1,18 L-1,18 L-1,19 L-2,19 L-2,18 L-3,18 L-3,17 L-4,17 L-4,15 L-2,15 L-2,14 L0,14 L0,13 L1,13 L1,12 L2,12 L2,11 L3,11 L3,9 L4,9 L4,7 L5,7 L5,3 L6,3 L6,2 L0,2 Z " transform="translate(228,137)" style="fill: #14254B;"/><path d="M0,0 L2,0 L2,1 L3,1 L3,3 L4,3 L4,4 L5,4 L5,5 L6,5 L6,6 L7,6 L7,8 L8,8 L8,9 L9,9 L9,10 L10,10 L10,11 L11,11 L11,13 L12,13 L12,14 L13,14 L13,15 L19,15 L19,17 L10,17 L10,15 L9,15 L9,13 L7,13 L7,9 L3,9 L3,6 L2,6 L2,4 L1,4 L1,8 L0,8 L0,15 L-1,15 L-1,1 L0,1 Z " transform="translate(153,233)" style="fill: #FAF4DF;"/><path d="M0,0 L1,0 L1,40 L3,40 L3,38 L2,38 L2,37 L3,37 L3,36 L5,36 L5,13 L7,13 L7,14 L6,14 L6,41 L0,41 Z " transform="translate(176,164)" style="fill: #52677F;"/><path d="M0,0 L4,0 L4,2 L3,2 L3,6 L2,6 L2,11 L3,11 L3,14 L4,14 L4,17 L5,17 L5,20 L4,20 L4,21 L1,21 L1,24 L5,24 L5,25 L2,25 L2,26 L1,26 L1,28 L0,28 Z " transform="translate(218,122)" style="fill: #D4E7EF;"/><path d="M0,0 L1,0 L1,2 L0,2 L0,3 L-1,3 L-1,5 L-2,5 L-2,4 L-3,4 L-3,2 L-1,2 L-1,1 L0,1 Z M-11,4 L-3,4 L-3,5 L-4,5 L-4,6 L-5,6 L-5,7 L-3,7 L-3,8 L-2,8 L-2,9 L-1,9 L-1,10 L-2,10 L-2,11 L-1,11 L-1,12 L-2,12 L-2,16 L-3,16 L-3,10 L-4,10 L-4,9 L-7,9 L-7,15 L-11,15 Z " transform="translate(254,136)" style="fill: #EFFAF9;"/><path d="M0,0 L4,0 L4,34 L0,34 L0,18 L1,18 L1,32 L3,32 L3,4 L1,4 L1,14 L0,14 Z " transform="translate(136,214)" style="fill: #816326;"/><path d="M0,0 L20,0 L20,1 L19,1 L19,3 L18,3 L18,4 L15,4 L15,5 L17,5 L17,6 L18,6 L18,7 L16,7 L16,8 L12,8 L12,7 L11,7 L11,3 L8,3 L8,2 L4,2 L4,1 L0,1 Z " transform="translate(69,114)" style="fill: #454B32;"/><path d="M0,0 L3,0 L3,2 L4,2 L4,0 L5,0 L5,1 L8,1 L8,2 L7,2 L7,3 L3,3 L3,7 L9,7 L9,9 L3,9 L3,12 L9,12 L9,14 L3,14 L3,17 L2,17 L2,16 L0,16 L0,14 L1,14 L1,13 L2,13 L2,12 L1,12 L1,11 L0,11 L0,9 L1,9 L1,8 L0,8 L0,6 L1,6 L1,3 L-1,3 L-1,2 L2,2 L2,1 L0,1 Z " transform="translate(187,115)" style="fill: #E2F0F6;"/><path d="M0,0 L3,0 L3,1 L1,1 L1,2 L-2,2 L-2,3 L-5,3 L-5,4 L-9,4 L-9,5 L-13,5 L-13,6 L-18,6 L-18,7 L-32,7 L-32,6 L-36,6 L-36,5 L-39,5 L-39,4 L-28,4 L-28,5 L-16,5 L-16,4 L-10,4 L-10,3 L-7,3 L-7,2 L-3,2 L-3,1 L0,1 Z " transform="translate(91,121)" style="fill: #A1997B;"/><path d="M0,0 L1,0 L1,2 L0,2 L0,4 L-1,4 L-1,7 L-2,7 L-2,11 L-1,11 L-1,14 L0,14 L0,15 L1,15 L1,16 L-1,16 L-1,15 L-3,15 L-3,14 L-4,14 L-4,13 L-5,13 L-5,12 L-6,12 L-6,11 L-7,11 L-7,9 L-8,9 L-8,1 L-7,1 L-7,3 L-6,3 L-6,4 L-3,4 L-3,5 L-2,5 L-2,2 L-1,2 L-1,1 L0,1 Z " transform="translate(63,105)" style="fill: #133558;"/><path d="M0,0 L3,0 L3,1 L1,1 L1,2 L3,2 L3,4 L4,4 L4,3 L5,3 L5,4 L6,4 L6,5 L5,5 L5,6 L4,6 L4,7 L3,7 L3,8 L2,8 L2,9 L1,9 L1,11 L0,11 L0,10 L-2,10 L-2,9 L-3,9 L-3,8 L-4,8 L-4,10 L-5,10 L-5,5 L-4,5 L-4,4 L-5,4 L-5,3 L-3,3 L-3,2 L-1,2 L-1,1 L0,1 Z " transform="translate(69,88)" style="fill: #678299;"/><path d="M0,0 L11,0 L11,1 L13,1 L13,2 L14,2 L14,4 L15,4 L15,11 L14,11 L14,14 L13,14 L13,15 L12,15 L12,7 L11,7 L11,6 L10,6 L10,5 L9,5 L9,4 L8,4 L8,3 L6,3 L6,2 L4,2 L4,1 L0,1 Z " transform="translate(108,76)" style="fill: #1C2842;"/><path d="M0,0 L1,0 L1,27 L-1,27 L-1,25 L-2,25 L-2,24 L-3,24 L-3,23 L-4,23 L-4,22 L-5,22 L-5,21 L-6,21 L-6,20 L-7,20 L-7,19 L-8,19 L-8,18 L-9,18 L-9,17 L-10,17 L-10,16 L-11,16 L-11,15 L-8,15 L-8,16 L-7,16 L-7,14 L-6,14 L-6,15 L-5,15 L-5,16 L-4,16 L-4,17 L-5,17 L-5,18 L-4,18 L-4,19 L-5,19 L-5,20 L-4,20 L-4,21 L-2,21 L-2,20 L-1,20 L-1,22 L0,22 Z " transform="translate(203,164)" style="fill: #E2ECF3;"/><path d="M0,0 L12,0 L12,1 L15,1 L15,2 L18,2 L18,3 L17,3 L17,5 L15,5 L15,6 L20,6 L20,7 L15,7 L15,9 L11,9 L11,8 L9,8 L9,7 L12,7 L12,6 L11,6 L11,4 L12,4 L12,3 L13,3 L13,2 L-1,2 L-1,1 L0,1 Z " transform="translate(101,65)" style="fill: #EFE3C3;"/><path d="M0,0 L2,0 L2,3 L1,3 L1,5 L-1,5 L-1,7 L-2,7 L-2,10 L-3,10 L-3,13 L-4,13 L-4,14 L-5,14 L-5,15 L-4,15 L-4,22 L-5,22 L-5,21 L-6,21 L-6,19 L-7,19 L-7,12 L-6,12 L-6,9 L-5,9 L-5,7 L-4,7 L-4,5 L-3,5 L-3,3 L-2,3 L-2,2 L-1,2 L-1,1 L0,1 Z " transform="translate(55,98)" style="fill: #F4F2D7;"/><path d="M0,0 L2,0 L2,1 L1,1 L1,2 L4,2 L4,3 L3,3 L3,4 L4,4 L4,5 L1,5 L1,6 L-1,6 L-1,7 L-2,7 L-2,8 L-5,8 L-5,9 L-7,9 L-7,10 L-9,10 L-9,11 L-11,11 L-11,12 L-13,12 L-13,11 L-12,11 L-12,10 L-11,10 L-11,9 L-10,9 L-10,8 L-9,8 L-9,7 L-8,7 L-8,6 L-7,6 L-7,5 L-6,5 L-6,4 L-5,4 L-5,3 L-3,3 L-3,2 L-1,2 L-1,1 L0,1 Z " transform="translate(81,75)" style="fill: #C7B68E;"/><path d="M0,0 L16,0 L16,4 L0,4 Z " transform="translate(231,125)" style="fill: #C8DCEB;"/><path d="M0,0 L20,0 L20,4 L13,4 L13,3 L18,3 L18,2 L7,2 L7,4 L0,4 Z " transform="translate(231,214)" style="fill: #8B6B3D;"/><path d="M0,0 L2,0 L2,1 L3,1 L3,2 L1,2 L1,3 L2,3 L2,4 L-1,4 L-1,5 L-3,5 L-3,6 L-5,6 L-5,7 L-8,7 L-8,6 L-10,6 L-10,7 L-11,7 L-11,8 L-12,8 L-12,9 L-13,9 L-13,10 L-14,10 L-14,11 L-15,11 L-15,12 L-16,12 L-16,11 L-18,11 L-18,12 L-19,12 L-19,13 L-18,13 L-18,14 L-20,14 L-20,11 L-19,11 L-19,10 L-17,10 L-17,9 L-16,9 L-16,7 L-13,7 L-13,6 L-12,6 L-12,5 L-10,5 L-10,4 L-8,4 L-8,3 L-4,3 L-4,4 L-2,4 L-2,3 L-1,3 L-1,2 L0,2 Z " transform="translate(85,49)" style="fill: #96680F;"/><path d="M0,0 L2,0 L2,1 L3,1 L3,4 L1,4 L1,16 L2,16 L2,26 L1,26 L1,27 L2,27 L2,29 L1,29 L1,32 L0,32 L0,30 L-1,30 L-1,29 L-2,29 L-2,31 L-3,31 L-3,29 L-4,29 L-4,27 L0,27 Z " transform="translate(182,178)" style="fill: #EEF9F8;"/><path d="M0,0 L7,0 L7,3 L8,3 L8,12 L7,12 L7,11 L0,11 L0,8 L6,8 L6,6 L0,6 L0,3 L6,3 L6,1 L0,1 Z " transform="translate(190,121)" style="fill: #203751;"/><path d="M0,0 L2,0 L2,2 L1,2 L1,3 L-1,3 L-1,4 L-2,4 L-2,5 L-4,5 L-4,6 L-5,6 L-5,7 L-7,7 L-7,8 L-9,8 L-9,9 L-10,9 L-10,10 L-13,10 L-13,11 L-15,11 L-15,12 L-16,12 L-16,13 L-19,13 L-19,14 L-20,14 L-20,13 L-21,13 L-21,12 L-22,12 L-22,11 L-19,11 L-19,10 L-16,10 L-16,9 L-14,9 L-14,8 L-12,8 L-12,7 L-10,7 L-10,6 L-8,6 L-8,5 L-6,5 L-6,4 L-5,4 L-5,3 L-3,3 L-3,2 L-1,2 L-1,1 L0,1 Z " transform="translate(114,108)" style="fill: #DCCAAE;"/><path d="M0,0 L1,0 L1,1 L2,1 L2,2 L5,2 L5,4 L6,4 L6,5 L8,5 L8,10 L6,10 L6,8 L5,8 L5,7 L1,7 L1,6 L-4,6 L-4,4 L-3,4 L-3,3 L-4,3 L-4,1 L0,1 Z " transform="translate(218,220)" style="fill: #F8FCF5;"/><path d="M0,0 L3,0 L3,1 L4,1 L4,3 L2,3 L2,4 L-3,4 L-3,6 L3,6 L3,9 L-4,9 L-4,7 L-5,7 L-5,6 L-6,6 L-6,1 L0,1 Z " transform="translate(173,118)" style="fill: #132A41;"/><path d="M0,0 L9,0 L9,1 L8,1 L8,2 L7,2 L7,4 L8,4 L8,5 L5,5 L5,6 L7,6 L7,7 L3,7 L3,8 L12,8 L12,9 L3,9 L3,10 L2,10 L2,8 L1,8 L1,7 L0,7 L0,6 L1,6 L1,5 L2,5 L2,3 L0,3 Z " transform="translate(105,67)" style="fill: #E4D5BB;"/><path d="M0,0 L1,0 L1,1 L8,1 L8,4 L-18,4 L-18,1 L-17,1 L-17,3 L-11,3 L-11,2 L-10,2 L-10,1 L-9,1 L-9,2 L-5,2 L-5,1 L-3,1 L-3,2 L-2,2 L-2,3 L-1,3 L-1,2 L0,2 Z " transform="translate(188,131)" style="fill: #B7CADD;"/><path d="M0,0 L1,0 L1,26 L0,26 L0,27 L-3,27 L-3,24 L-2,24 L-2,1 L-1,1 L-1,25 L0,25 Z " transform="translate(135,124)" style="fill: #2A4064;"/><path d="M0,0 L4,0 L4,6 L6,6 L6,7 L-3,7 L-3,6 L-2,6 L-2,5 L0,5 L0,2 L-22,2 L-22,1 L0,1 Z " transform="translate(194,138)" style="fill: #B6CBD3;"/><path d="M0,0 L11,0 L11,5 L8,5 L8,4 L-1,4 L-1,5 L-3,5 L-3,3 L-5,3 L-5,2 L1,2 L1,1 L0,1 Z " transform="translate(125,164)" style="fill: #1A2A54;"/><path d="M0,0 L2,0 L2,1 L1,1 L1,2 L0,2 L0,3 L-2,3 L-2,4 L-3,4 L-3,5 L-4,5 L-4,6 L-6,6 L-6,7 L-7,7 L-7,8 L-9,8 L-9,9 L-10,9 L-10,10 L-12,10 L-12,11 L-14,11 L-14,12 L-15,12 L-15,13 L-16,13 L-16,12 L-18,12 L-18,10 L-19,10 L-19,9 L-16,9 L-16,8 L-13,8 L-13,7 L-11,7 L-11,6 L-9,6 L-9,5 L-6,5 L-6,4 L-5,4 L-5,3 L-3,3 L-3,2 L-1,2 L-1,1 L0,1 Z " transform="translate(123,100)" style="fill: #6D612D;"/><path d="M0,0 L18,0 L18,1 L22,1 L22,2 L23,2 L23,4 L25,4 L25,5 L26,5 L26,6 L28,6 L28,7 L29,7 L29,9 L30,9 L30,10 L29,10 L29,11 L28,11 L28,10 L27,10 L27,8 L26,8 L26,7 L25,7 L25,6 L23,6 L23,5 L21,5 L21,4 L19,4 L19,3 L17,3 L17,2 L13,2 L13,1 L0,1 Z " transform="translate(107,40)" style="fill: #F2E8C8;"/><path d="M0,0 L1,0 L1,2 L2,2 L2,1 L3,1 L3,14 L4,14 L4,13 L7,13 L7,14 L6,14 L6,15 L5,15 L5,16 L4,16 L4,17 L3,17 L3,18 L1,18 L1,4 L-3,4 L-3,1 L0,1 Z " transform="translate(151,210)" style="fill: #FAFCE7;"/><path d="M0,0 L18,0 L18,3 L11,3 L11,5 L10,5 L10,3 L8,3 L8,5 L7,5 L7,3 L3,3 L3,2 L0,2 Z " transform="translate(164,149)" style="fill: #D2DDE8;"/><path d="M0,0 L1,0 L1,9 L2,9 L2,17 L3,17 L3,20 L4,20 L4,22 L5,22 L5,23 L6,23 L6,25 L5,25 L5,24 L4,24 L4,23 L3,23 L3,22 L2,22 L2,20 L1,20 L1,18 L0,18 L0,15 L-1,15 L-1,1 L0,1 Z " transform="translate(39,95)" style="fill: #8E6F27;"/><path d="M0,0 L1,0 L1,3 L2,3 L2,5 L3,5 L3,7 L4,7 L4,8 L5,8 L5,9 L7,9 L7,10 L8,10 L8,11 L4,11 L4,12 L3,12 L3,13 L0,13 L0,12 L-1,12 L-1,11 L-3,11 L-3,10 L-4,10 L-4,6 L-2,6 L-2,7 L-1,7 L-1,8 L1,8 L1,9 L3,9 L3,8 L2,8 L2,7 L1,7 L1,4 L0,4 Z " transform="translate(61,112)" style="fill: #D2E0E6;"/><path d="M0,0 L3,0 L3,3 L-1,3 L-1,4 L-4,4 L-4,5 L-11,5 L-11,6 L-12,6 L-12,5 L-17,5 L-17,6 L-19,6 L-19,5 L-18,5 L-18,4 L-14,4 L-14,3 L-11,3 L-11,2 L-4,2 L-4,1 L0,1 Z " transform="translate(104,75)" style="fill: #F5F1E7;"/><path d="M0,0 L1,0 L1,4 L2,4 L2,2 L3,2 L3,5 L4,5 L4,7 L5,7 L5,8 L7,8 L7,9 L9,9 L9,11 L7,11 L7,12 L14,12 L14,13 L6,13 L6,12 L4,12 L4,11 L3,11 L3,10 L2,10 L2,9 L1,9 L1,8 L0,8 L0,6 L-1,6 L-1,5 L0,5 Z " transform="translate(178,236)" style="fill: #8B6E35;"/><path d="M0,0 L4,0 L4,2 L3,2 L3,3 L-1,3 L-1,5 L-2,5 L-2,6 L-3,6 L-3,7 L-5,7 L-5,6 L-9,6 L-9,7 L-11,7 L-11,8 L-13,8 L-13,9 L-14,9 L-14,10 L-17,10 L-17,9 L-15,9 L-15,8 L-14,8 L-14,7 L-12,7 L-12,6 L-10,6 L-10,5 L-9,5 L-9,4 L-7,4 L-7,3 L-5,3 L-5,2 L-2,2 L-2,1 L0,1 Z " transform="translate(86,46)" style="fill: #8B6724;"/><path d="M0,0 L1,0 L1,3 L0,3 L0,4 L1,4 L1,5 L0,5 L0,6 L-2,6 L-2,7 L-4,7 L-4,8 L-6,8 L-6,7 L-8,7 L-8,8 L-15,8 L-15,7 L-18,7 L-18,2 L-17,2 L-17,3 L-16,3 L-16,4 L-15,4 L-15,5 L-13,5 L-13,6 L-5,6 L-5,5 L-4,5 L-4,4 L-2,4 L-2,3 L-1,3 L-1,2 L0,2 Z " transform="translate(226,243)" style="fill: #F9F9EA;"/><path d="M0,0 L4,0 L4,1 L13,1 L13,2 L14,2 L14,5 L13,5 L13,4 L12,4 L12,3 L11,3 L11,2 L2,2 L2,3 L0,3 L0,4 L-1,4 L-1,5 L-2,5 L-2,6 L-3,6 L-3,7 L-4,7 L-4,13 L-3,13 L-3,15 L-2,15 L-2,16 L-5,16 L-5,4 L-4,4 L-4,3 L-3,3 L-3,4 L-2,4 L-2,2 L0,2 Z " transform="translate(212,212)" style="fill: #F7EBD3;"/><path d="M0,0 L1,0 L1,16 L2,16 L2,18 L4,18 L4,20 L0,20 L0,21 L-3,21 L-3,20 L-4,20 L-4,18 L-3,18 L-3,17 L-10,17 L-10,16 L0,16 Z " transform="translate(244,184)" style="fill: #415876;"/><path d="M0,0 L1,0 L1,2 L2,2 L2,4 L3,4 L3,2 L6,2 L6,4 L23,4 L23,5 L6,5 L6,6 L5,6 L5,8 L3,8 L3,11 L2,11 L2,8 L1,8 L1,6 L0,6 Z " transform="translate(224,128)" style="fill: #CBDCE0;"/><path d="M0,0 L2,0 L2,1 L3,1 L3,2 L4,2 L4,4 L5,4 L5,6 L4,6 L4,8 L5,8 L5,16 L4,16 L4,22 L3,22 L3,24 L1,24 L1,25 L0,25 L0,23 L1,23 L1,20 L2,20 L2,16 L3,16 L3,5 L2,5 L2,3 L1,3 L1,1 L0,1 Z " transform="translate(136,52)" style="fill: #F8EFD2;"/><path d="M0,0 L2,0 L2,1 L3,1 L3,2 L2,2 L2,3 L3,3 L3,5 L0,5 L0,7 L-1,7 L-1,8 L-3,8 L-3,9 L-4,9 L-4,10 L-5,10 L-5,12 L-6,12 L-6,13 L-7,13 L-7,14 L-8,14 L-8,8 L-6,8 L-6,7 L-4,7 L-4,6 L-3,6 L-3,5 L-2,5 L-2,1 L0,1 Z " transform="translate(166,209)" style="fill: #F1F4E1;"/><path d="M0,0 L4,0 L4,3 L5,3 L5,4 L6,4 L6,5 L7,5 L7,6 L9,6 L9,8 L13,8 L13,9 L4,9 L4,8 L3,8 L3,7 L2,7 L2,6 L1,6 L1,4 L0,4 Z " transform="translate(207,239)" style="fill: #80662D;"/><path d="M0,0 L8,0 L8,1 L7,1 L7,2 L3,2 L3,3 L1,3 L1,31 L-4,31 L-4,30 L0,30 Z " transform="translate(243,218)" style="fill: #F7EEC9;"/><path d="M0,0 L1,0 L1,4 L0,4 L0,6 L-1,6 L-1,8 L0,8 L0,9 L-1,9 L-1,10 L-2,10 L-2,11 L-3,11 L-3,12 L-8,12 L-8,13 L-11,13 L-11,14 L-13,14 L-13,13 L-16,13 L-16,11 L-8,11 L-8,10 L-6,10 L-6,9 L-4,9 L-4,8 L-3,8 L-3,7 L-2,7 L-2,5 L-1,5 L-1,3 L0,3 Z " transform="translate(200,238)" style="fill: #FAF9E2;"/><path d="M0,0 L1,0 L1,24 L2,24 L2,26 L3,26 L3,28 L4,28 L4,29 L5,29 L5,30 L6,30 L6,32 L3,32 L3,31 L4,31 L4,30 L3,30 L3,29 L0,29 L0,25 L-1,25 L-1,22 L0,22 L0,7 L-1,7 L-1,6 L0,6 Z " transform="translate(175,216)" style="fill: #FBF4CE;"/><path d="M0,0 L5,0 L5,2 L6,2 L6,3 L15,3 L15,4 L5,4 L5,5 L1,5 L1,4 L-7,4 L-7,12 L-8,12 L-8,3 L1,3 L1,1 L0,1 Z " transform="translate(235,118)" style="fill: #30445C;"/><path d="M0,0 L1,0 L1,4 L0,4 L0,14 L-1,14 L-1,8 L-2,8 L-2,13 L-3,13 L-3,9 L-4,9 L-4,14 L-5,14 L-5,4 L-4,4 L-4,6 L-3,6 L-3,1 L-1,1 L-1,2 L0,2 Z " transform="translate(222,176)" style="fill: #062849;"/><path d="M0,0 L17,0 L17,1 L1,1 L1,3 L2,3 L2,6 L1,6 L1,7 L-1,7 L-1,8 L-2,8 L-2,9 L-6,9 L-6,8 L-7,8 L-7,7 L-10,7 L-10,5 L-9,5 L-9,6 L-1,6 L-1,5 L0,5 Z " transform="translate(185,149)" style="fill: #BBC8D8;"/><path d="M0,0 L3,0 L3,1 L7,1 L7,0 L9,0 L9,3 L8,3 L8,5 L6,5 L6,6 L3,6 L3,7 L-1,7 L-1,6 L-2,6 L-2,5 L-1,5 L-1,4 L2,4 L2,2 L0,2 Z " transform="translate(179,118)" style="fill: #243446;"/><path d="M0,0 L3,0 L3,1 L5,1 L5,0 L10,0 L10,1 L8,1 L8,2 L7,2 L7,3 L5,3 L5,4 L4,4 L4,5 L3,5 L3,4 L1,4 L1,3 L-2,3 L-2,4 L-5,4 L-5,5 L-7,5 L-7,6 L-9,6 L-9,7 L-11,7 L-11,8 L-13,8 L-13,7 L-12,7 L-12,6 L-10,6 L-10,5 L-8,5 L-8,4 L-6,4 L-6,3 L-3,3 L-3,2 L-2,2 L-2,1 L0,1 Z " transform="translate(82,80)" style="fill: #EBE6DB;"/><path d="M0,0 L1,0 L1,3 L0,3 L0,4 L-2,4 L-2,6 L-3,6 L-3,7 L-2,7 L-2,8 L-3,8 L-3,9 L-1,9 L-1,11 L1,11 L1,13 L2,13 L2,14 L3,14 L3,15 L4,15 L4,16 L5,16 L5,19 L4,19 L4,18 L3,18 L3,17 L2,17 L2,16 L1,16 L1,15 L0,15 L0,13 L-1,13 L-1,12 L-2,12 L-2,11 L-3,11 L-3,10 L-4,10 L-4,9 L-5,9 L-5,8 L-6,8 L-6,6 L-5,6 L-5,5 L-4,5 L-4,4 L-3,4 L-3,3 L-2,3 L-2,2 L-1,2 L-1,1 L0,1 Z " transform="translate(163,223)" style="fill: #F6E9C9;"/><path d="M0,0 L2,0 L2,1 L3,1 L3,12 L7,12 L7,13 L5,13 L5,14 L0,14 Z " transform="translate(240,140)" style="fill: #0F2340;"/><path d="M0,0 L1,0 L1,15 L3,15 L3,19 L17,19 L17,23 L16,23 L16,20 L0,20 Z " transform="translate(136,129)" style="fill: #D3DCE7;"/><path d="M0,0 L1,0 L1,1 L4,1 L4,3 L5,3 L5,4 L3,4 L3,5 L0,5 L0,6 L-2,6 L-2,7 L-5,7 L-5,6 L-6,6 L-6,5 L-8,5 L-8,4 L-5,4 L-5,3 L-4,3 L-4,1 L0,1 Z " transform="translate(92,114)" style="fill: #595129;"/><path d="M0,0 L1,0 L1,26 L0,26 L0,27 L-2,27 L-2,25 L-1,25 L-1,18 L0,18 L0,10 L-1,10 L-1,2 L0,2 Z " transform="translate(195,214)" style="fill: #FCFBE4;"/><path d="M0,0 L3,0 L3,3 L4,3 L4,6 L3,6 L3,7 L4,7 L4,11 L5,11 L5,13 L3,13 L3,14 L1,14 L1,15 L0,15 L0,16 L-1,16 L-1,17 L-2,17 L-2,18 L-3,18 L-3,19 L-5,19 L-5,17 L-3,17 L-3,16 L-2,16 L-2,15 L-1,15 L-1,14 L0,14 L0,13 L1,13 L1,11 L2,11 L2,3 L1,3 L1,1 L0,1 Z " transform="translate(136,186)" style="fill: #DCEAF1;"/><path d="M0,0 L2,0 L2,1 L1,1 L1,2 L2,2 L2,4 L0,4 L0,6 L-2,6 L-2,7 L-3,7 L-3,10 L-4,10 L-4,11 L-5,11 L-5,12 L-6,12 L-6,13 L-7,13 L-7,15 L-8,15 L-8,13 L-9,13 L-9,12 L-8,12 L-8,10 L-7,10 L-7,7 L-6,7 L-6,6 L-3,6 L-3,5 L-1,5 L-1,4 L-3,4 L-3,3 L-2,3 L-2,2 L0,2 Z " transform="translate(62,62)" style="fill: #986E15;"/><path d="M0,0 L2,0 L2,1 L6,1 L6,0 L8,0 L8,2 L11,2 L11,1 L14,1 L14,2 L13,2 L13,3 L12,3 L12,4 L11,4 L11,5 L4,5 L4,4 L2,4 L2,3 L1,3 L1,1 L0,1 Z " transform="translate(181,240)" style="fill: #F7F4D9;"/><path d="M0,0 L2,0 L2,1 L4,1 L4,2 L7,2 L7,3 L8,3 L8,4 L10,4 L10,5 L11,5 L11,12 L10,12 L10,7 L9,7 L9,6 L8,6 L8,5 L7,5 L7,6 L5,6 L5,7 L4,7 L4,6 L3,6 L3,5 L1,5 L1,2 L0,2 Z " transform="translate(212,230)" style="fill: #F6F1D5;"/><path d="M0,0 L6,0 L6,2 L4,2 L4,3 L3,3 L3,4 L2,4 L2,5 L1,5 L1,6 L0,6 L0,7 L-1,7 L-1,8 L-2,8 L-2,9 L-3,9 L-3,7 L-5,7 L-5,5 L-4,5 L-4,4 L-3,4 L-3,3 L-1,3 L-1,2 L0,2 Z " transform="translate(166,214)" style="fill: #85733F;"/><path d="M0,0 L1,0 L1,1 L3,1 L3,3 L4,3 L4,4 L5,4 L5,6 L6,6 L6,7 L-2,7 L-2,6 L-6,6 L-6,3 L-4,3 L-4,4 L-5,4 L-5,5 L-3,5 L-3,4 L-2,4 L-2,5 L-1,5 L-1,1 L0,1 Z " transform="translate(218,206)" style="fill: #F7FCF2;"/><path d="M0,0 L1,0 L1,1 L2,1 L2,14 L1,14 L1,17 L0,17 L0,18 L-1,18 L-1,15 L0,15 L0,8 L-1,8 L-1,6 L-2,6 L-2,5 L-4,5 L-4,4 L-3,4 L-3,3 L-1,3 L-1,5 L0,5 Z " transform="translate(123,72)" style="fill: #E3DECB;"/><path d="M0,0 L9,0 L9,2 L11,2 L11,3 L9,3 L9,4 L8,4 L8,6 L7,6 L7,7 L1,7 L1,5 L6,5 L6,2 L0,2 Z " transform="translate(170,127)" style="fill: #E0F1F8;"/><path d="M0,0 L2,0 L2,1 L3,1 L3,3 L4,3 L4,4 L5,4 L5,5 L6,5 L6,6 L7,6 L7,7 L4,7 L4,6 L2,6 L2,4 L1,4 L1,8 L0,8 L0,15 L-1,15 L-1,1 L0,1 Z " transform="translate(153,233)" style="fill: #EDE1BB;"/><path d="M0,0 L1,0 L1,16 L2,16 L2,14 L4,14 L4,15 L3,15 L3,16 L5,16 L5,17 L3,17 L3,18 L1,18 L1,31 L0,31 Z " transform="translate(150,216)" style="fill: #91681C;"/><path d="M0,0 L3,0 L3,2 L4,2 L4,3 L3,3 L3,4 L2,4 L2,5 L1,5 L1,6 L0,6 L0,7 L-1,7 L-1,8 L-2,8 L-2,9 L-4,9 L-4,10 L-5,10 L-5,11 L-7,11 L-7,10 L-6,10 L-6,9 L-5,9 L-5,8 L-4,8 L-4,7 L-3,7 L-3,5 L-2,5 L-2,1 L0,1 Z " transform="translate(121,90)" style="fill: #A0987B;"/><path d="M0,0 L12,0 L12,2 L13,2 L13,3 L-1,3 L-1,1 L0,1 Z " transform="translate(230,133)" style="fill: #EFFDFC;"/><path d="M0,0 L2,0 L2,2 L3,2 L3,3 L4,3 L4,4 L5,4 L5,5 L6,5 L6,6 L8,6 L8,7 L10,7 L10,8 L3,8 L3,7 L1,7 L1,6 L0,6 L0,5 L-1,5 L-1,4 L-2,4 L-2,3 L0,3 Z " transform="translate(47,117)" style="fill: #927C3D;"/><path d="M0,0 L1,0 L1,4 L0,4 L0,5 L-1,5 L-1,7 L-2,7 L-2,9 L-3,9 L-3,12 L-4,12 L-4,13 L-5,13 L-5,14 L-6,14 L-6,15 L-7,15 L-7,16 L-8,16 L-8,17 L-11,17 L-11,16 L-10,16 L-10,15 L-9,15 L-9,14 L-8,14 L-8,13 L-7,13 L-7,11 L-6,11 L-6,10 L-5,10 L-5,9 L-4,9 L-4,7 L-3,7 L-3,6 L-2,6 L-2,4 L-1,4 L-1,3 L0,3 Z " transform="translate(135,77)" style="fill: #F5EBD3;"/><path d="M0,0 L1,0 L1,1 L2,1 L2,2 L3,2 L3,4 L4,4 L4,5 L5,5 L5,7 L6,7 L6,10 L5,10 L5,8 L1,8 L1,7 L0,7 L0,6 L-1,6 L-1,2 L0,2 Z M0,8 L1,8 L1,10 L0,10 L0,11 L-1,11 L-1,9 L0,9 Z " transform="translate(131,46)" style="fill: #946B1F;"/><path d="M0,0 L9,0 L9,1 L10,1 L10,2 L8,2 L8,3 L9,3 L9,4 L0,4 L0,2 L-1,2 L-1,1 L0,1 Z " transform="translate(119,201)" style="fill: #0A2A55;"/><path d="M0,0 L2,0 L2,1 L13,1 L13,0 L15,0 L15,3 L13,3 L13,2 L4,2 L4,3 L3,3 L3,4 L4,4 L4,6 L0,6 Z " transform="translate(115,199)" style="fill: #2D4058;"/><path d="M0,0 L1,0 L1,1 L4,1 L4,2 L14,2 L14,3 L2,3 L2,4 L0,4 L0,5 L-1,5 L-1,6 L-2,6 L-2,7 L-3,7 L-3,6 L-4,6 L-4,3 L-2,3 L-2,2 L-1,2 L-1,1 L0,1 Z " transform="translate(119,161)" style="fill: #D7DFE1;"/><path d="M0,0 L4,0 L4,1 L5,1 L5,2 L3,2 L3,3 L1,3 L1,4 L-1,4 L-1,3 L-5,3 L-5,2 L-17,2 L-17,1 L0,1 Z " transform="translate(189,141)" style="fill: #4D607D;"/><path d="M0,0 L1,0 L1,2 L2,2 L2,5 L3,5 L3,4 L4,4 L4,10 L3,10 L3,9 L0,9 L0,8 L-1,8 L-1,6 L-2,6 L-2,3 L-1,3 L-1,1 L0,1 Z " transform="translate(57,100)" style="fill: #2C4E77;"/><path d="M0,0 L1,0 L1,2 L0,2 L0,3 L-2,3 L-2,4 L-3,4 L-3,5 L-4,5 L-4,6 L-6,6 L-6,8 L-8,8 L-8,9 L-9,9 L-9,10 L-7,10 L-7,11 L-9,11 L-9,12 L-12,12 L-12,13 L-13,13 L-13,14 L-15,14 L-15,13 L-14,13 L-14,12 L-13,12 L-13,11 L-12,11 L-12,10 L-11,10 L-11,9 L-10,9 L-10,8 L-9,8 L-9,7 L-8,7 L-8,6 L-7,6 L-7,5 L-5,5 L-5,4 L-4,4 L-4,3 L-3,3 L-3,2 L-2,2 L-2,1 L0,1 Z " transform="translate(68,56)" style="fill: #836524;"/><path d="M0,0 L1,0 L1,3 L2,3 L2,4 L3,4 L3,6 L2,6 L2,11 L1,11 L1,10 L-1,10 L-1,9 L0,9 L0,7 L-1,7 L-1,4 L-4,4 L-4,2 L-3,2 L-3,1 L0,1 Z " transform="translate(173,210)" style="fill: #FCF7E9;"/><path d="M0,0 L1,0 L1,2 L2,2 L2,3 L3,3 L3,4 L4,4 L4,5 L5,5 L5,6 L6,6 L6,7 L7,7 L7,8 L8,8 L8,9 L6,9 L6,10 L3,10 L3,9 L2,9 L2,7 L1,7 L1,6 L0,6 Z " transform="translate(40,115)" style="fill: #F7EDD6;"/><path d="M0,0 L1,0 L1,2 L0,2 L0,3 L-1,3 L-1,4 L-2,4 L-2,5 L-3,5 L-3,6 L0,6 L0,7 L-1,7 L-1,8 L-3,8 L-3,9 L-5,9 L-5,10 L-6,10 L-6,9 L-7,9 L-7,8 L-9,8 L-9,9 L-11,9 L-11,8 L-10,8 L-10,7 L-7,7 L-7,6 L-6,6 L-6,5 L-4,5 L-4,4 L-3,4 L-3,3 L-2,3 L-2,2 L-1,2 L-1,1 L0,1 Z " transform="translate(123,94)" style="fill: #F0EDD8;"/><path d="M0,0 L1,0 L1,4 L2,4 L2,2 L3,2 L3,3 L4,3 L4,4 L6,4 L6,6 L5,6 L5,7 L4,7 L4,9 L3,9 L3,10 L2,10 L2,9 L1,9 L1,8 L0,8 L0,4 L-1,4 L-1,1 L0,1 Z " transform="translate(63,94)" style="fill: #50718C;"/><path d="M0,0 L3,0 L3,2 L4,2 L4,3 L3,3 L3,4 L1,4 L1,5 L0,5 L0,6 L-8,6 L-8,5 L-1,5 L-1,4 L-5,4 L-5,2 L-1,2 L-1,1 L0,1 Z " transform="translate(221,243)" style="fill: #917340;"/><path d="M0,0 L1,0 L1,4 L14,4 L14,3 L16,3 L16,5 L15,5 L15,6 L13,6 L13,5 L10,5 L10,6 L0,6 Z " transform="translate(114,201)" style="fill: #D6E2EB;"/><path d="M0,0 L14,0 L14,4 L12,4 L12,3 L0,3 L0,2 L10,2 L10,1 L0,1 Z " transform="translate(152,182)" style="fill: #06213F;"/><path d="M0,0 L1,0 L1,2 L2,2 L2,3 L3,3 L3,4 L2,4 L2,5 L1,5 L1,6 L-1,6 L-1,7 L-3,7 L-3,8 L-4,8 L-4,7 L-5,7 L-5,6 L-6,6 L-6,4 L-4,4 L-4,3 L-2,3 L-2,2 L-1,2 L-1,1 L0,1 Z " transform="translate(230,148)" style="fill: #23324F;"/><path d="M0,0 L1,0 L1,1 L3,1 L3,7 L2,7 L2,8 L-4,8 L-4,5 L-1,5 L-1,4 L0,4 Z " transform="translate(223,138)" style="fill: #162944;"/><path d="M0,0 L3,0 L3,1 L5,1 L5,6 L3,6 L3,7 L4,7 L4,8 L6,8 L6,9 L3,9 L3,8 L2,8 L2,7 L1,7 L1,5 L0,5 Z " transform="translate(63,112)" style="fill: #1C314A;"/><path d="M0,0 L2,0 L2,1 L1,1 L1,2 L2,2 L2,3 L1,3 L1,4 L3,4 L3,6 L2,6 L2,7 L1,7 L1,8 L0,8 L0,7 L-1,7 L-1,6 L-2,6 L-2,7 L-3,7 L-3,5 L-5,5 L-5,4 L-3,4 L-3,3 L-4,3 L-4,2 L-2,2 L-2,1 L0,1 Z " transform="translate(75,85)" style="fill: #8DA3B1;"/><path d="M0,0 L2,0 L2,2 L3,2 L3,8 L5,8 L5,9 L6,9 L6,10 L5,10 L5,12 L4,12 L4,11 L3,11 L3,13 L2,13 L2,12 L1,12 L1,2 L0,2 Z " transform="translate(226,232)" style="fill: #EBE9CE;"/><path d="M0,0 L1,0 L1,1 L8,1 L8,2 L7,2 L7,4 L8,4 L8,5 L0,5 L0,3 L-1,3 L-1,1 L0,1 Z " transform="translate(233,200)" style="fill: #072853;"/><path d="M0,0 L2,0 L2,1 L3,1 L3,2 L2,2 L2,6 L3,6 L3,9 L4,9 L4,10 L2,10 L2,9 L1,9 L1,8 L0,8 L0,7 L-1,7 L-1,6 L-2,6 L-2,4 L-4,4 L-4,3 L0,3 L0,2 L-1,2 L-1,1 L0,1 Z " transform="translate(204,190)" style="fill: #153160;"/><path d="M0,0 L20,0 L20,1 L14,1 L14,2 L11,2 L11,3 L8,3 L8,2 L4,2 L4,1 L0,1 Z " transform="translate(69,114)" style="fill: #2B3433;"/><path d="M0,0 L1,0 L1,1 L2,1 L2,2 L3,2 L3,5 L1,5 L1,6 L0,6 L0,7 L-1,7 L-1,8 L-2,8 L-2,10 L-3,10 L-3,11 L-4,11 L-4,7 L-3,7 L-3,5 L-2,5 L-2,3 L-1,3 L-1,2 L0,2 Z " transform="translate(58,88)" style="fill: #9A792F;"/><path d="M0,0 L1,0 L1,1 L2,1 L2,10 L1,10 L1,12 L-1,12 L-1,10 L-3,10 L-3,9 L-2,9 L-2,7 L-1,7 L-1,4 L1,4 L1,2 L0,2 Z " transform="translate(225,233)" style="fill: #7D5E26;"/><path d="M0,0 L6,0 L6,5 L3,5 L3,4 L-1,4 L-1,3 L-6,3 L-6,2 L3,2 L3,1 L0,1 Z " transform="translate(243,165)" style="fill: #0F2046;"/><path d="M0,0 L2,0 L2,1 L3,1 L3,4 L1,4 L1,23 L0,23 Z " transform="translate(182,178)" style="fill: #D9E9F7;"/><path d="M0,0 L1,0 L1,4 L2,4 L2,5 L4,5 L4,11 L0,11 Z " transform="translate(243,140)" style="fill: #E4F4FD;"/><path d="M0,0 L3,0 L3,13 L2,13 L2,3 L1,3 L1,13 L0,13 Z " transform="translate(148,187)" style="fill: #062552;"/><path d="M0,0 L2,0 L2,1 L1,1 L1,3 L0,3 L0,10 L-1,10 L-1,9 L-3,9 L-3,1 L0,1 Z " transform="translate(119,170)" style="fill: #082C5D;"/><path d="M0,0 L1,0 L1,7 L0,7 L0,10 L-1,10 L-1,12 L-2,12 L-2,14 L-3,14 L-3,15 L-4,15 L-4,16 L-9,16 L-9,15 L-7,15 L-7,14 L-5,14 L-5,13 L-4,13 L-4,12 L-3,12 L-3,11 L-2,11 L-2,9 L-1,9 L-1,6 L0,6 Z " transform="translate(236,140)" style="fill: #D3E5ED;"/><path d="M0,0 L2,0 L2,1 L6,1 L6,0 L9,0 L9,1 L10,1 L10,3 L9,3 L9,4 L7,4 L7,3 L6,3 L6,2 L5,2 L5,3 L4,3 L4,4 L5,4 L5,5 L3,5 L3,3 L0,3 Z " transform="translate(176,124)" style="fill: #C3D0DC;"/><path d="M0,0 L2,0 L2,3 L1,3 L1,19 L2,19 L2,23 L1,23 L1,21 L0,21 L0,2 L-1,2 L-1,1 L0,1 Z " transform="translate(36,92)" style="fill: #FCFDE8;"/><path d="M0,0 L4,0 L4,1 L3,1 L3,2 L6,2 L6,1 L9,1 L9,0 L11,0 L11,1 L10,1 L10,2 L8,2 L8,5 L5,5 L5,4 L3,4 L3,3 L1,3 L1,2 L0,2 Z " transform="translate(117,181)" style="fill: #213A56;"/><path d="M0,0 L1,0 L1,2 L0,2 L0,4 L1,4 L1,3 L2,3 L2,2 L3,2 L3,0 L4,0 L4,3 L5,3 L5,4 L4,4 L4,6 L3,6 L3,4 L2,4 L2,6 L1,6 L1,5 L-1,5 L-1,10 L-2,10 L-2,8 L-3,8 L-3,6 L-2,6 L-2,3 L-1,3 L-1,1 L0,1 Z " transform="translate(220,172)" style="fill: #1B3954;"/><path d="M0,0 L2,0 L2,2 L1,2 L1,3 L3,3 L3,4 L1,4 L1,7 L0,7 L0,4 L-14,4 L-14,3 L-12,3 L-12,2 L-11,2 L-11,3 L-2,3 L-2,2 L0,2 Z " transform="translate(202,142)" style="fill: #D9E8F3;"/><path d="M0,0 L6,0 L6,3 L-10,3 L-10,2 L0,2 Z " transform="translate(145,121)" style="fill: #0B2337;"/><path d="M0,0 L3,0 L3,3 L2,3 L2,4 L0,4 L0,5 L-1,5 L-1,6 L-2,6 L-2,7 L-4,7 L-4,8 L-5,8 L-5,9 L-7,9 L-7,10 L-9,10 L-9,9 L-8,9 L-8,8 L-6,8 L-6,7 L-5,7 L-5,6 L-4,6 L-4,5 L-2,5 L-2,4 L-1,4 L-1,3 L0,3 L0,2 L-1,2 L-1,1 L0,1 Z " transform="translate(125,98)" style="fill: #EEE6D3;"/><path d="M0,0 L1,0 L1,4 L0,4 L0,6 L-1,6 L-1,12 L-2,12 L-2,14 L-3,14 L-3,13 L-4,13 L-4,9 L-3,9 L-3,6 L-2,6 L-2,4 L-1,4 L-1,2 L0,2 Z " transform="translate(44,81)" style="fill: #8C702D;"/><path d="M0,0 L1,0 L1,10 L3,10 L3,9 L6,9 L6,10 L5,10 L5,11 L4,11 L4,12 L3,12 L3,13 L2,13 L2,14 L0,14 Z " transform="translate(152,214)" style="fill: #E4DBAE;"/><path d="M0,0 L2,0 L2,1 L1,1 L1,2 L0,2 L0,3 L-2,3 L-2,4 L-3,4 L-3,5 L-4,5 L-4,6 L-6,6 L-6,7 L-7,7 L-7,8 L-9,8 L-9,9 L-10,9 L-10,7 L-11,7 L-11,6 L-9,6 L-9,5 L-6,5 L-6,4 L-5,4 L-5,3 L-3,3 L-3,2 L-1,2 L-1,1 L0,1 Z " transform="translate(123,100)" style="fill: #76694A;"/><path d="M0,0 L3,0 L3,1 L2,1 L2,4 L3,4 L3,6 L2,6 L2,8 L1,8 L1,6 L0,6 L0,8 L-2,8 L-2,4 L-1,4 L-1,2 L0,2 Z " transform="translate(45,83)" style="fill: #996E11;"/><path d="M0,0 L2,0 L2,1 L3,1 L3,2 L4,2 L4,1 L10,1 L10,3 L7,3 L7,4 L3,4 L3,5 L2,5 L2,4 L1,4 L1,3 L2,3 L2,2 L-1,2 L-1,1 L0,1 Z " transform="translate(83,75)" style="fill: #CCBE9C;"/><path d="M0,0 L8,0 L8,1 L12,1 L12,2 L1,2 L1,3 L-2,3 L-2,2 L-4,2 L-4,1 L0,1 Z " transform="translate(100,63)" style="fill: #9E7A3C;"/><path d="M0,0 L4,0 L4,1 L2,1 L2,2 L0,2 L0,3 L-1,3 L-1,4 L-3,4 L-3,5 L-5,5 L-5,6 L-6,6 L-6,7 L-8,7 L-8,8 L-9,8 L-9,7 L-10,7 L-10,5 L-6,5 L-6,4 L-5,4 L-5,3 L-2,3 L-2,1 L0,1 Z " transform="translate(77,48)" style="fill: #F6E9D3;"/><path d="M0,0 L9,0 L9,1 L12,1 L12,3 L7,3 L7,4 L6,4 L6,3 L4,3 L4,1 L0,1 Z " transform="translate(124,168)" style="fill: #DAE3E6;"/><path d="M0,0 L1,0 L1,1 L3,1 L3,2 L2,2 L2,4 L1,4 L1,12 L2,12 L2,13 L3,13 L3,14 L0,14 L0,6 L-1,6 L-1,1 L0,1 Z " transform="translate(113,167)" style="fill: #E9F2F5;"/><path d="M0,0 L4,0 L4,1 L5,1 L5,2 L6,2 L6,3 L7,3 L7,5 L9,5 L9,6 L8,6 L8,8 L7,8 L7,7 L6,7 L6,6 L5,6 L5,5 L4,5 L4,4 L3,4 L3,3 L2,3 L2,2 L1,2 L1,1 L0,1 Z " transform="translate(177,164)" style="fill: #EEF3F9;"/><path d="M0,0 L1,0 L1,2 L0,2 L0,4 L-1,4 L-1,7 L-4,7 L-4,8 L-5,8 L-5,7 L-7,7 L-7,3 L-6,3 L-6,4 L-3,4 L-3,5 L-2,5 L-2,2 L-1,2 L-1,1 L0,1 Z " transform="translate(63,105)" style="fill: #1C4361;"/><path d="M0,0 L1,0 L1,1 L2,1 L2,2 L0,2 L0,3 L1,3 L1,4 L0,4 L0,5 L-1,5 L-1,6 L-2,6 L-2,7 L-3,7 L-3,10 L-6,10 L-6,8 L-5,8 L-5,6 L-4,6 L-4,5 L-3,5 L-3,4 L-2,4 L-2,2 L-1,2 L-1,1 L0,1 Z " transform="translate(69,99)" style="fill: #E2EEF5;"/><path d="M0,0 L4,0 L4,1 L2,1 L2,2 L3,2 L3,3 L2,3 L2,4 L0,4 L0,5 L-2,5 L-2,6 L-4,6 L-4,7 L-6,7 L-6,6 L-5,6 L-5,5 L-4,5 L-4,4 L-3,4 L-3,3 L-2,3 L-2,2 L-1,2 L-1,1 L0,1 Z " transform="translate(74,80)" style="fill: #BAB08A;"/><path d="M0,0 L2,0 L2,1 L3,1 L3,2 L4,2 L4,4 L5,4 L5,6 L4,6 L4,8 L5,8 L5,16 L4,16 L4,10 L3,10 L3,5 L2,5 L2,3 L1,3 L1,1 L0,1 Z " transform="translate(136,52)" style="fill: #F8F4E0;"/><path d="M0,0 L1,0 L1,12 L2,12 L2,15 L3,15 L3,17 L4,17 L4,18 L2,18 L2,17 L1,17 L1,16 L0,16 Z " transform="translate(216,180)" style="fill: #BCCED2;"/><path d="M0,0 L1,0 L1,1 L0,1 Z M-2,1 L0,1 L0,2 L13,2 L13,3 L2,3 L2,4 L-2,4 L-2,5 L-3,5 L-3,2 L-2,2 Z " transform="translate(230,161)" style="fill: #C5D3DB;"/><path d="M0,0 L3,0 L3,1 L2,1 L2,3 L1,3 L1,4 L0,4 L0,5 L-1,5 L-1,6 L-3,6 L-3,7 L-5,7 L-5,4 L-2,4 L-2,3 L-4,3 L-4,2 L-3,2 L-3,1 L-2,1 L-2,2 L1,2 L1,1 L0,1 Z " transform="translate(229,145)" style="fill: #E2EDF3;"/><path d="M0,0 L3,0 L3,9 L-1,9 L-1,7 L1,7 L1,2 L-1,2 L-1,1 L0,1 Z " transform="translate(199,135)" style="fill: #3C455D;"/><path d="M0,0 L5,0 L5,1 L8,1 L8,2 L9,2 L9,4 L8,4 L8,5 L5,5 L5,3 L3,3 L3,2 L1,2 L1,1 L0,1 Z " transform="translate(119,65)" style="fill: #A57D2A;"/><path d="M0,0 L1,0 L1,1 L2,1 L2,2 L3,2 L3,5 L4,5 L4,7 L0,7 L0,6 L-1,6 L-1,4 L0,4 L0,3 L-1,3 L-1,1 L0,1 Z " transform="translate(179,167)" style="fill: #1A2B56;"/><path d="M0,0 L1,0 L1,4 L2,4 L2,6 L3,6 L3,9 L1,9 L1,8 L0,8 L0,9 L-1,9 L-1,6 L-2,6 L-2,5 L-1,5 L-1,2 L0,2 Z " transform="translate(223,130)" style="fill: #263F5C;"/><path d="M0,0 L1,0 L1,8 L2,8 L2,11 L-2,11 L-2,6 L0,6 Z " transform="translate(54,106)" style="fill: #DBE9EF;"/><path d="M0,0 L1,0 L1,3 L5,3 L5,4 L1,4 L1,5 L10,5 L10,6 L1,6 L1,7 L0,7 L0,5 L-1,5 L-1,4 L-2,4 L-2,3 L-1,3 L-1,2 L0,2 Z " transform="translate(107,70)" style="fill: #C8C5BE;"/><path d="M0,0 L2,0 L2,2 L4,2 L4,4 L5,4 L5,5 L6,5 L6,6 L7,6 L7,7 L8,7 L8,10 L7,10 L7,9 L6,9 L6,8 L5,8 L5,7 L4,7 L4,6 L3,6 L3,4 L2,4 L2,3 L1,3 L1,2 L0,2 Z " transform="translate(160,232)" style="fill: #F7EDD8;"/><path d="M0,0 L1,0 L1,1 L3,1 L3,2 L2,2 L2,4 L3,4 L3,6 L-1,6 L-1,5 L-4,5 L-4,4 L-2,4 L-2,2 L0,2 Z " transform="translate(230,199)" style="fill: #1E3A62;"/><path d="M0,0 L2,0 L2,1 L4,1 L4,2 L3,2 L3,3 L5,3 L5,5 L6,5 L6,6 L7,6 L7,10 L6,10 L6,9 L5,9 L5,7 L3,7 L3,4 L2,4 L2,2 L1,2 L1,1 L0,1 Z " transform="translate(130,188)" style="fill: #06264A;"/><path d="M0,0 L3,0 L3,1 L4,1 L4,3 L5,3 L5,4 L3,4 L3,3 L0,3 L0,4 L2,4 L2,5 L-2,5 L-2,1 L0,1 Z " transform="translate(127,182)" style="fill: #132A4E;"/><path d="M0,0 L1,0 L1,1 L4,1 L4,2 L5,2 L5,3 L8,3 L8,5 L7,5 L7,6 L6,6 L6,5 L4,5 L4,4 L1,4 L1,3 L-1,3 L-1,2 L0,2 Z " transform="translate(124,177)" style="fill: #E2ECED;"/><path d="M0,0 L9,0 L9,3 L1,3 L1,2 L3,2 L3,1 L0,1 Z " transform="translate(237,125)" style="fill: #E9FBFE;"/><path d="M0,0 L2,0 L2,1 L1,1 L1,2 L0,2 L0,3 L-1,3 L-1,4 L-2,4 L-2,5 L-3,5 L-3,6 L-4,6 L-4,7 L-5,7 L-5,8 L-6,8 L-6,10 L-7,10 L-7,11 L-9,11 L-9,9 L-8,9 L-8,8 L-7,8 L-7,7 L-6,7 L-6,6 L-5,6 L-5,5 L-4,5 L-4,4 L-3,4 L-3,3 L-2,3 L-2,2 L-1,2 L-1,1 L0,1 Z " transform="translate(74,78)" style="fill: #EDDDB0;"/><path d="M0,0 L4,0 L4,1 L2,1 L2,2 L3,2 L3,4 L1,4 L1,14 L0,14 Z " transform="translate(136,214)" style="fill: #8B713C;"/><path d="M0,0 L2,0 L2,1 L3,1 L3,2 L4,2 L4,3 L5,3 L5,6 L3,6 L3,7 L2,7 L2,6 L1,6 L1,5 L0,5 L0,4 L1,4 L1,3 L0,3 L0,2 L1,2 L1,1 L0,1 Z " transform="translate(221,214)" style="fill: #887248;"/><path d="M0,0 L4,0 L4,1 L3,1 L3,2 L2,2 L2,3 L1,3 L1,5 L0,5 L0,6 L-1,6 L-1,7 L-2,7 L-2,1 L0,1 Z " transform="translate(160,216)" style="fill: #F4EFCF;"/><path d="M0,0 L11,0 L11,1 L9,1 L9,2 L8,2 L8,3 L4,3 L4,2 L2,2 L2,1 L0,1 Z " transform="translate(233,205)" style="fill: #D1E1EB;"/><path d="M0,0 L1,0 L1,6 L2,6 L2,4 L3,4 L3,7 L0,7 L0,8 L-1,8 L-1,7 L-2,7 L-2,8 L-3,8 L-3,6 L-2,6 L-2,1 L-1,1 L-1,5 L0,5 Z " transform="translate(220,184)" style="fill: #15395C;"/><path d="M0,0 L2,0 L2,3 L1,3 L1,5 L-1,5 L-1,6 L-3,6 L-3,1 L0,1 Z " transform="translate(186,118)" style="fill: #2E3C58;"/><path d="M0,0 L5,0 L5,1 L3,1 L3,2 L2,2 L2,3 L0,3 L0,4 L-1,4 L-1,5 L-2,5 L-2,4 L-4,4 L-4,3 L-5,3 L-5,2 L-2,2 L-2,1 L0,1 Z " transform="translate(87,80)" style="fill: #CCCBD2;"/><path d="M0,0 L5,0 L5,2 L6,2 L6,1 L8,1 L8,2 L7,2 L7,3 L-2,3 L-2,2 L0,2 Z " transform="translate(187,245)" style="fill: #825B23;"/><path d="M0,0 L1,0 L1,3 L0,3 L0,4 L1,4 L1,5 L-1,5 L-1,6 L-2,6 L-2,7 L-3,7 L-3,6 L-4,6 L-4,7 L-6,7 L-6,6 L-5,6 L-5,5 L-4,5 L-4,4 L-3,4 L-3,3 L-2,3 L-2,2 L-1,2 L-1,1 L0,1 Z " transform="translate(170,216)" style="fill: #F9F2D9;"/><path d="M0,0 L1,0 L1,1 L2,1 L2,2 L3,2 L3,3 L4,3 L4,4 L5,4 L5,5 L6,5 L6,6 L7,6 L7,7 L2,7 L2,5 L1,5 L1,4 L2,4 L2,3 L0,3 Z " transform="translate(197,193)" style="fill: #D8E9F0;"/><path d="M0,0 L2,0 L2,3 L3,3 L3,8 L0,8 Z " transform="translate(165,135)" style="fill: #15233F;"/><path d="M0,0 L1,0 L1,4 L2,4 L2,5 L3,5 L3,6 L2,6 L2,8 L1,8 L1,11 L0,11 L0,9 L-1,9 L-1,4 L0,4 Z " transform="translate(221,124)" style="fill: #233650;"/><path d="M0,0 L2,0 L2,1 L1,1 L1,2 L0,2 L0,3 L-1,3 L-1,4 L-2,4 L-2,8 L-3,8 L-3,9 L-5,9 L-5,11 L-6,11 L-6,8 L-5,8 L-5,7 L-4,7 L-4,5 L-3,5 L-3,3 L-2,3 L-2,2 L-1,2 L-1,1 L0,1 Z " transform="translate(51,72)" style="fill: #816620;"/><path d="M0,0 L1,0 L1,4 L0,4 L0,6 L-1,6 L-1,8 L0,8 L0,9 L-1,9 L-1,10 L-6,10 L-6,9 L-4,9 L-4,8 L-3,8 L-3,7 L-2,7 L-2,5 L-1,5 L-1,3 L0,3 Z " transform="translate(200,238)" style="fill: #F3E7CC;"/><path d="M0,0 L4,0 L4,1 L7,1 L7,2 L6,2 L6,4 L0,4 L0,3 L1,3 L1,2 L2,2 L2,1 L0,1 Z " transform="translate(112,66)" style="fill: #F2E4D3;"/><path d="M0,0 L12,0 L12,1 L11,1 L11,2 L10,2 L10,3 L9,3 L9,2 L7,2 L7,1 L3,1 L3,2 L1,2 L1,1 L0,1 Z " transform="translate(147,205)" style="fill: #F1FBFD;"/><path d="M0,0 L1,0 L1,3 L3,3 L3,5 L4,5 L4,6 L2,6 L2,8 L-1,8 L-1,7 L0,7 L0,6 L-1,6 L-1,5 L0,5 Z " transform="translate(132,192)" style="fill: #1A3964;"/><path d="M0,0 L1,0 L1,1 L3,1 L3,2 L4,2 L4,4 L5,4 L5,5 L3,5 L3,4 L0,4 L0,3 L-2,3 L-2,5 L-3,5 L-3,2 L0,2 Z " transform="translate(183,174)" style="fill: #0A2D54;"/><path d="M0,0 L3,0 L3,2 L2,2 L2,3 L4,3 L4,8 L2,8 L2,4 L0,4 L0,3 L1,3 L1,2 L0,2 Z " transform="translate(196,134)" style="fill: #182D4D;"/><path d="M0,0 L1,0 L1,2 L2,2 L2,4 L4,4 L4,5 L3,5 L3,6 L2,6 L2,9 L0,9 Z " transform="translate(250,121)" style="fill: #C9D4DB;"/><path d="M0,0 L3,0 L3,2 L4,2 L4,1 L5,1 L5,2 L6,2 L6,3 L3,3 L3,4 L2,4 L2,5 L1,5 L1,4 L0,4 L0,3 L-1,3 L-1,1 L0,1 Z " transform="translate(69,90)" style="fill: #6E92AE;"/><path d="M0,0 L4,0 L4,1 L3,1 L3,2 L2,2 L2,3 L1,3 L1,4 L0,4 L0,5 L-1,5 L-1,6 L-2,6 L-2,1 L0,1 Z " transform="translate(69,79)" style="fill: #A1803B;"/><path d="M0,0 L4,0 L4,1 L7,1 L7,2 L9,2 L9,3 L11,3 L11,5 L10,5 L10,6 L9,6 L9,5 L8,5 L8,4 L7,4 L7,3 L6,3 L6,2 L3,2 L3,1 L0,1 Z " transform="translate(113,65)" style="fill: #9D874D;"/><path d="M0,0 L1,0 L1,1 L2,1 L2,2 L3,2 L3,3 L4,3 L4,4 L5,4 L5,5 L-1,5 L-1,3 L0,3 L0,2 L-1,2 L-1,1 L0,1 Z " transform="translate(167,243)" style="fill: #7D602A;"/><path d="M0,0 L1,0 L1,1 L2,1 L2,2 L8,2 L8,3 L7,3 L7,4 L1,4 L1,3 L0,3 L0,2 L-1,2 L-1,1 L0,1 Z " transform="translate(213,241)" style="fill: #EFDDB7;"/><path d="M0,0 L2,0 L2,1 L3,1 L3,3 L1,3 L1,5 L-2,5 L-2,4 L-3,4 L-3,3 L-2,3 L-2,2 L-1,2 L-1,1 L0,1 Z " transform="translate(227,198)" style="fill: #0F2950;"/><path d="M0,0 L3,0 L3,1 L4,1 L4,3 L2,3 L2,4 L-3,4 L-3,5 L-4,5 L-4,3 L0,3 Z " transform="translate(173,118)" style="fill: #284052;"/><path d="M0,0 L1,0 L1,5 L2,5 L2,3 L3,3 L3,10 L2,10 L2,9 L1,9 L1,7 L0,7 Z " transform="translate(48,110)" style="fill: #E9DEB8;"/><path d="M0,0 L2,0 L2,3 L1,3 L1,5 L0,5 L0,6 L-4,6 L-4,5 L-3,5 L-3,4 L-2,4 L-2,3 L-1,3 L-1,2 L0,2 Z " transform="translate(124,94)" style="fill: #FEF9F0;"/><path d="M0,0 L1,0 L1,1 L2,1 L2,0 L3,0 L3,1 L4,1 L4,2 L3,2 L3,3 L2,3 L2,4 L1,4 L1,5 L0,5 L0,7 L-1,7 L-1,5 L-2,5 L-2,4 L-1,4 L-1,2 L0,2 Z " transform="translate(55,70)" style="fill: #9A6A09;"/><path d="M0,0 L4,0 L4,1 L2,1 L2,2 L1,2 L1,3 L0,3 L0,4 L-1,4 L-1,5 L-3,5 L-3,6 L-4,6 L-4,7 L-5,7 L-5,5 L-4,5 L-4,4 L-3,4 L-3,3 L-1,3 L-1,1 L0,1 Z " transform="translate(64,56)" style="fill: #F4E7C7;"/><path d="M0,0 L1,0 L1,3 L0,3 L0,4 L1,4 L1,5 L0,5 L0,6 L-2,6 L-2,7 L-3,7 L-3,6 L-5,6 L-5,5 L-4,5 L-4,4 L-2,4 L-2,3 L-1,3 L-1,2 L0,2 Z " transform="translate(226,243)" style="fill: #F8EFDD;"/><path d="M0,0 L3,0 L3,2 L4,2 L4,3 L5,3 L5,4 L6,4 L6,6 L3,6 L3,5 L4,5 L4,4 L3,4 L3,3 L0,3 Z " transform="translate(175,242)" style="fill: #F3E7CE;"/><path d="M0,0 L3,0 L3,1 L2,1 L2,2 L1,2 L1,3 L0,3 L0,4 L-7,4 L-7,3 L-3,3 L-3,2 L-1,2 L-1,1 L0,1 Z " transform="translate(192,241)" style="fill: #EDDFBA;"/><path d="M0,0 L2,0 L2,1 L3,1 L3,2 L2,2 L2,4 L3,4 L3,6 L1,6 L1,9 L0,9 L0,3 L1,3 L1,2 L0,2 Z " transform="translate(223,231)" style="fill: #8D733E;"/><path d="M0,0 L1,0 L1,3 L2,3 L2,4 L3,4 L3,6 L2,6 L2,5 L1,5 L1,6 L-1,6 L-1,4 L-3,4 L-3,3 L-2,3 L-2,2 L0,2 Z " transform="translate(156,228)" style="fill: #7D6310;"/><path d="M0,0 L4,0 L4,1 L8,1 L8,2 L9,2 L9,5 L8,5 L8,4 L7,4 L7,3 L5,3 L5,2 L2,2 L2,1 L0,1 Z " transform="translate(215,226)" style="fill: #F0E6CD;"/><path d="M0,0 L1,0 L1,1 L2,1 L2,2 L3,2 L3,3 L2,3 L2,4 L1,4 L1,5 L0,5 L0,6 L-1,6 L-1,5 L-2,5 L-2,2 L-1,2 L-1,1 L0,1 Z " transform="translate(211,216)" style="fill: #785E19;"/><path d="M0,0 L1,0 L1,1 L2,1 L2,3 L3,3 L3,4 L2,4 L2,5 L0,5 L0,6 L-2,6 L-2,5 L-3,5 L-3,2 L-2,2 L-2,4 L0,4 Z " transform="translate(209,200)" style="fill: #E8EDF1;"/><path d="M0,0 L1,0 L1,3 L0,3 L0,4 L-2,4 L-2,6 L-4,6 L-4,5 L-3,5 L-3,3 L-7,3 L-7,2 L-1,2 L-1,1 L0,1 Z " transform="translate(250,153)" style="fill: #E6ECF4;"/><path d="M0,0 L3,0 L3,1 L1,1 L1,5 L2,5 L2,8 L0,8 L0,7 L-4,7 L-4,6 L0,6 Z " transform="translate(247,145)" style="fill: #53606E;"/><path d="M0,0 L1,0 L1,2 L2,2 L2,5 L1,5 L1,8 L0,8 L0,9 L-1,9 L-1,3 L0,3 Z " transform="translate(121,82)" style="fill: #2F3343;"/></svg>