<svg id="svg" version="1.1" xmlns="http://www.w3.org/2000/svg" style="display: block;" viewBox="0 0 1800 1800"><path d="M0,0 L1800,0 L1800,1800 L0,1800 Z " transform="translate(0,0)" style="fill: #FEFEFE;"/><path d="M0,0 L22,0 L22,190 L21,190 L21,192 L20,192 L20,195 L19,195 L19,197 L18,197 L18,198 L17,198 L17,200 L16,200 L16,202 L15,202 L15,203 L14,203 L14,205 L13,205 L13,207 L12,207 L12,208 L11,208 L11,210 L10,210 L10,212 L9,212 L9,213 L8,213 L8,215 L7,215 L7,217 L6,217 L6,218 L5,218 L5,220 L4,220 L4,222 L3,222 L3,223 L2,223 L2,225 L1,225 L1,227 L0,227 L0,228 L-1,228 L-1,230 L-2,230 L-2,232 L-3,232 L-3,233 L-4,233 L-4,235 L-5,235 L-5,237 L-6,237 L-6,238 L-7,238 L-7,240 L-8,240 L-8,242 L-9,242 L-9,243 L-10,243 L-10,245 L-11,245 L-11,247 L-12,247 L-12,248 L-13,248 L-13,250 L-14,250 L-14,252 L-15,252 L-15,253 L-16,253 L-16,255 L-17,255 L-17,257 L76,257 L76,255 L75,255 L75,253 L74,253 L74,251 L73,251 L73,250 L72,250 L72,248 L71,248 L71,246 L70,246 L70,245 L69,245 L69,243 L68,243 L68,241 L67,241 L67,240 L66,240 L66,238 L65,238 L65,236 L64,236 L64,235 L63,235 L63,233 L62,233 L62,231 L61,231 L61,230 L60,230 L60,228 L59,228 L59,227 L58,227 L58,225 L57,225 L57,223 L56,223 L56,222 L55,222 L55,220 L54,220 L54,218 L53,218 L53,217 L52,217 L52,215 L51,215 L51,213 L50,213 L50,212 L49,212 L49,210 L48,210 L48,209 L47,209 L47,207 L46,207 L46,205 L45,205 L45,203 L44,203 L44,202 L43,202 L43,200 L42,200 L42,199 L41,199 L41,197 L40,197 L40,196 L39,196 L39,193 L38,193 L38,189 L37,189 L37,1 L60,1 L60,183 L61,183 L61,186 L62,186 L62,188 L63,188 L63,190 L64,190 L64,192 L65,192 L65,194 L66,194 L66,195 L67,195 L67,197 L68,197 L68,198 L69,198 L69,200 L70,200 L70,202 L71,202 L71,204 L72,204 L72,205 L73,205 L73,207 L74,207 L74,209 L75,209 L75,210 L76,210 L76,212 L77,212 L77,214 L78,214 L78,215 L79,215 L79,217 L80,217 L80,219 L81,219 L81,221 L82,221 L82,222 L83,222 L83,224 L84,224 L84,225 L85,225 L85,227 L86,227 L86,229 L87,229 L87,231 L88,231 L88,232 L89,232 L89,234 L90,234 L90,236 L91,236 L91,237 L92,237 L92,239 L93,239 L93,241 L94,241 L94,243 L95,243 L95,244 L96,244 L96,246 L97,246 L97,248 L98,248 L98,249 L99,249 L99,251 L100,251 L100,253 L101,253 L101,254 L102,254 L102,256 L103,256 L103,258 L104,258 L104,259 L105,259 L105,261 L106,261 L106,263 L107,263 L107,264 L108,264 L108,266 L109,266 L109,268 L110,268 L110,270 L111,270 L111,271 L112,271 L112,273 L113,273 L113,275 L114,275 L114,276 L115,276 L115,278 L116,278 L116,280 L117,280 L117,281 L118,281 L118,283 L119,283 L119,285 L120,285 L120,286 L121,286 L121,288 L122,288 L122,290 L-62,290 L-62,287 L-61,287 L-61,285 L-60,285 L-60,284 L-59,284 L-59,282 L-58,282 L-58,280 L-57,280 L-57,279 L-56,279 L-56,277 L-55,277 L-55,275 L-54,275 L-54,274 L-53,274 L-53,272 L-52,272 L-52,271 L-51,271 L-51,269 L-50,269 L-50,267 L-49,267 L-49,265 L-48,265 L-48,264 L-47,264 L-47,262 L-46,262 L-46,261 L-45,261 L-45,259 L-44,259 L-44,257 L-43,257 L-43,256 L-42,256 L-42,254 L-41,254 L-41,252 L-40,252 L-40,250 L-39,250 L-39,249 L-38,249 L-38,247 L-37,247 L-37,246 L-36,246 L-36,244 L-35,244 L-35,242 L-34,242 L-34,241 L-33,241 L-33,239 L-32,239 L-32,237 L-31,237 L-31,236 L-30,236 L-30,234 L-29,234 L-29,232 L-28,232 L-28,231 L-27,231 L-27,229 L-26,229 L-26,227 L-25,227 L-25,226 L-24,226 L-24,224 L-23,224 L-23,222 L-22,222 L-22,221 L-21,221 L-21,219 L-20,219 L-20,218 L-19,218 L-19,216 L-18,216 L-18,214 L-17,214 L-17,212 L-16,212 L-16,211 L-15,211 L-15,209 L-14,209 L-14,208 L-13,208 L-13,206 L-12,206 L-12,204 L-11,204 L-11,203 L-10,203 L-10,201 L-9,201 L-9,199 L-8,199 L-8,198 L-7,198 L-7,196 L-6,196 L-6,194 L-5,194 L-5,193 L-4,193 L-4,191 L-3,191 L-3,189 L-2,189 L-2,188 L-1,188 L-1,183 L0,183 Z " transform="translate(217,866)" style="fill: #A78439;"/><path d="M0,0 L118,0 L118,1 L122,1 L122,2 L124,2 L124,3 L127,3 L127,4 L129,4 L129,5 L131,5 L131,6 L132,6 L132,7 L133,7 L133,8 L134,8 L134,9 L135,9 L135,10 L136,10 L136,11 L137,11 L137,13 L138,13 L138,14 L139,14 L139,16 L140,16 L140,17 L141,17 L141,19 L142,19 L142,20 L143,20 L143,18 L144,18 L144,16 L145,16 L145,15 L146,15 L146,13 L147,13 L147,12 L148,12 L148,11 L149,11 L149,10 L150,10 L150,9 L151,9 L151,8 L152,8 L152,7 L153,7 L153,6 L155,6 L155,5 L156,5 L156,4 L158,4 L158,3 L161,3 L161,2 L164,2 L164,1 L167,1 L167,0 L284,0 L284,1 L285,1 L285,2 L286,2 L286,4 L287,4 L287,5 L288,5 L288,7 L289,7 L289,8 L290,8 L290,10 L291,10 L291,11 L292,11 L292,12 L293,12 L293,14 L294,14 L294,16 L295,16 L295,17 L296,17 L296,19 L297,19 L297,20 L298,20 L298,21 L299,21 L299,23 L300,23 L300,24 L301,24 L301,26 L302,26 L302,27 L303,27 L303,29 L304,29 L304,30 L305,30 L305,32 L306,32 L306,34 L200,34 L200,35 L197,35 L197,36 L193,36 L193,37 L191,37 L191,38 L189,38 L189,39 L187,39 L187,40 L185,40 L185,41 L184,41 L184,42 L183,42 L183,43 L181,43 L181,44 L180,44 L180,45 L179,45 L179,46 L178,46 L178,47 L177,47 L177,48 L176,48 L176,49 L175,49 L175,52 L174,52 L174,54 L173,54 L173,55 L172,55 L172,56 L171,56 L171,57 L113,57 L113,56 L112,56 L112,54 L111,54 L111,52 L110,52 L110,51 L109,51 L109,50 L108,50 L108,48 L107,48 L107,47 L106,47 L106,46 L104,46 L104,45 L103,45 L103,44 L102,44 L102,43 L101,43 L101,42 L99,42 L99,41 L98,41 L98,40 L96,40 L96,39 L94,39 L94,38 L91,38 L91,37 L89,37 L89,36 L86,36 L86,35 L-22,35 L-22,33 L-21,33 L-21,32 L-20,32 L-20,30 L-19,30 L-19,29 L-18,29 L-18,27 L-17,27 L-17,26 L-16,26 L-16,24 L-15,24 L-15,23 L-14,23 L-14,21 L-13,21 L-13,19 L-12,19 L-12,18 L-11,18 L-11,16 L-10,16 L-10,15 L-9,15 L-9,14 L-8,14 L-8,12 L-7,12 L-7,11 L-6,11 L-6,9 L-5,9 L-5,7 L-4,7 L-4,6 L-3,6 L-3,4 L-2,4 L-2,3 L-1,3 L-1,1 L0,1 Z " transform="translate(104,801)" style="fill: #033B76;"/><path d="M0,0 L19,0 L19,1 L25,1 L25,2 L28,2 L28,3 L32,3 L32,4 L35,4 L35,5 L38,5 L38,6 L42,6 L42,7 L43,7 L43,8 L45,8 L45,9 L47,9 L47,10 L49,10 L49,11 L50,11 L50,12 L52,12 L52,13 L53,13 L53,14 L55,14 L55,15 L56,15 L56,16 L57,16 L57,17 L59,17 L59,18 L60,18 L60,19 L61,19 L61,20 L62,20 L62,21 L63,21 L63,22 L64,22 L64,23 L65,23 L65,24 L66,24 L66,25 L67,25 L67,26 L68,26 L68,27 L69,27 L69,28 L70,28 L70,29 L71,29 L71,30 L72,30 L72,32 L73,32 L73,33 L74,33 L74,35 L75,35 L75,36 L76,36 L76,38 L77,38 L77,40 L78,40 L78,41 L79,41 L79,44 L80,44 L80,46 L81,46 L81,48 L82,48 L82,52 L83,52 L83,55 L84,55 L84,59 L85,59 L85,63 L86,63 L86,89 L85,89 L85,92 L-63,92 L-63,86 L-64,86 L-64,69 L-63,69 L-63,61 L-62,61 L-62,56 L-61,56 L-61,53 L-60,53 L-60,50 L-59,50 L-59,46 L-58,46 L-58,43 L-57,43 L-57,41 L-56,41 L-56,40 L-55,40 L-55,38 L-54,38 L-54,36 L-53,36 L-53,34 L-52,34 L-52,33 L-51,33 L-51,31 L-50,31 L-50,30 L-49,30 L-49,29 L-48,29 L-48,27 L-47,27 L-47,26 L-46,26 L-46,25 L-45,25 L-45,24 L-44,24 L-44,23 L-43,23 L-43,22 L-42,22 L-42,21 L-41,21 L-41,20 L-40,20 L-40,19 L-38,19 L-38,18 L-37,18 L-37,17 L-36,17 L-36,16 L-34,16 L-34,15 L-33,15 L-33,14 L-32,14 L-32,13 L-31,13 L-31,12 L-29,12 L-29,11 L-28,11 L-28,10 L-26,10 L-26,9 L-24,9 L-24,8 L-22,8 L-22,7 L-21,7 L-21,6 L-18,6 L-18,5 L-16,5 L-16,4 L-12,4 L-12,3 L-8,3 L-8,2 L-6,2 L-6,1 L0,1 Z " transform="translate(236,643)" style="fill: #A78337;"/><path d="M0,0 L29,0 L29,180 L30,180 L30,184 L31,184 L31,188 L32,188 L32,191 L33,191 L33,194 L34,194 L34,196 L35,196 L35,198 L36,198 L36,201 L37,201 L37,203 L38,203 L38,206 L39,206 L39,208 L40,208 L40,209 L41,209 L41,211 L42,211 L42,213 L43,213 L43,214 L44,214 L44,216 L45,216 L45,218 L46,218 L46,219 L47,219 L47,221 L48,221 L48,222 L49,222 L49,223 L50,223 L50,225 L51,225 L51,226 L52,226 L52,227 L53,227 L53,228 L54,228 L54,230 L55,230 L55,231 L56,231 L56,232 L57,232 L57,233 L58,233 L58,234 L59,234 L59,235 L60,235 L60,236 L61,236 L61,237 L62,237 L62,238 L63,238 L63,239 L64,239 L64,240 L65,240 L65,241 L67,241 L67,242 L68,242 L68,243 L69,243 L69,244 L70,244 L70,245 L71,245 L71,246 L73,246 L73,247 L74,247 L74,248 L76,248 L76,249 L77,249 L77,250 L79,250 L79,253 L78,253 L78,254 L77,254 L77,256 L76,256 L76,258 L75,258 L75,259 L74,259 L74,261 L73,261 L73,262 L72,262 L72,264 L71,264 L71,266 L70,266 L70,267 L69,267 L69,269 L68,269 L68,270 L67,270 L67,272 L66,272 L66,273 L64,273 L64,272 L62,272 L62,271 L61,271 L61,270 L59,270 L59,269 L58,269 L58,268 L57,268 L57,267 L55,267 L55,266 L54,266 L54,265 L53,265 L53,264 L52,264 L52,263 L50,263 L50,262 L49,262 L49,261 L48,261 L48,260 L47,260 L47,259 L46,259 L46,258 L45,258 L45,257 L44,257 L44,256 L43,256 L43,255 L41,255 L41,254 L40,254 L40,253 L39,253 L39,252 L38,252 L38,250 L37,250 L37,249 L35,249 L35,248 L34,248 L34,246 L33,246 L33,245 L32,245 L32,244 L31,244 L31,243 L30,243 L30,242 L29,242 L29,240 L28,240 L28,239 L27,239 L27,238 L26,238 L26,237 L25,237 L25,235 L24,235 L24,234 L23,234 L23,232 L22,232 L22,231 L21,231 L21,230 L20,230 L20,228 L19,228 L19,226 L18,226 L18,225 L17,225 L17,223 L16,223 L16,221 L15,221 L15,219 L14,219 L14,217 L13,217 L13,215 L12,215 L12,213 L11,213 L11,210 L10,210 L10,208 L9,208 L9,206 L8,206 L8,204 L7,204 L7,199 L6,199 L6,196 L5,196 L5,194 L4,194 L4,189 L3,189 L3,186 L2,186 L2,181 L1,181 L1,175 L0,175 Z " transform="translate(93,848)" style="fill: #053C77;"/><path d="M0,0 L28,0 L28,171 L27,171 L27,180 L26,180 L26,186 L25,186 L25,188 L24,188 L24,192 L23,192 L23,196 L22,196 L22,199 L21,199 L21,202 L20,202 L20,205 L19,205 L19,208 L18,208 L18,210 L17,210 L17,213 L16,213 L16,215 L15,215 L15,218 L14,218 L14,220 L13,220 L13,222 L12,222 L12,223 L11,223 L11,225 L10,225 L10,227 L9,227 L9,229 L8,229 L8,230 L7,230 L7,232 L6,232 L6,233 L5,233 L5,235 L4,235 L4,236 L3,236 L3,237 L2,237 L2,238 L1,238 L1,240 L0,240 L0,241 L-1,241 L-1,242 L-2,242 L-2,243 L-3,243 L-3,245 L-4,245 L-4,246 L-5,246 L-5,247 L-6,247 L-6,248 L-7,248 L-7,249 L-8,249 L-8,250 L-9,250 L-9,251 L-10,251 L-10,252 L-11,252 L-11,253 L-12,253 L-12,254 L-13,254 L-13,255 L-14,255 L-14,256 L-15,256 L-15,257 L-16,257 L-16,258 L-17,258 L-17,259 L-18,259 L-18,260 L-19,260 L-19,261 L-20,261 L-20,262 L-22,262 L-22,263 L-23,263 L-23,264 L-24,264 L-24,265 L-25,265 L-25,266 L-26,266 L-26,267 L-28,267 L-28,268 L-29,268 L-29,269 L-30,269 L-30,270 L-32,270 L-32,271 L-33,271 L-33,272 L-35,272 L-35,273 L-38,273 L-38,271 L-39,271 L-39,269 L-40,269 L-40,268 L-41,268 L-41,266 L-42,266 L-42,264 L-43,264 L-43,263 L-44,263 L-44,261 L-45,261 L-45,259 L-46,259 L-46,257 L-47,257 L-47,256 L-48,256 L-48,254 L-49,254 L-49,253 L-50,253 L-50,250 L-49,250 L-49,249 L-47,249 L-47,248 L-46,248 L-46,247 L-44,247 L-44,246 L-43,246 L-43,245 L-42,245 L-42,244 L-40,244 L-40,243 L-39,243 L-39,242 L-38,242 L-38,241 L-37,241 L-37,240 L-36,240 L-36,239 L-35,239 L-35,238 L-34,238 L-34,237 L-33,237 L-33,236 L-32,236 L-32,235 L-31,235 L-31,234 L-30,234 L-30,233 L-29,233 L-29,232 L-28,232 L-28,231 L-27,231 L-27,229 L-26,229 L-26,228 L-25,228 L-25,227 L-24,227 L-24,226 L-23,226 L-23,224 L-22,224 L-22,223 L-21,223 L-21,222 L-20,222 L-20,220 L-19,220 L-19,219 L-18,219 L-18,217 L-17,217 L-17,216 L-16,216 L-16,214 L-15,214 L-15,212 L-14,212 L-14,211 L-13,211 L-13,209 L-12,209 L-12,207 L-11,207 L-11,205 L-10,205 L-10,203 L-9,203 L-9,201 L-8,201 L-8,200 L-7,200 L-7,196 L-6,196 L-6,193 L-5,193 L-5,190 L-4,190 L-4,187 L-3,187 L-3,185 L-2,185 L-2,180 L-1,180 L-1,175 L0,175 Z " transform="translate(372,848)" style="fill: #033B76;"/><path d="M0,0 L6,0 L6,2 L7,2 L7,4 L8,4 L8,6 L9,6 L9,7 L10,7 L10,10 L3,10 L3,11 L-2,11 L-2,12 L-14,12 L-14,13 L-21,13 L-21,14 L-29,14 L-29,24 L20,24 L20,33 L-16,33 L-16,35 L-14,35 L-14,36 L-13,36 L-13,37 L-12,37 L-12,38 L-10,38 L-10,39 L-9,39 L-9,40 L-7,40 L-7,41 L-6,41 L-6,42 L-4,42 L-4,43 L-2,43 L-2,44 L0,44 L0,45 L3,45 L3,46 L5,46 L5,47 L8,47 L8,48 L11,48 L11,49 L14,49 L14,50 L20,50 L20,52 L19,52 L19,55 L18,55 L18,57 L17,57 L17,59 L16,59 L16,61 L14,61 L14,60 L12,60 L12,59 L9,59 L9,58 L7,58 L7,57 L5,57 L5,106 L-5,106 L-5,101 L-61,101 L-61,107 L-72,107 L-72,58 L-74,58 L-74,59 L-77,59 L-77,60 L-79,60 L-79,61 L-82,61 L-82,59 L-83,59 L-83,57 L-84,57 L-84,55 L-85,55 L-85,54 L-86,54 L-86,51 L-85,51 L-85,50 L-82,50 L-82,49 L-79,49 L-79,48 L-76,48 L-76,47 L-73,47 L-73,46 L-71,46 L-71,45 L-69,45 L-69,44 L-67,44 L-67,43 L-65,43 L-65,42 L-63,42 L-63,41 L-61,41 L-61,40 L-60,40 L-60,39 L-58,39 L-58,38 L-57,38 L-57,37 L-55,37 L-55,36 L-54,36 L-54,35 L-52,35 L-52,33 L-86,33 L-86,24 L-39,24 L-39,15 L-76,15 L-76,13 L-77,13 L-77,11 L-78,11 L-78,8 L-79,8 L-79,5 L-42,5 L-42,4 L-22,4 L-22,3 L-9,3 L-9,2 L-4,2 L-4,1 L0,1 Z " transform="translate(566,653)" style="fill: #053C77;"/><path d="M0,0 L28,0 L28,173 L29,173 L29,175 L30,175 L30,178 L31,178 L31,181 L32,181 L32,184 L33,184 L33,186 L34,186 L34,188 L35,188 L35,190 L36,190 L36,192 L37,192 L37,193 L38,193 L38,194 L39,194 L39,196 L40,196 L40,197 L41,197 L41,198 L42,198 L42,199 L43,199 L43,201 L44,201 L44,202 L45,202 L45,203 L46,203 L46,204 L47,204 L47,205 L48,205 L48,206 L49,206 L49,207 L50,207 L50,208 L51,208 L51,209 L53,209 L53,210 L54,210 L54,211 L55,211 L55,212 L56,212 L56,213 L58,213 L58,214 L59,214 L59,216 L58,216 L58,217 L57,217 L57,219 L56,219 L56,220 L55,220 L55,222 L54,222 L54,224 L53,224 L53,225 L52,225 L52,227 L51,227 L51,228 L50,228 L50,230 L49,230 L49,231 L48,231 L48,233 L47,233 L47,234 L46,234 L46,236 L45,236 L45,237 L43,237 L43,236 L41,236 L41,235 L40,235 L40,234 L38,234 L38,233 L37,233 L37,232 L36,232 L36,231 L34,231 L34,230 L33,230 L33,229 L32,229 L32,228 L31,228 L31,227 L30,227 L30,226 L29,226 L29,225 L28,225 L28,224 L27,224 L27,223 L26,223 L26,222 L25,222 L25,221 L24,221 L24,220 L23,220 L23,219 L22,219 L22,218 L21,218 L21,217 L20,217 L20,216 L19,216 L19,214 L18,214 L18,213 L17,213 L17,212 L16,212 L16,210 L15,210 L15,209 L14,209 L14,207 L13,207 L13,206 L12,206 L12,204 L11,204 L11,202 L10,202 L10,200 L9,200 L9,198 L8,198 L8,196 L7,196 L7,194 L6,194 L6,191 L5,191 L5,189 L4,189 L4,187 L3,187 L3,184 L2,184 L2,181 L1,181 L1,178 L0,178 Z " transform="translate(136,848)" style="fill: #053D77;"/><path d="M0,0 L28,0 L28,168 L27,168 L27,174 L26,174 L26,179 L25,179 L25,182 L24,182 L24,185 L23,185 L23,188 L22,188 L22,191 L21,191 L21,194 L20,194 L20,198 L19,198 L19,199 L18,199 L18,201 L17,201 L17,203 L16,203 L16,205 L15,205 L15,206 L14,206 L14,208 L13,208 L13,209 L12,209 L12,211 L11,211 L11,212 L10,212 L10,213 L9,213 L9,215 L8,215 L8,216 L7,216 L7,217 L6,217 L6,218 L5,218 L5,219 L4,219 L4,220 L3,220 L3,221 L2,221 L2,222 L1,222 L1,223 L0,223 L0,224 L-1,224 L-1,225 L-2,225 L-2,226 L-3,226 L-3,227 L-4,227 L-4,228 L-5,228 L-5,229 L-6,229 L-6,230 L-8,230 L-8,231 L-9,231 L-9,232 L-10,232 L-10,233 L-11,233 L-11,234 L-13,234 L-13,235 L-14,235 L-14,236 L-15,236 L-15,237 L-17,237 L-17,236 L-18,236 L-18,234 L-19,234 L-19,233 L-20,233 L-20,231 L-21,231 L-21,229 L-22,229 L-22,228 L-23,228 L-23,226 L-24,226 L-24,225 L-25,225 L-25,223 L-26,223 L-26,221 L-27,221 L-27,220 L-28,220 L-28,218 L-29,218 L-29,217 L-30,217 L-30,214 L-29,214 L-29,213 L-27,213 L-27,212 L-26,212 L-26,211 L-25,211 L-25,210 L-24,210 L-24,209 L-23,209 L-23,208 L-22,208 L-22,207 L-21,207 L-21,206 L-20,206 L-20,205 L-19,205 L-19,204 L-18,204 L-18,203 L-17,203 L-17,202 L-16,202 L-16,201 L-15,201 L-15,200 L-14,200 L-14,198 L-13,198 L-13,197 L-12,197 L-12,196 L-11,196 L-11,194 L-10,194 L-10,193 L-9,193 L-9,191 L-8,191 L-8,189 L-7,189 L-7,188 L-6,188 L-6,185 L-5,185 L-5,184 L-4,184 L-4,179 L-3,179 L-3,176 L-2,176 L-2,174 L-1,174 L-1,168 L0,168 Z " transform="translate(330,848)" style="fill: #053C77;"/><path d="M0,0 L11,0 L11,12 L31,12 L31,0 L42,0 L42,12 L60,12 L60,21 L42,21 L42,33 L62,33 L62,43 L41,43 L41,44 L42,44 L42,45 L43,45 L43,47 L44,47 L44,48 L45,48 L45,49 L46,49 L46,50 L47,50 L47,51 L48,51 L48,52 L50,52 L50,53 L51,53 L51,54 L53,54 L53,55 L54,55 L54,56 L56,56 L56,57 L57,57 L57,58 L59,58 L59,59 L61,59 L61,60 L63,60 L63,63 L62,63 L62,64 L61,64 L61,66 L60,66 L60,68 L59,68 L59,71 L57,71 L57,70 L56,70 L56,69 L54,69 L54,68 L53,68 L53,67 L51,67 L51,66 L50,66 L50,65 L48,65 L48,64 L47,64 L47,63 L46,63 L46,62 L44,62 L44,61 L43,61 L43,60 L42,60 L42,82 L5,82 L5,92 L6,92 L6,93 L45,93 L45,92 L46,92 L46,91 L47,91 L47,90 L48,90 L48,87 L49,87 L49,77 L52,77 L52,78 L54,78 L54,79 L57,79 L57,80 L60,80 L60,87 L59,87 L59,93 L58,93 L58,96 L57,96 L57,99 L56,99 L56,100 L55,100 L55,101 L53,101 L53,102 L51,102 L51,103 L0,103 L0,102 L-2,102 L-2,101 L-3,101 L-3,100 L-4,100 L-4,99 L-5,99 L-5,97 L-6,97 L-6,65 L-8,65 L-8,66 L-9,66 L-9,67 L-11,67 L-11,68 L-12,68 L-12,69 L-14,69 L-14,70 L-15,70 L-15,71 L-17,71 L-17,70 L-18,70 L-18,69 L-19,69 L-19,67 L-20,67 L-20,65 L-21,65 L-21,64 L-22,64 L-22,63 L-23,63 L-23,61 L-21,61 L-21,60 L-19,60 L-19,59 L-17,59 L-17,58 L-15,58 L-15,57 L-13,57 L-13,56 L-12,56 L-12,55 L-10,55 L-10,54 L-9,54 L-9,53 L-8,53 L-8,52 L-7,52 L-7,51 L-5,51 L-5,50 L-4,50 L-4,49 L-3,49 L-3,47 L-2,47 L-2,46 L-1,46 L-1,45 L0,45 L0,43 L-18,43 L-18,44 L-19,44 L-19,45 L-20,45 L-20,46 L-21,46 L-21,47 L-22,47 L-22,48 L-23,48 L-23,50 L-24,50 L-24,51 L-25,51 L-25,52 L-28,52 L-28,51 L-29,51 L-29,50 L-31,50 L-31,49 L-32,49 L-32,48 L-33,48 L-33,47 L-34,47 L-34,46 L-35,46 L-35,45 L-37,45 L-37,44 L-38,44 L-38,43 L-40,43 L-40,42 L-41,42 L-41,41 L-42,41 L-42,39 L-41,39 L-41,38 L-40,38 L-40,37 L-39,37 L-39,36 L-38,36 L-38,34 L-37,34 L-37,33 L-36,33 L-36,32 L-34,32 L-34,33 L-32,33 L-32,34 L-31,34 L-31,35 L-29,35 L-29,36 L-27,36 L-27,37 L-26,37 L-26,38 L-24,38 L-24,39 L-23,39 L-23,40 L-22,40 L-22,41 L-20,41 L-20,42 L-18,42 L-18,33 L0,33 L0,22 L-15,22 L-15,16 L-16,16 L-16,17 L-17,17 L-17,19 L-18,19 L-18,20 L-19,20 L-19,21 L-20,21 L-20,22 L-21,22 L-21,24 L-23,24 L-23,23 L-24,23 L-24,22 L-25,22 L-25,21 L-26,21 L-26,20 L-28,20 L-28,19 L-29,19 L-29,18 L-30,18 L-30,17 L-31,17 L-31,16 L-33,16 L-33,15 L-34,15 L-34,14 L-35,14 L-35,13 L-37,13 L-37,12 L-38,12 L-38,11 L-39,11 L-39,10 L-38,10 L-38,9 L-37,9 L-37,8 L-36,8 L-36,7 L-35,7 L-35,6 L-34,6 L-34,4 L-33,4 L-33,3 L-32,3 L-32,2 L-30,2 L-30,3 L-29,3 L-29,4 L-28,4 L-28,5 L-26,5 L-26,6 L-25,6 L-25,7 L-23,7 L-23,8 L-22,8 L-22,9 L-21,9 L-21,10 L-19,10 L-19,11 L-18,11 L-18,12 L-16,12 L-16,13 L-15,13 L-15,12 L0,12 Z " transform="translate(668,653)" style="fill: #093E78;"/><path d="M0,0 L12,0 L12,23 L25,23 L25,16 L49,16 L49,0 L61,0 L61,16 L88,16 L88,27 L61,27 L61,42 L84,42 L84,53 L83,53 L83,56 L82,56 L82,57 L81,57 L81,60 L80,60 L80,62 L79,62 L79,63 L78,63 L78,65 L77,65 L77,67 L76,67 L76,69 L75,69 L75,70 L74,70 L74,72 L73,72 L73,73 L72,73 L72,75 L71,75 L71,76 L70,76 L70,77 L69,77 L69,78 L68,78 L68,79 L67,79 L67,80 L66,80 L66,81 L65,81 L65,84 L66,84 L66,85 L67,85 L67,86 L69,86 L69,87 L70,87 L70,88 L72,88 L72,89 L73,89 L73,90 L75,90 L75,91 L77,91 L77,92 L79,92 L79,93 L82,93 L82,94 L84,94 L84,95 L87,95 L87,96 L89,96 L89,98 L88,98 L88,100 L87,100 L87,102 L86,102 L86,104 L85,104 L85,107 L81,107 L81,106 L80,106 L80,105 L76,105 L76,104 L74,104 L74,103 L73,103 L73,102 L71,102 L71,101 L69,101 L69,100 L67,100 L67,99 L66,99 L66,98 L64,98 L64,97 L63,97 L63,96 L62,96 L62,95 L60,95 L60,94 L59,94 L59,93 L58,93 L58,92 L57,92 L57,91 L54,91 L54,92 L52,92 L52,93 L51,93 L51,94 L49,94 L49,95 L48,95 L48,96 L46,96 L46,97 L45,97 L45,98 L43,98 L43,99 L41,99 L41,100 L39,100 L39,101 L37,101 L37,102 L35,102 L35,103 L33,103 L33,104 L30,104 L30,105 L28,105 L28,106 L24,106 L24,107 L21,107 L21,106 L20,106 L20,105 L19,105 L19,103 L18,103 L18,101 L17,101 L17,100 L16,100 L16,98 L15,98 L15,96 L19,96 L19,95 L22,95 L22,94 L25,94 L25,93 L27,93 L27,92 L30,92 L30,91 L32,91 L32,90 L34,90 L34,89 L36,89 L36,88 L38,88 L38,87 L40,87 L40,86 L42,86 L42,85 L43,85 L43,84 L45,84 L45,83 L47,83 L47,81 L46,81 L46,80 L45,80 L45,79 L44,79 L44,78 L43,78 L43,77 L42,77 L42,75 L41,75 L41,74 L40,74 L40,73 L39,73 L39,71 L38,71 L38,70 L37,70 L37,68 L36,68 L36,67 L35,67 L35,65 L34,65 L34,63 L33,63 L33,62 L32,62 L32,60 L31,60 L31,59 L30,59 L30,57 L33,57 L33,56 L36,56 L36,55 L38,55 L38,54 L40,54 L40,55 L41,55 L41,57 L42,57 L42,58 L43,58 L43,60 L44,60 L44,61 L45,61 L45,63 L46,63 L46,65 L47,65 L47,66 L48,66 L48,67 L49,67 L49,69 L50,69 L50,70 L51,70 L51,71 L52,71 L52,72 L53,72 L53,73 L54,73 L54,75 L57,75 L57,74 L58,74 L58,73 L59,73 L59,72 L60,72 L60,71 L61,71 L61,70 L62,70 L62,69 L63,69 L63,68 L64,68 L64,66 L65,66 L65,65 L66,65 L66,63 L67,63 L67,62 L68,62 L68,60 L69,60 L69,58 L70,58 L70,55 L71,55 L71,54 L72,54 L72,52 L27,52 L27,42 L49,42 L49,27 L25,27 L25,34 L12,34 L12,53 L16,53 L16,52 L17,52 L17,51 L20,51 L20,50 L23,50 L23,49 L25,49 L25,60 L24,60 L24,61 L22,61 L22,62 L19,62 L19,63 L17,63 L17,64 L14,64 L14,65 L12,65 L12,99 L11,99 L11,101 L10,101 L10,104 L9,104 L9,105 L8,105 L8,106 L6,106 L6,107 L-11,107 L-11,102 L-12,102 L-12,98 L-13,98 L-13,95 L-1,95 L-1,94 L0,94 L0,69 L-4,69 L-4,70 L-8,70 L-8,71 L-11,71 L-11,72 L-16,72 L-16,66 L-17,66 L-17,60 L-10,60 L-10,59 L-6,59 L-6,58 L-3,58 L-3,57 L0,57 L0,34 L-17,34 L-17,23 L0,23 Z " transform="translate(934,652)" style="fill: #093F79;"/><path d="M0,0 L25,0 L25,1 L32,1 L32,2 L35,2 L35,3 L38,3 L38,4 L41,4 L41,5 L43,5 L43,6 L45,6 L45,7 L47,7 L47,8 L48,8 L48,9 L49,9 L49,10 L50,10 L50,11 L52,11 L52,12 L53,12 L53,13 L54,13 L54,14 L55,14 L55,15 L56,15 L56,17 L57,17 L57,18 L58,18 L58,20 L59,20 L59,21 L60,21 L60,23 L61,23 L61,25 L62,25 L62,28 L63,28 L63,34 L64,34 L64,50 L63,50 L63,52 L62,52 L62,55 L61,55 L61,59 L60,59 L60,61 L59,61 L59,63 L58,63 L58,65 L57,65 L57,66 L56,66 L56,67 L55,67 L55,69 L54,69 L54,70 L53,70 L53,71 L52,71 L52,72 L51,72 L51,73 L50,73 L50,74 L48,74 L48,75 L47,75 L47,76 L45,76 L45,77 L43,77 L43,78 L42,78 L42,79 L39,79 L39,80 L37,80 L37,81 L33,81 L33,82 L30,82 L30,83 L0,83 Z " transform="translate(657,1070)" style="fill: #FAFBFC;"/><path d="M0,0 L12,0 L12,29 L60,29 L60,41 L23,41 L23,43 L24,43 L24,46 L25,46 L25,49 L26,49 L26,52 L27,52 L27,54 L28,54 L28,57 L29,57 L29,59 L30,59 L30,61 L31,61 L31,63 L32,63 L32,65 L33,65 L33,66 L34,66 L34,68 L35,68 L35,70 L36,70 L36,71 L37,71 L37,73 L38,73 L38,74 L39,74 L39,75 L40,75 L40,77 L41,77 L41,78 L42,78 L42,79 L43,79 L43,80 L44,80 L44,82 L45,82 L45,83 L46,83 L46,84 L47,84 L47,85 L48,85 L48,86 L49,86 L49,87 L50,87 L50,88 L51,88 L51,89 L53,89 L53,90 L54,90 L54,91 L55,91 L55,92 L57,92 L57,93 L58,93 L58,94 L59,94 L59,95 L61,95 L61,96 L62,96 L62,97 L61,97 L61,98 L60,98 L60,99 L59,99 L59,101 L58,101 L58,102 L57,102 L57,103 L56,103 L56,104 L55,104 L55,106 L54,106 L54,107 L52,107 L52,106 L51,106 L51,105 L49,105 L49,104 L48,104 L48,103 L47,103 L47,102 L45,102 L45,101 L44,101 L44,100 L43,100 L43,99 L42,99 L42,98 L41,98 L41,97 L40,97 L40,96 L39,96 L39,95 L38,95 L38,94 L37,94 L37,93 L36,93 L36,92 L35,92 L35,90 L34,90 L34,89 L33,89 L33,88 L32,88 L32,87 L31,87 L31,85 L30,85 L30,84 L29,84 L29,82 L28,82 L28,81 L27,81 L27,79 L26,79 L26,77 L25,77 L25,76 L24,76 L24,74 L23,74 L23,72 L22,72 L22,70 L21,70 L21,68 L20,68 L20,66 L19,66 L19,63 L18,63 L18,61 L17,61 L17,58 L16,58 L16,57 L15,57 L15,53 L14,53 L14,50 L13,50 L13,45 L12,45 L12,42 L11,42 L11,41 L9,41 L9,44 L8,44 L8,48 L7,48 L7,52 L6,52 L6,56 L5,56 L5,58 L4,58 L4,61 L3,61 L3,63 L2,63 L2,65 L1,65 L1,67 L0,67 L0,69 L-1,69 L-1,71 L-2,71 L-2,73 L-3,73 L-3,74 L-4,74 L-4,76 L-5,76 L-5,77 L-6,77 L-6,79 L-7,79 L-7,80 L-8,80 L-8,82 L-9,82 L-9,83 L-10,83 L-10,84 L-11,84 L-11,85 L-12,85 L-12,87 L-13,87 L-13,88 L-14,88 L-14,89 L-15,89 L-15,90 L-16,90 L-16,91 L-17,91 L-17,92 L-18,92 L-18,93 L-19,93 L-19,94 L-20,94 L-20,95 L-21,95 L-21,96 L-22,96 L-22,97 L-24,97 L-24,98 L-25,98 L-25,99 L-26,99 L-26,100 L-27,100 L-27,101 L-29,101 L-29,102 L-30,102 L-30,103 L-31,103 L-31,104 L-32,104 L-32,105 L-34,105 L-34,106 L-35,106 L-35,107 L-37,107 L-37,106 L-38,106 L-38,105 L-39,105 L-39,104 L-40,104 L-40,102 L-41,102 L-41,101 L-42,101 L-42,100 L-43,100 L-43,98 L-44,98 L-44,97 L-45,97 L-45,96 L-44,96 L-44,95 L-43,95 L-43,94 L-41,94 L-41,93 L-40,93 L-40,92 L-38,92 L-38,91 L-37,91 L-37,90 L-35,90 L-35,89 L-34,89 L-34,88 L-33,88 L-33,87 L-31,87 L-31,86 L-30,86 L-30,85 L-29,85 L-29,84 L-28,84 L-28,83 L-27,83 L-27,82 L-26,82 L-26,81 L-25,81 L-25,80 L-24,80 L-24,79 L-23,79 L-23,78 L-22,78 L-22,77 L-21,77 L-21,75 L-20,75 L-20,74 L-19,74 L-19,73 L-18,73 L-18,72 L-17,72 L-17,70 L-16,70 L-16,69 L-15,69 L-15,68 L-14,68 L-14,66 L-13,66 L-13,64 L-12,64 L-12,63 L-11,63 L-11,61 L-10,61 L-10,59 L-9,59 L-9,57 L-8,57 L-8,55 L-7,55 L-7,52 L-6,52 L-6,49 L-5,49 L-5,46 L-4,46 L-4,41 L-43,41 L-43,29 L-1,29 L-1,19 L0,19 Z " transform="translate(1107,652)" style="fill: #063D77;"/><path d="M0,0 L2,0 L2,1 L3,1 L3,3 L4,3 L4,5 L5,5 L5,6 L6,6 L6,9 L4,9 L4,10 L0,10 L0,11 L-13,11 L-13,17 L5,17 L5,26 L-13,26 L-13,31 L5,31 L5,40 L-12,40 L-12,47 L59,47 L59,40 L43,40 L43,32 L59,32 L59,25 L43,25 L43,18 L60,18 L60,11 L41,11 L41,2 L70,2 L70,35 L69,35 L69,47 L75,47 L75,73 L64,73 L64,56 L-18,56 L-18,73 L-28,73 L-28,47 L-23,47 L-23,3 L-9,3 L-9,2 L-3,2 L-3,1 L0,1 Z " transform="translate(1238,653)" style="fill: #0C417A;"/><path d="M0,0 L63,0 L63,1 L64,1 L64,3 L65,3 L65,5 L66,5 L66,7 L67,7 L67,8 L68,8 L68,10 L69,10 L69,12 L70,12 L70,13 L71,13 L71,15 L72,15 L72,17 L73,17 L73,19 L74,19 L74,21 L75,21 L75,22 L76,22 L76,24 L77,24 L77,26 L78,26 L78,27 L79,27 L79,29 L80,29 L80,31 L81,31 L81,33 L82,33 L82,34 L84,34 L84,32 L85,32 L85,31 L86,31 L86,29 L87,29 L87,27 L88,27 L88,25 L89,25 L89,23 L90,23 L90,22 L91,22 L91,20 L92,20 L92,18 L93,18 L93,17 L94,17 L94,15 L95,15 L95,13 L96,13 L96,11 L97,11 L97,9 L98,9 L98,8 L99,8 L99,6 L100,6 L100,4 L101,4 L101,3 L102,3 L102,1 L103,1 L103,0 L115,0 L115,1 L114,1 L114,3 L113,3 L113,5 L112,5 L112,7 L111,7 L111,8 L110,8 L110,10 L109,10 L109,12 L108,12 L108,14 L107,14 L107,15 L106,15 L106,17 L105,17 L105,19 L104,19 L104,20 L103,20 L103,22 L102,22 L102,24 L101,24 L101,26 L100,26 L100,27 L99,27 L99,29 L98,29 L98,31 L97,31 L97,32 L96,32 L96,34 L95,34 L95,36 L94,36 L94,38 L93,38 L93,40 L92,40 L92,41 L91,41 L91,43 L90,43 L90,45 L89,45 L89,46 L88,46 L88,83 L78,83 L78,47 L77,47 L77,45 L76,45 L76,43 L75,43 L75,42 L74,42 L74,40 L73,40 L73,38 L72,38 L72,36 L71,36 L71,35 L70,35 L70,33 L69,33 L69,31 L68,31 L68,30 L67,30 L67,28 L66,28 L66,26 L65,26 L65,24 L64,24 L64,23 L63,23 L63,21 L62,21 L62,19 L61,19 L61,17 L60,17 L60,16 L59,16 L59,14 L58,14 L58,12 L57,12 L57,10 L56,10 L56,9 L55,9 L55,7 L54,7 L54,5 L53,5 L53,4 L52,4 L52,2 L51,2 L51,1 L50,1 L50,9 L30,9 L30,84 L19,84 L19,10 L0,10 Z " transform="translate(953,937)" style="fill: #073D78;"/><path d="M0,0 L24,0 L24,1 L30,1 L30,2 L33,2 L33,3 L34,3 L34,4 L36,4 L36,5 L37,5 L37,6 L38,6 L38,7 L39,7 L39,8 L40,8 L40,9 L41,9 L41,10 L42,10 L42,12 L43,12 L43,14 L44,14 L44,16 L45,16 L45,31 L44,31 L44,33 L43,33 L43,35 L42,35 L42,37 L41,37 L41,38 L40,38 L40,39 L39,39 L39,41 L38,41 L38,42 L36,42 L36,43 L35,43 L35,44 L33,44 L33,45 L31,45 L31,46 L29,46 L29,47 L26,47 L26,49 L27,49 L27,50 L28,50 L28,51 L29,51 L29,53 L30,53 L30,54 L31,54 L31,55 L32,55 L32,57 L33,57 L33,58 L34,58 L34,59 L35,59 L35,61 L36,61 L36,62 L37,62 L37,64 L38,64 L38,65 L39,65 L39,66 L40,66 L40,68 L41,68 L41,69 L42,69 L42,71 L43,71 L43,72 L44,72 L44,73 L45,73 L45,75 L46,75 L46,76 L47,76 L47,77 L48,77 L48,79 L49,79 L49,80 L50,80 L50,82 L51,82 L51,83 L38,83 L38,82 L37,82 L37,80 L36,80 L36,79 L35,79 L35,77 L34,77 L34,76 L33,76 L33,74 L32,74 L32,73 L31,73 L31,71 L30,71 L30,70 L29,70 L29,69 L28,69 L28,67 L27,67 L27,66 L26,66 L26,64 L25,64 L25,63 L24,63 L24,61 L23,61 L23,60 L22,60 L22,59 L21,59 L21,57 L20,57 L20,56 L19,56 L19,54 L18,54 L18,53 L17,53 L17,51 L16,51 L16,50 L15,50 L15,48 L10,48 L10,83 L0,83 Z " transform="translate(812,937)" style="fill: #053B76;"/><path d="M0,0 L2,0 L2,2 L3,2 L3,3 L4,3 L4,4 L5,4 L5,5 L6,5 L6,6 L7,6 L7,7 L8,7 L8,8 L9,8 L9,9 L10,9 L10,10 L11,10 L11,11 L12,11 L12,12 L13,12 L13,13 L14,13 L14,14 L15,14 L15,15 L16,15 L16,16 L17,16 L17,17 L18,17 L18,18 L19,18 L19,20 L20,20 L20,21 L21,21 L21,22 L22,22 L22,23 L23,23 L23,24 L24,24 L24,25 L25,25 L25,26 L26,26 L26,27 L27,27 L27,28 L28,28 L28,29 L29,29 L29,30 L30,30 L30,31 L31,31 L31,32 L32,32 L32,33 L33,33 L33,34 L34,34 L34,35 L35,35 L35,36 L36,36 L36,37 L37,37 L37,38 L38,38 L38,39 L39,39 L39,40 L40,40 L40,42 L41,42 L41,43 L42,43 L42,44 L43,44 L43,45 L44,45 L44,46 L45,46 L45,47 L46,47 L46,48 L47,48 L47,49 L48,49 L48,50 L49,50 L49,51 L50,51 L50,52 L51,52 L51,53 L52,53 L52,54 L53,54 L53,55 L54,55 L54,56 L55,56 L55,57 L56,57 L56,58 L57,58 L57,59 L58,59 L58,60 L59,60 L59,61 L60,61 L60,62 L61,62 L61,64 L63,64 L63,3 L74,3 L74,91 L73,91 L73,90 L72,90 L72,89 L71,89 L71,88 L70,88 L70,87 L69,87 L69,86 L68,86 L68,85 L67,85 L67,84 L66,84 L66,83 L65,83 L65,82 L64,82 L64,81 L63,81 L63,80 L62,80 L62,78 L61,78 L61,77 L60,77 L60,76 L59,76 L59,75 L58,75 L58,74 L57,74 L57,73 L56,73 L56,72 L55,72 L55,71 L54,71 L54,70 L53,70 L53,69 L52,69 L52,68 L51,68 L51,67 L50,67 L50,66 L49,66 L49,65 L48,65 L48,64 L47,64 L47,63 L46,63 L46,62 L45,62 L45,61 L44,61 L44,60 L43,60 L43,58 L42,58 L42,57 L41,57 L41,56 L40,56 L40,55 L39,55 L39,54 L38,54 L38,53 L37,53 L37,52 L36,52 L36,51 L35,51 L35,50 L34,50 L34,49 L33,49 L33,48 L32,48 L32,47 L31,47 L31,46 L30,46 L30,45 L29,45 L29,44 L28,44 L28,43 L27,43 L27,42 L26,42 L26,41 L25,41 L25,40 L24,40 L24,38 L23,38 L23,37 L21,37 L21,36 L20,36 L20,34 L19,34 L19,33 L18,33 L18,32 L17,32 L17,31 L16,31 L16,30 L15,30 L15,29 L14,29 L14,28 L13,28 L13,27 L12,27 L12,26 L11,26 L11,88 L0,88 Z " transform="translate(1025,1066)" style="fill: #0C417A;"/><path d="M0,0 L1,0 L1,1 L2,1 L2,2 L3,2 L3,3 L4,3 L4,4 L5,4 L5,5 L6,5 L6,6 L7,6 L7,7 L8,7 L8,8 L9,8 L9,9 L10,9 L10,10 L11,10 L11,11 L12,11 L12,13 L13,13 L13,14 L14,14 L14,15 L15,15 L15,16 L16,16 L16,17 L17,17 L17,18 L18,18 L18,19 L19,19 L19,20 L20,20 L20,21 L21,21 L21,22 L22,22 L22,23 L23,23 L23,24 L24,24 L24,25 L25,25 L25,26 L26,26 L26,27 L27,27 L27,28 L28,28 L28,29 L29,29 L29,30 L30,30 L30,31 L31,31 L31,32 L32,32 L32,33 L33,33 L33,34 L34,34 L34,35 L35,35 L35,36 L36,36 L36,37 L37,37 L37,39 L38,39 L38,40 L39,40 L39,41 L40,41 L40,42 L41,42 L41,43 L42,43 L42,44 L43,44 L43,45 L44,45 L44,46 L45,46 L45,47 L46,47 L46,48 L47,48 L47,49 L48,49 L48,50 L49,50 L49,51 L50,51 L50,52 L51,52 L51,53 L52,53 L52,54 L53,54 L53,55 L54,55 L54,56 L55,56 L55,57 L56,57 L56,58 L57,58 L57,60 L58,60 L58,61 L59,61 L59,62 L60,62 L60,63 L61,63 L61,64 L62,64 L62,65 L63,65 L63,3 L74,3 L74,91 L72,91 L72,89 L71,89 L71,88 L70,88 L70,87 L69,87 L69,86 L68,86 L68,85 L67,85 L67,84 L66,84 L66,83 L65,83 L65,82 L64,82 L64,81 L63,81 L63,80 L62,80 L62,79 L61,79 L61,78 L60,78 L60,77 L59,77 L59,75 L58,75 L58,74 L57,74 L57,73 L56,73 L56,72 L55,72 L55,71 L54,71 L54,70 L53,70 L53,69 L52,69 L52,68 L51,68 L51,67 L50,67 L50,66 L49,66 L49,65 L48,65 L48,64 L47,64 L47,63 L46,63 L46,62 L45,62 L45,61 L44,61 L44,60 L43,60 L43,59 L42,59 L42,58 L41,58 L41,57 L40,57 L40,55 L39,55 L39,54 L38,54 L38,53 L37,53 L37,52 L36,52 L36,51 L35,51 L35,50 L34,50 L34,49 L33,49 L33,48 L32,48 L32,47 L31,47 L31,46 L30,46 L30,45 L29,45 L29,44 L28,44 L28,43 L27,43 L27,42 L26,42 L26,41 L25,41 L25,40 L24,40 L24,39 L23,39 L23,38 L22,38 L22,37 L21,37 L21,36 L20,36 L20,35 L19,35 L19,33 L18,33 L18,32 L17,32 L17,31 L16,31 L16,30 L15,30 L15,29 L14,29 L14,28 L13,28 L13,27 L12,27 L12,26 L11,26 L11,88 L0,88 Z " transform="translate(568,1066)" style="fill: #0C417A;"/><path d="M0,0 L2,0 L2,2 L3,2 L3,3 L4,3 L4,4 L5,4 L5,5 L6,5 L6,6 L7,6 L7,7 L8,7 L8,8 L9,8 L9,9 L10,9 L10,10 L11,10 L11,11 L12,11 L12,12 L13,12 L13,13 L14,13 L14,14 L15,14 L15,15 L16,15 L16,16 L17,16 L17,17 L18,17 L18,19 L19,19 L19,20 L20,20 L20,21 L21,21 L21,22 L22,22 L22,23 L23,23 L23,24 L24,24 L24,25 L25,25 L25,26 L26,26 L26,27 L27,27 L27,28 L28,28 L28,29 L29,29 L29,30 L30,30 L30,31 L31,31 L31,32 L32,32 L32,33 L33,33 L33,34 L34,34 L34,35 L35,35 L35,36 L36,36 L36,37 L37,37 L37,38 L38,38 L38,39 L39,39 L39,40 L40,40 L40,41 L41,41 L41,43 L42,43 L42,44 L43,44 L43,45 L44,45 L44,46 L45,46 L45,47 L46,47 L46,48 L47,48 L47,49 L48,49 L48,50 L49,50 L49,51 L50,51 L50,52 L51,52 L51,53 L52,53 L52,54 L53,54 L53,55 L54,55 L54,56 L55,56 L55,57 L56,57 L56,58 L57,58 L57,59 L58,59 L58,60 L59,60 L59,61 L60,61 L60,63 L61,63 L61,64 L63,64 L63,3 L74,3 L74,91 L73,91 L73,90 L72,90 L72,89 L71,89 L71,88 L70,88 L70,87 L69,87 L69,86 L68,86 L68,85 L67,85 L67,84 L66,84 L66,83 L65,83 L65,81 L64,81 L64,80 L63,80 L63,79 L62,79 L62,78 L61,78 L61,77 L60,77 L60,76 L59,76 L59,75 L58,75 L58,74 L57,74 L57,73 L56,73 L56,72 L55,72 L55,71 L54,71 L54,70 L53,70 L53,69 L52,69 L52,68 L51,68 L51,67 L50,67 L50,66 L49,66 L49,65 L48,65 L48,64 L47,64 L47,63 L46,63 L46,62 L45,62 L45,60 L43,60 L43,59 L42,59 L42,57 L41,57 L41,56 L40,56 L40,55 L39,55 L39,54 L38,54 L38,53 L37,53 L37,52 L36,52 L36,51 L35,51 L35,50 L34,50 L34,49 L33,49 L33,48 L32,48 L32,47 L31,47 L31,46 L30,46 L30,45 L29,45 L29,44 L28,44 L28,43 L27,43 L27,42 L26,42 L26,41 L25,41 L25,39 L24,39 L24,38 L23,38 L23,37 L22,37 L22,36 L21,36 L21,35 L20,35 L20,34 L19,34 L19,33 L18,33 L18,32 L17,32 L17,31 L16,31 L16,30 L15,30 L15,29 L14,29 L14,28 L13,28 L13,27 L12,27 L12,26 L11,26 L11,88 L0,88 Z " transform="translate(1247,800)" style="fill: #0B4079;"/><path d="M0,0 L2,0 L2,2 L3,2 L3,3 L4,3 L4,4 L5,4 L5,5 L6,5 L6,6 L7,6 L7,7 L8,7 L8,8 L9,8 L9,9 L10,9 L10,10 L11,10 L11,11 L12,11 L12,12 L13,12 L13,13 L14,13 L14,14 L15,14 L15,15 L16,15 L16,16 L17,16 L17,17 L18,17 L18,18 L19,18 L19,19 L20,19 L20,20 L21,20 L21,21 L22,21 L22,23 L23,23 L23,24 L24,24 L24,25 L25,25 L25,26 L26,26 L26,27 L27,27 L27,28 L28,28 L28,29 L29,29 L29,30 L30,30 L30,31 L31,31 L31,32 L32,32 L32,33 L33,33 L33,34 L34,34 L34,35 L35,35 L35,36 L36,36 L36,37 L37,37 L37,38 L38,38 L38,39 L39,39 L39,40 L40,40 L40,41 L41,41 L41,42 L42,42 L42,44 L43,44 L43,45 L44,45 L44,46 L45,46 L45,47 L46,47 L46,48 L47,48 L47,49 L48,49 L48,50 L49,50 L49,51 L50,51 L50,52 L51,52 L51,53 L52,53 L52,54 L53,54 L53,55 L54,55 L54,56 L55,56 L55,57 L56,57 L56,58 L57,58 L57,59 L58,59 L58,60 L59,60 L59,61 L60,61 L60,62 L61,62 L61,63 L62,63 L62,64 L63,64 L63,3 L74,3 L74,90 L72,90 L72,89 L71,89 L71,88 L70,88 L70,87 L69,87 L69,85 L68,85 L68,84 L67,84 L67,83 L66,83 L66,82 L65,82 L65,81 L64,81 L64,80 L63,80 L63,79 L62,79 L62,78 L61,78 L61,77 L60,77 L60,76 L59,76 L59,75 L58,75 L58,74 L57,74 L57,73 L56,73 L56,72 L55,72 L55,71 L54,71 L54,70 L53,70 L53,69 L52,69 L52,68 L51,68 L51,67 L50,67 L50,66 L49,66 L49,65 L48,65 L48,64 L47,64 L47,63 L46,63 L46,61 L45,61 L45,60 L44,60 L44,59 L43,59 L43,58 L42,58 L42,57 L41,57 L41,56 L40,56 L40,55 L39,55 L39,54 L38,54 L38,53 L37,53 L37,52 L36,52 L36,51 L35,51 L35,50 L34,50 L34,49 L33,49 L33,48 L32,48 L32,47 L31,47 L31,46 L30,46 L30,45 L29,45 L29,44 L28,44 L28,43 L27,43 L27,41 L26,41 L26,40 L25,40 L25,39 L24,39 L24,38 L23,38 L23,37 L22,37 L22,36 L21,36 L21,35 L20,35 L20,34 L19,34 L19,33 L18,33 L18,32 L17,32 L17,31 L16,31 L16,30 L15,30 L15,29 L14,29 L14,28 L13,28 L13,27 L12,27 L12,26 L11,26 L11,88 L0,88 Z " transform="translate(1509,933)" style="fill: #0C417A;"/><path d="M0,0 L2,0 L2,1 L3,1 L3,3 L4,3 L4,4 L5,4 L5,5 L6,5 L6,6 L7,6 L7,7 L8,7 L8,8 L9,8 L9,9 L10,9 L10,10 L11,10 L11,11 L12,11 L12,12 L13,12 L13,13 L14,13 L14,14 L15,14 L15,15 L16,15 L16,16 L17,16 L17,17 L18,17 L18,18 L19,18 L19,19 L20,19 L20,20 L21,20 L21,21 L22,21 L22,22 L23,22 L23,24 L24,24 L24,25 L25,25 L25,26 L26,26 L26,27 L27,27 L27,28 L28,28 L28,29 L29,29 L29,30 L30,30 L30,31 L31,31 L31,32 L32,32 L32,33 L33,33 L33,34 L34,34 L34,35 L35,35 L35,36 L36,36 L36,37 L37,37 L37,38 L38,38 L38,39 L39,39 L39,40 L40,40 L40,41 L41,41 L41,43 L42,43 L42,44 L43,44 L43,45 L44,45 L44,46 L45,46 L45,47 L46,47 L46,48 L47,48 L47,49 L48,49 L48,50 L49,50 L49,51 L50,51 L50,52 L51,52 L51,53 L52,53 L52,54 L53,54 L53,55 L54,55 L54,56 L55,56 L55,57 L56,57 L56,58 L57,58 L57,59 L58,59 L58,60 L59,60 L59,61 L60,61 L60,62 L61,62 L61,63 L62,63 L62,64 L63,64 L63,4 L74,4 L74,91 L73,91 L73,90 L72,90 L72,89 L71,89 L71,88 L70,88 L70,87 L69,87 L69,86 L68,86 L68,85 L67,85 L67,84 L66,84 L66,83 L65,83 L65,81 L64,81 L64,80 L63,80 L63,79 L62,79 L62,78 L61,78 L61,77 L60,77 L60,76 L59,76 L59,75 L58,75 L58,74 L57,74 L57,73 L56,73 L56,72 L55,72 L55,71 L54,71 L54,70 L53,70 L53,69 L52,69 L52,68 L51,68 L51,67 L50,67 L50,66 L49,66 L49,65 L48,65 L48,64 L47,64 L47,62 L46,62 L46,61 L45,61 L45,60 L44,60 L44,59 L43,59 L43,58 L42,58 L42,57 L41,57 L41,56 L40,56 L40,55 L39,55 L39,54 L38,54 L38,53 L37,53 L37,52 L36,52 L36,51 L35,51 L35,50 L34,50 L34,49 L33,49 L33,48 L32,48 L32,47 L31,47 L31,46 L30,46 L30,45 L29,45 L29,44 L28,44 L28,42 L27,42 L27,41 L25,41 L25,39 L24,39 L24,38 L23,38 L23,37 L22,37 L22,36 L21,36 L21,35 L20,35 L20,34 L19,34 L19,33 L18,33 L18,32 L17,32 L17,31 L16,31 L16,30 L15,30 L15,29 L14,29 L14,28 L13,28 L13,27 L12,27 L12,26 L11,26 L11,88 L0,88 Z " transform="translate(564,933)" style="fill: #0A3F79;"/><path d="M0,0 L2,0 L2,1 L3,1 L3,3 L4,3 L4,6 L5,6 L5,8 L6,8 L6,10 L7,10 L7,12 L8,12 L8,14 L9,14 L9,16 L10,16 L10,19 L11,19 L11,21 L12,21 L12,23 L13,23 L13,26 L14,26 L14,28 L15,28 L15,30 L16,30 L16,32 L17,32 L17,34 L18,34 L18,36 L19,36 L19,38 L20,38 L20,41 L21,41 L21,43 L22,43 L22,45 L23,45 L23,47 L24,47 L24,49 L25,49 L25,51 L26,51 L26,55 L27,55 L27,56 L28,56 L28,58 L29,58 L29,60 L30,60 L30,63 L31,63 L31,65 L32,65 L32,67 L33,67 L33,69 L34,69 L34,71 L35,71 L35,73 L36,73 L36,76 L37,76 L37,78 L38,78 L38,80 L39,80 L39,82 L40,82 L40,84 L41,84 L41,87 L30,87 L30,86 L29,86 L29,84 L28,84 L28,81 L27,81 L27,79 L26,79 L26,77 L25,77 L25,74 L24,74 L24,72 L23,72 L23,70 L22,70 L22,68 L21,68 L21,66 L-19,66 L-19,69 L-20,69 L-20,71 L-21,71 L-21,73 L-22,73 L-22,76 L-23,76 L-23,78 L-24,78 L-24,80 L-25,80 L-25,82 L-26,82 L-26,84 L-27,84 L-27,86 L-38,86 L-38,83 L-37,83 L-37,81 L-36,81 L-36,79 L-35,79 L-35,77 L-34,77 L-34,74 L-33,74 L-33,72 L-32,72 L-32,70 L-31,70 L-31,68 L-30,68 L-30,66 L-29,66 L-29,63 L-28,63 L-28,61 L-27,61 L-27,59 L-26,59 L-26,57 L-25,57 L-25,55 L-24,55 L-24,53 L-23,53 L-23,50 L-22,50 L-22,48 L-21,48 L-21,46 L-20,46 L-20,44 L-19,44 L-19,42 L-18,42 L-18,40 L-17,40 L-17,37 L-16,37 L-16,35 L-15,35 L-15,33 L-14,33 L-14,32 L-13,32 L-13,28 L-12,28 L-12,26 L-11,26 L-11,24 L-10,24 L-10,22 L-9,22 L-9,20 L-8,20 L-8,18 L-7,18 L-7,16 L-6,16 L-6,13 L-5,13 L-5,11 L-4,11 L-4,9 L-3,9 L-3,7 L-2,7 L-2,5 L-1,5 L-1,3 L0,3 Z " transform="translate(520,1067)" style="fill: #093F79;"/><path d="M0,0 L16,0 L16,1 L20,1 L20,2 L22,2 L22,3 L25,3 L25,4 L27,4 L27,5 L29,5 L29,6 L31,6 L31,7 L33,7 L33,8 L34,8 L34,9 L35,9 L35,10 L36,10 L36,11 L38,11 L38,12 L39,12 L39,13 L40,13 L40,14 L41,14 L41,15 L42,15 L42,17 L43,17 L43,18 L44,18 L44,20 L45,20 L45,21 L46,21 L46,23 L47,23 L47,25 L48,25 L48,27 L49,27 L49,29 L50,29 L50,32 L51,32 L51,35 L52,35 L52,52 L51,52 L51,56 L50,56 L50,58 L49,58 L49,60 L48,60 L48,63 L47,63 L47,64 L46,64 L46,66 L45,66 L45,68 L44,68 L44,69 L43,69 L43,71 L42,71 L42,72 L41,72 L41,73 L40,73 L40,74 L39,74 L39,75 L38,75 L38,76 L37,76 L37,77 L36,77 L36,78 L35,78 L35,79 L33,79 L33,80 L32,80 L32,81 L30,81 L30,82 L28,82 L28,83 L25,83 L25,84 L23,84 L23,85 L20,85 L20,86 L17,86 L17,87 L-1,87 L-1,86 L-4,86 L-4,85 L-7,85 L-7,84 L-11,84 L-11,83 L-13,83 L-13,82 L-15,82 L-15,81 L-16,81 L-16,80 L-18,80 L-18,79 L-19,79 L-19,78 L-20,78 L-20,77 L-21,77 L-21,76 L-23,76 L-23,75 L-24,75 L-24,74 L-25,74 L-25,72 L-26,72 L-26,71 L-27,71 L-27,70 L-28,70 L-28,68 L-29,68 L-29,67 L-30,67 L-30,65 L-31,65 L-31,63 L-32,63 L-32,61 L-33,61 L-33,58 L-34,58 L-34,56 L-35,56 L-35,51 L-36,51 L-36,34 L-35,34 L-35,31 L-34,31 L-34,28 L-33,28 L-33,26 L-32,26 L-32,24 L-31,24 L-31,22 L-30,22 L-30,20 L-29,20 L-29,19 L-28,19 L-28,18 L-27,18 L-27,16 L-26,16 L-26,15 L-25,15 L-25,14 L-24,14 L-24,13 L-23,13 L-23,12 L-22,12 L-22,11 L-21,11 L-21,10 L-20,10 L-20,9 L-18,9 L-18,8 L-17,8 L-17,7 L-16,7 L-16,6 L-14,6 L-14,5 L-12,5 L-12,4 L-11,4 L-11,3 L-8,3 L-8,2 L-4,2 L-4,1 L0,1 Z M0,10 L0,11 L-4,11 L-4,12 L-6,12 L-6,13 L-8,13 L-8,14 L-10,14 L-10,15 L-11,15 L-11,16 L-12,16 L-12,17 L-14,17 L-14,18 L-15,18 L-15,19 L-16,19 L-16,20 L-17,20 L-17,21 L-18,21 L-18,22 L-19,22 L-19,24 L-20,24 L-20,25 L-21,25 L-21,27 L-22,27 L-22,29 L-23,29 L-23,31 L-24,31 L-24,34 L-25,34 L-25,51 L-24,51 L-24,55 L-23,55 L-23,57 L-22,57 L-22,59 L-21,59 L-21,61 L-20,61 L-20,63 L-19,63 L-19,64 L-18,64 L-18,65 L-17,65 L-17,67 L-16,67 L-16,68 L-15,68 L-15,69 L-14,69 L-14,70 L-12,70 L-12,71 L-11,71 L-11,72 L-9,72 L-9,73 L-8,73 L-8,74 L-6,74 L-6,75 L-2,75 L-2,76 L3,76 L3,77 L14,77 L14,76 L17,76 L17,75 L20,75 L20,74 L23,74 L23,73 L25,73 L25,72 L26,72 L26,71 L28,71 L28,70 L29,70 L29,69 L30,69 L30,68 L31,68 L31,67 L32,67 L32,66 L33,66 L33,65 L34,65 L34,63 L35,63 L35,62 L36,62 L36,60 L37,60 L37,58 L38,58 L38,56 L39,56 L39,53 L40,53 L40,51 L41,51 L41,35 L40,35 L40,32 L39,32 L39,30 L38,30 L38,28 L37,28 L37,26 L36,26 L36,24 L35,24 L35,23 L34,23 L34,22 L33,22 L33,21 L32,21 L32,20 L31,20 L31,19 L30,19 L30,18 L29,18 L29,17 L28,17 L28,16 L27,16 L27,15 L25,15 L25,14 L23,14 L23,13 L20,13 L20,12 L17,12 L17,11 L15,11 L15,10 Z " transform="translate(1140,935)" style="fill: #093E79;"/><path d="M0,0 L16,0 L16,1 L20,1 L20,2 L23,2 L23,3 L26,3 L26,4 L28,4 L28,5 L30,5 L30,6 L32,6 L32,7 L34,7 L34,8 L35,8 L35,9 L36,9 L36,10 L37,10 L37,11 L39,11 L39,12 L40,12 L40,13 L41,13 L41,14 L42,14 L42,15 L43,15 L43,17 L44,17 L44,18 L45,18 L45,19 L46,19 L46,21 L47,21 L47,23 L48,23 L48,25 L49,25 L49,27 L50,27 L50,29 L51,29 L51,32 L52,32 L52,35 L53,35 L53,51 L52,51 L52,54 L51,54 L51,57 L50,57 L50,60 L49,60 L49,62 L48,62 L48,64 L47,64 L47,66 L46,66 L46,68 L45,68 L45,69 L44,69 L44,71 L43,71 L43,72 L42,72 L42,73 L41,73 L41,74 L40,74 L40,75 L39,75 L39,76 L38,76 L38,77 L37,77 L37,78 L36,78 L36,79 L34,79 L34,80 L33,80 L33,81 L31,81 L31,82 L29,82 L29,83 L26,83 L26,84 L24,84 L24,85 L20,85 L20,86 L18,86 L18,87 L-1,87 L-1,86 L-3,86 L-3,85 L-7,85 L-7,84 L-10,84 L-10,83 L-12,83 L-12,82 L-14,82 L-14,81 L-15,81 L-15,80 L-17,80 L-17,79 L-18,79 L-18,78 L-19,78 L-19,77 L-20,77 L-20,76 L-21,76 L-21,75 L-22,75 L-22,74 L-23,74 L-23,73 L-24,73 L-24,72 L-25,72 L-25,71 L-26,71 L-26,70 L-27,70 L-27,68 L-28,68 L-28,67 L-29,67 L-29,65 L-30,65 L-30,63 L-31,63 L-31,61 L-32,61 L-32,59 L-33,59 L-33,58 L-34,58 L-34,51 L-35,51 L-35,35 L-34,35 L-34,32 L-33,32 L-33,28 L-32,28 L-32,26 L-31,26 L-31,24 L-30,24 L-30,22 L-29,22 L-29,20 L-28,20 L-28,19 L-27,19 L-27,17 L-26,17 L-26,16 L-25,16 L-25,15 L-24,15 L-24,14 L-23,14 L-23,13 L-22,13 L-22,12 L-21,12 L-21,11 L-20,11 L-20,10 L-19,10 L-19,9 L-17,9 L-17,8 L-16,8 L-16,7 L-15,7 L-15,6 L-13,6 L-13,5 L-12,5 L-12,4 L-8,4 L-8,3 L-6,3 L-6,2 L-3,2 L-3,1 L0,1 Z M1,10 L1,11 L-3,11 L-3,12 L-5,12 L-5,13 L-7,13 L-7,14 L-9,14 L-9,15 L-10,15 L-10,16 L-11,16 L-11,17 L-13,17 L-13,18 L-14,18 L-14,19 L-15,19 L-15,20 L-16,20 L-16,21 L-17,21 L-17,22 L-18,22 L-18,24 L-19,24 L-19,25 L-20,25 L-20,27 L-21,27 L-21,29 L-22,29 L-22,31 L-23,31 L-23,34 L-24,34 L-24,52 L-23,52 L-23,54 L-22,54 L-22,57 L-21,57 L-21,59 L-20,59 L-20,61 L-19,61 L-19,63 L-18,63 L-18,64 L-17,64 L-17,65 L-16,65 L-16,66 L-15,66 L-15,67 L-14,67 L-14,68 L-13,68 L-13,69 L-12,69 L-12,70 L-11,70 L-11,71 L-10,71 L-10,72 L-8,72 L-8,73 L-7,73 L-7,74 L-5,74 L-5,75 L-1,75 L-1,76 L2,76 L2,77 L14,77 L14,76 L18,76 L18,75 L21,75 L21,74 L24,74 L24,73 L26,73 L26,72 L27,72 L27,71 L29,71 L29,70 L30,70 L30,69 L31,69 L31,68 L32,68 L32,67 L33,67 L33,66 L34,66 L34,65 L35,65 L35,63 L36,63 L36,62 L37,62 L37,60 L38,60 L38,58 L39,58 L39,56 L40,56 L40,53 L41,53 L41,50 L42,50 L42,35 L41,35 L41,34 L40,34 L40,30 L39,30 L39,28 L38,28 L38,26 L37,26 L37,24 L36,24 L36,23 L35,23 L35,22 L34,22 L34,21 L33,21 L33,20 L32,20 L32,19 L31,19 L31,18 L30,18 L30,17 L29,17 L29,16 L28,16 L28,15 L26,15 L26,14 L24,14 L24,13 L23,13 L23,12 L20,12 L20,11 L16,11 L16,10 Z " transform="translate(815,802)" style="fill: #093E78;"/><path d="M0,0 L16,0 L16,1 L20,1 L20,2 L23,2 L23,3 L25,3 L25,4 L28,4 L28,5 L30,5 L30,6 L32,6 L32,7 L33,7 L33,8 L35,8 L35,9 L36,9 L36,10 L37,10 L37,11 L38,11 L38,12 L39,12 L39,13 L40,13 L40,14 L41,14 L41,15 L42,15 L42,16 L43,16 L43,17 L44,17 L44,18 L45,18 L45,20 L46,20 L46,21 L47,21 L47,23 L48,23 L48,25 L49,25 L49,27 L50,27 L50,30 L51,30 L51,33 L52,33 L52,54 L51,54 L51,56 L50,56 L50,59 L49,59 L49,62 L48,62 L48,64 L47,64 L47,66 L46,66 L46,68 L45,68 L45,69 L44,69 L44,71 L43,71 L43,72 L42,72 L42,73 L41,73 L41,74 L40,74 L40,75 L39,75 L39,76 L38,76 L38,77 L37,77 L37,78 L35,78 L35,79 L34,79 L34,80 L33,80 L33,81 L31,81 L31,82 L29,82 L29,83 L26,83 L26,84 L24,84 L24,85 L22,85 L22,86 L17,86 L17,87 L-1,87 L-1,86 L-4,86 L-4,85 L-7,85 L-7,84 L-10,84 L-10,83 L-12,83 L-12,82 L-14,82 L-14,81 L-16,81 L-16,80 L-17,80 L-17,79 L-18,79 L-18,78 L-20,78 L-20,77 L-21,77 L-21,76 L-22,76 L-22,75 L-23,75 L-23,74 L-24,74 L-24,72 L-25,72 L-25,71 L-26,71 L-26,70 L-27,70 L-27,69 L-28,69 L-28,68 L-29,68 L-29,66 L-30,66 L-30,64 L-31,64 L-31,61 L-32,61 L-32,59 L-33,59 L-33,55 L-34,55 L-34,52 L-35,52 L-35,34 L-34,34 L-34,31 L-33,31 L-33,29 L-32,29 L-32,25 L-31,25 L-31,23 L-30,23 L-30,22 L-29,22 L-29,20 L-28,20 L-28,19 L-27,19 L-27,17 L-26,17 L-26,16 L-25,16 L-25,15 L-24,15 L-24,14 L-23,14 L-23,13 L-22,13 L-22,12 L-21,12 L-21,11 L-20,11 L-20,10 L-19,10 L-19,9 L-18,9 L-18,8 L-16,8 L-16,7 L-15,7 L-15,6 L-13,6 L-13,5 L-12,5 L-12,4 L-9,4 L-9,3 L-7,3 L-7,2 L-4,2 L-4,1 L0,1 Z M1,10 L1,11 L-1,11 L-1,12 L-5,12 L-5,13 L-7,13 L-7,14 L-9,14 L-9,15 L-10,15 L-10,16 L-12,16 L-12,17 L-13,17 L-13,18 L-14,18 L-14,19 L-15,19 L-15,20 L-16,20 L-16,21 L-17,21 L-17,22 L-18,22 L-18,24 L-19,24 L-19,25 L-20,25 L-20,27 L-21,27 L-21,29 L-22,29 L-22,31 L-23,31 L-23,37 L-24,37 L-24,52 L-23,52 L-23,56 L-22,56 L-22,58 L-21,58 L-21,60 L-20,60 L-20,62 L-19,62 L-19,63 L-18,63 L-18,64 L-17,64 L-17,65 L-16,65 L-16,67 L-15,67 L-15,68 L-14,68 L-14,69 L-13,69 L-13,70 L-11,70 L-11,71 L-10,71 L-10,72 L-9,72 L-9,73 L-7,73 L-7,74 L-5,74 L-5,75 L-3,75 L-3,76 L1,76 L1,77 L14,77 L14,76 L18,76 L18,75 L21,75 L21,74 L24,74 L24,73 L26,73 L26,72 L27,72 L27,71 L29,71 L29,70 L30,70 L30,69 L31,69 L31,68 L32,68 L32,67 L33,67 L33,66 L34,66 L34,65 L35,65 L35,63 L36,63 L36,62 L37,62 L37,60 L38,60 L38,58 L39,58 L39,55 L40,55 L40,53 L41,53 L41,48 L42,48 L42,37 L41,37 L41,34 L40,34 L40,32 L39,32 L39,28 L38,28 L38,26 L37,26 L37,25 L36,25 L36,23 L35,23 L35,22 L34,22 L34,21 L33,21 L33,20 L32,20 L32,19 L31,19 L31,18 L30,18 L30,17 L29,17 L29,16 L27,16 L27,15 L26,15 L26,14 L23,14 L23,13 L21,13 L21,12 L19,12 L19,11 L13,11 L13,10 Z " transform="translate(1144,1068)" style="fill: #083E78;"/><path d="M0,0 L16,0 L16,1 L20,1 L20,2 L24,2 L24,3 L26,3 L26,4 L28,4 L28,5 L30,5 L30,6 L32,6 L32,7 L34,7 L34,8 L35,8 L35,9 L37,9 L37,10 L38,10 L38,11 L39,11 L39,12 L40,12 L40,13 L41,13 L41,14 L42,14 L42,15 L43,15 L43,16 L44,16 L44,17 L45,17 L45,19 L46,19 L46,20 L47,20 L47,22 L48,22 L48,24 L49,24 L49,26 L50,26 L50,28 L51,28 L51,30 L52,30 L52,33 L53,33 L53,51 L52,51 L52,54 L51,54 L51,60 L50,60 L50,62 L49,62 L49,64 L48,64 L48,65 L47,65 L47,67 L46,67 L46,69 L45,69 L45,70 L44,70 L44,72 L43,72 L43,73 L42,73 L42,74 L41,74 L41,75 L40,75 L40,76 L39,76 L39,77 L37,77 L37,78 L36,78 L36,79 L35,79 L35,80 L33,80 L33,81 L32,81 L32,82 L30,82 L30,83 L27,83 L27,84 L24,84 L24,85 L21,85 L21,86 L17,86 L17,87 L0,87 L0,86 L-3,86 L-3,85 L-6,85 L-6,84 L-10,84 L-10,83 L-12,83 L-12,82 L-13,82 L-13,81 L-15,81 L-15,80 L-16,80 L-16,79 L-18,79 L-18,78 L-19,78 L-19,77 L-20,77 L-20,76 L-21,76 L-21,75 L-22,75 L-22,74 L-23,74 L-23,73 L-24,73 L-24,72 L-25,72 L-25,70 L-26,70 L-26,69 L-27,69 L-27,68 L-28,68 L-28,66 L-29,66 L-29,64 L-30,64 L-30,62 L-31,62 L-31,60 L-32,60 L-32,58 L-33,58 L-33,56 L-34,56 L-34,32 L-33,32 L-33,29 L-32,29 L-32,27 L-31,27 L-31,25 L-30,25 L-30,23 L-29,23 L-29,21 L-28,21 L-28,20 L-27,20 L-27,18 L-26,18 L-26,17 L-25,17 L-25,16 L-24,16 L-24,15 L-23,15 L-23,14 L-22,14 L-22,13 L-21,13 L-21,12 L-20,12 L-20,11 L-19,11 L-19,10 L-18,10 L-18,9 L-17,9 L-17,8 L-15,8 L-15,7 L-14,7 L-14,6 L-12,6 L-12,5 L-11,5 L-11,4 L-9,4 L-9,3 L-6,3 L-6,2 L-3,2 L-3,1 L0,1 Z M2,10 L2,11 L0,11 L0,12 L-5,12 L-5,13 L-6,13 L-6,14 L-8,14 L-8,15 L-9,15 L-9,16 L-11,16 L-11,17 L-12,17 L-12,18 L-13,18 L-13,19 L-14,19 L-14,20 L-15,20 L-15,21 L-16,21 L-16,22 L-17,22 L-17,23 L-18,23 L-18,25 L-19,25 L-19,26 L-20,26 L-20,28 L-21,28 L-21,30 L-22,30 L-22,33 L-23,33 L-23,36 L-24,36 L-24,50 L-23,50 L-23,53 L-22,53 L-22,56 L-21,56 L-21,58 L-20,58 L-20,60 L-19,60 L-19,62 L-18,62 L-18,63 L-17,63 L-17,65 L-16,65 L-16,66 L-15,66 L-15,67 L-14,67 L-14,68 L-13,68 L-13,69 L-12,69 L-12,70 L-11,70 L-11,71 L-9,71 L-9,72 L-8,72 L-8,73 L-6,73 L-6,74 L-4,74 L-4,75 L-1,75 L-1,76 L2,76 L2,77 L15,77 L15,76 L19,76 L19,75 L22,75 L22,74 L25,74 L25,73 L26,73 L26,72 L28,72 L28,71 L29,71 L29,70 L31,70 L31,69 L32,69 L32,68 L33,68 L33,67 L34,67 L34,65 L35,65 L35,64 L36,64 L36,63 L37,63 L37,61 L38,61 L38,60 L39,60 L39,57 L40,57 L40,55 L41,55 L41,52 L42,52 L42,34 L41,34 L41,31 L40,31 L40,29 L39,29 L39,27 L38,27 L38,25 L37,25 L37,24 L36,24 L36,22 L35,22 L35,21 L34,21 L34,20 L33,20 L33,19 L32,19 L32,18 L30,18 L30,17 L29,17 L29,16 L28,16 L28,15 L26,15 L26,14 L24,14 L24,13 L22,13 L22,12 L20,12 L20,11 L15,11 L15,10 Z " transform="translate(1280,1068)" style="fill: #083E78;"/><path d="M0,0 L16,0 L16,1 L19,1 L19,2 L23,2 L23,3 L27,3 L27,4 L28,4 L28,5 L30,5 L30,6 L32,6 L32,7 L33,7 L33,8 L34,8 L34,9 L36,9 L36,10 L37,10 L37,11 L38,11 L38,12 L39,12 L39,13 L40,13 L40,14 L41,14 L41,15 L42,15 L42,16 L43,16 L43,17 L44,17 L44,18 L45,18 L45,20 L46,20 L46,22 L47,22 L47,23 L48,23 L48,26 L49,26 L49,28 L50,28 L50,30 L51,30 L51,33 L52,33 L52,51 L51,51 L51,56 L50,56 L50,59 L49,59 L49,61 L48,61 L48,63 L47,63 L47,65 L46,65 L46,67 L45,67 L45,69 L44,69 L44,70 L43,70 L43,71 L42,71 L42,73 L41,73 L41,74 L40,74 L40,75 L39,75 L39,76 L38,76 L38,77 L36,77 L36,78 L35,78 L35,79 L34,79 L34,80 L32,80 L32,81 L30,81 L30,82 L28,82 L28,83 L26,83 L26,84 L23,84 L23,85 L20,85 L20,86 L16,86 L16,87 L-1,87 L-1,86 L-5,86 L-5,85 L-8,85 L-8,84 L-10,84 L-10,83 L-12,83 L-12,82 L-14,82 L-14,81 L-16,81 L-16,80 L-17,80 L-17,79 L-18,79 L-18,78 L-20,78 L-20,77 L-21,77 L-21,76 L-22,76 L-22,75 L-23,75 L-23,74 L-24,74 L-24,73 L-25,73 L-25,71 L-26,71 L-26,70 L-27,70 L-27,69 L-28,69 L-28,67 L-29,67 L-29,66 L-30,66 L-30,64 L-31,64 L-31,62 L-32,62 L-32,59 L-33,59 L-33,58 L-34,58 L-34,52 L-35,52 L-35,32 L-34,32 L-34,29 L-33,29 L-33,27 L-32,27 L-32,25 L-31,25 L-31,23 L-30,23 L-30,21 L-29,21 L-29,20 L-28,20 L-28,18 L-27,18 L-27,17 L-26,17 L-26,16 L-25,16 L-25,15 L-24,15 L-24,14 L-23,14 L-23,13 L-22,13 L-22,12 L-21,12 L-21,11 L-20,11 L-20,10 L-19,10 L-19,9 L-18,9 L-18,8 L-17,8 L-17,7 L-15,7 L-15,6 L-14,6 L-14,5 L-12,5 L-12,4 L-10,4 L-10,3 L-6,3 L-6,2 L-4,2 L-4,1 L0,1 Z M3,10 L3,11 L-2,11 L-2,12 L-6,12 L-6,13 L-7,13 L-7,14 L-9,14 L-9,15 L-11,15 L-11,16 L-12,16 L-12,17 L-13,17 L-13,18 L-14,18 L-14,19 L-15,19 L-15,20 L-16,20 L-16,21 L-17,21 L-17,22 L-18,22 L-18,23 L-19,23 L-19,25 L-20,25 L-20,26 L-21,26 L-21,28 L-22,28 L-22,30 L-23,30 L-23,33 L-24,33 L-24,36 L-25,36 L-25,49 L-24,49 L-24,53 L-23,53 L-23,56 L-22,56 L-22,58 L-21,58 L-21,60 L-20,60 L-20,62 L-19,62 L-19,63 L-18,63 L-18,64 L-17,64 L-17,66 L-16,66 L-16,67 L-15,67 L-15,68 L-14,68 L-14,69 L-13,69 L-13,70 L-12,70 L-12,71 L-10,71 L-10,72 L-9,72 L-9,73 L-7,73 L-7,74 L-5,74 L-5,75 L-1,75 L-1,76 L1,76 L1,77 L14,77 L14,76 L17,76 L17,75 L20,75 L20,74 L23,74 L23,73 L25,73 L25,72 L27,72 L27,71 L28,71 L28,70 L29,70 L29,69 L31,69 L31,68 L32,68 L32,67 L33,67 L33,66 L34,66 L34,64 L35,64 L35,63 L36,63 L36,61 L37,61 L37,59 L38,59 L38,57 L39,57 L39,55 L40,55 L40,53 L41,53 L41,49 L42,49 L42,37 L41,37 L41,35 L40,35 L40,31 L39,31 L39,29 L38,29 L38,27 L37,27 L37,25 L36,25 L36,23 L35,23 L35,22 L34,22 L34,21 L33,21 L33,20 L32,20 L32,19 L31,19 L31,18 L30,18 L30,17 L29,17 L29,16 L27,16 L27,15 L26,15 L26,14 L24,14 L24,13 L21,13 L21,12 L20,12 L20,11 L17,11 L17,10 Z " transform="translate(1185,802)" style="fill: #083D78;"/><path d="M0,0 L16,0 L16,1 L19,1 L19,2 L23,2 L23,3 L27,3 L27,4 L28,4 L28,5 L30,5 L30,6 L32,6 L32,7 L33,7 L33,8 L35,8 L35,9 L36,9 L36,10 L37,10 L37,11 L38,11 L38,12 L39,12 L39,13 L40,13 L40,14 L41,14 L41,15 L42,15 L42,17 L41,17 L41,18 L40,18 L40,19 L39,19 L39,20 L38,20 L38,21 L37,21 L37,22 L36,22 L36,23 L34,23 L34,21 L33,21 L33,20 L32,20 L32,19 L31,19 L31,18 L29,18 L29,17 L28,17 L28,16 L27,16 L27,15 L25,15 L25,14 L23,14 L23,13 L21,13 L21,12 L18,12 L18,11 L15,11 L15,10 L3,10 L3,11 L-3,11 L-3,12 L-5,12 L-5,13 L-7,13 L-7,14 L-9,14 L-9,15 L-10,15 L-10,16 L-12,16 L-12,17 L-13,17 L-13,18 L-14,18 L-14,19 L-15,19 L-15,20 L-16,20 L-16,21 L-17,21 L-17,22 L-18,22 L-18,24 L-19,24 L-19,25 L-20,25 L-20,27 L-21,27 L-21,29 L-22,29 L-22,31 L-23,31 L-23,34 L-24,34 L-24,51 L-23,51 L-23,54 L-22,54 L-22,57 L-21,57 L-21,59 L-20,59 L-20,61 L-19,61 L-19,62 L-18,62 L-18,64 L-17,64 L-17,65 L-16,65 L-16,66 L-15,66 L-15,67 L-14,67 L-14,68 L-13,68 L-13,69 L-12,69 L-12,70 L-11,70 L-11,71 L-10,71 L-10,72 L-9,72 L-9,73 L-7,73 L-7,74 L-5,74 L-5,75 L-3,75 L-3,76 L1,76 L1,77 L13,77 L13,76 L16,76 L16,75 L19,75 L19,74 L21,74 L21,73 L23,73 L23,72 L24,72 L24,71 L26,71 L26,70 L27,70 L27,69 L28,69 L28,68 L29,68 L29,67 L30,67 L30,65 L31,65 L31,64 L32,64 L32,62 L33,62 L33,60 L34,60 L34,57 L35,57 L35,53 L13,53 L13,43 L47,43 L47,52 L46,52 L46,56 L45,56 L45,62 L44,62 L44,65 L43,65 L43,66 L42,66 L42,68 L41,68 L41,70 L40,70 L40,71 L39,71 L39,72 L38,72 L38,74 L37,74 L37,75 L36,75 L36,76 L35,76 L35,77 L34,77 L34,78 L33,78 L33,79 L31,79 L31,80 L30,80 L30,81 L28,81 L28,82 L26,82 L26,83 L24,83 L24,84 L22,84 L22,85 L19,85 L19,86 L15,86 L15,87 L-2,87 L-2,86 L-5,86 L-5,85 L-8,85 L-8,84 L-10,84 L-10,83 L-12,83 L-12,82 L-14,82 L-14,81 L-15,81 L-15,80 L-17,80 L-17,79 L-18,79 L-18,78 L-20,78 L-20,77 L-21,77 L-21,76 L-22,76 L-22,75 L-23,75 L-23,74 L-24,74 L-24,72 L-25,72 L-25,71 L-26,71 L-26,70 L-27,70 L-27,68 L-28,68 L-28,67 L-29,67 L-29,65 L-30,65 L-30,63 L-31,63 L-31,61 L-32,61 L-32,59 L-33,59 L-33,56 L-34,56 L-34,50 L-35,50 L-35,33 L-34,33 L-34,30 L-33,30 L-33,28 L-32,28 L-32,25 L-31,25 L-31,24 L-30,24 L-30,22 L-29,22 L-29,20 L-28,20 L-28,19 L-27,19 L-27,17 L-26,17 L-26,16 L-25,16 L-25,15 L-24,15 L-24,14 L-23,14 L-23,13 L-22,13 L-22,12 L-21,12 L-21,11 L-20,11 L-20,10 L-19,10 L-19,9 L-18,9 L-18,8 L-16,8 L-16,7 L-15,7 L-15,6 L-13,6 L-13,5 L-12,5 L-12,4 L-10,4 L-10,3 L-6,3 L-6,2 L-4,2 L-4,1 L0,1 Z " transform="translate(1366,802)" style="fill: #0A3F79;"/><path d="M0,0 L17,0 L17,1 L20,1 L20,2 L23,2 L23,3 L26,3 L26,4 L28,4 L28,5 L30,5 L30,6 L32,6 L32,7 L34,7 L34,8 L35,8 L35,9 L37,9 L37,10 L38,10 L38,11 L39,11 L39,12 L40,12 L40,13 L41,13 L41,14 L42,14 L42,15 L43,15 L43,17 L42,17 L42,18 L41,18 L41,19 L40,19 L40,20 L39,20 L39,21 L38,21 L38,22 L37,22 L37,23 L35,23 L35,22 L34,22 L34,21 L33,21 L33,20 L32,20 L32,19 L31,19 L31,18 L30,18 L30,17 L29,17 L29,16 L28,16 L28,15 L26,15 L26,14 L24,14 L24,13 L23,13 L23,12 L19,12 L19,11 L16,11 L16,10 L2,10 L2,11 L-1,11 L-1,12 L-4,12 L-4,13 L-6,13 L-6,14 L-8,14 L-8,15 L-9,15 L-9,16 L-11,16 L-11,17 L-12,17 L-12,18 L-13,18 L-13,19 L-14,19 L-14,20 L-15,20 L-15,21 L-16,21 L-16,22 L-17,22 L-17,24 L-18,24 L-18,25 L-19,25 L-19,27 L-20,27 L-20,29 L-21,29 L-21,31 L-22,31 L-22,33 L-23,33 L-23,38 L-24,38 L-24,50 L-23,50 L-23,53 L-22,53 L-22,55 L-21,55 L-21,57 L-20,57 L-20,60 L-19,60 L-19,61 L-18,61 L-18,63 L-17,63 L-17,64 L-16,64 L-16,65 L-15,65 L-15,67 L-14,67 L-14,68 L-13,68 L-13,69 L-12,69 L-12,70 L-11,70 L-11,71 L-9,71 L-9,72 L-8,72 L-8,73 L-7,73 L-7,74 L-5,74 L-5,75 L-3,75 L-3,76 L1,76 L1,77 L16,77 L16,76 L19,76 L19,75 L21,75 L21,74 L22,74 L22,73 L24,73 L24,72 L25,72 L25,71 L27,71 L27,70 L28,70 L28,69 L29,69 L29,67 L30,67 L30,66 L31,66 L31,65 L32,65 L32,64 L33,64 L33,62 L34,62 L34,59 L35,59 L35,57 L36,57 L36,53 L14,53 L14,43 L48,43 L48,52 L47,52 L47,59 L46,59 L46,61 L45,61 L45,64 L44,64 L44,65 L43,65 L43,68 L42,68 L42,69 L41,69 L41,71 L40,71 L40,72 L39,72 L39,73 L38,73 L38,75 L37,75 L37,76 L36,76 L36,77 L35,77 L35,78 L33,78 L33,79 L32,79 L32,80 L31,80 L31,81 L29,81 L29,82 L28,82 L28,83 L25,83 L25,84 L24,84 L24,85 L20,85 L20,86 L16,86 L16,87 L-1,87 L-1,86 L-4,86 L-4,85 L-6,85 L-6,84 L-10,84 L-10,83 L-12,83 L-12,82 L-13,82 L-13,81 L-15,81 L-15,80 L-16,80 L-16,79 L-17,79 L-17,78 L-19,78 L-19,77 L-20,77 L-20,76 L-21,76 L-21,75 L-22,75 L-22,74 L-23,74 L-23,73 L-24,73 L-24,72 L-25,72 L-25,70 L-26,70 L-26,69 L-27,69 L-27,67 L-28,67 L-28,66 L-29,66 L-29,64 L-30,64 L-30,62 L-31,62 L-31,59 L-32,59 L-32,55 L-33,55 L-33,52 L-34,52 L-34,34 L-33,34 L-33,31 L-32,31 L-32,27 L-31,27 L-31,25 L-30,25 L-30,23 L-29,23 L-29,22 L-28,22 L-28,20 L-27,20 L-27,18 L-26,18 L-26,17 L-25,17 L-25,16 L-24,16 L-24,15 L-23,15 L-23,13 L-22,13 L-22,12 L-20,12 L-20,11 L-19,11 L-19,10 L-18,10 L-18,9 L-17,9 L-17,8 L-16,8 L-16,7 L-14,7 L-14,6 L-13,6 L-13,5 L-11,5 L-11,4 L-9,4 L-9,3 L-6,3 L-6,2 L-3,2 L-3,1 L0,1 Z " transform="translate(1373,1068)" style="fill: #093E79;"/><path d="M0,0 L15,0 L15,1 L20,1 L20,2 L23,2 L23,3 L26,3 L26,4 L28,4 L28,5 L30,5 L30,6 L32,6 L32,7 L34,7 L34,8 L35,8 L35,9 L36,9 L36,10 L37,10 L37,11 L39,11 L39,12 L40,12 L40,13 L41,13 L41,14 L42,14 L42,15 L43,15 L43,17 L42,17 L42,18 L41,18 L41,19 L39,19 L39,20 L38,20 L38,21 L37,21 L37,22 L36,22 L36,23 L35,23 L35,22 L34,22 L34,21 L33,21 L33,20 L32,20 L32,19 L31,19 L31,18 L30,18 L30,17 L29,17 L29,16 L27,16 L27,15 L26,15 L26,14 L24,14 L24,13 L22,13 L22,12 L20,12 L20,11 L16,11 L16,10 L1,10 L1,11 L-1,11 L-1,12 L-5,12 L-5,13 L-7,13 L-7,14 L-8,14 L-8,15 L-10,15 L-10,16 L-11,16 L-11,17 L-12,17 L-12,18 L-14,18 L-14,19 L-15,19 L-15,21 L-16,21 L-16,22 L-17,22 L-17,23 L-18,23 L-18,24 L-19,24 L-19,26 L-20,26 L-20,28 L-21,28 L-21,30 L-22,30 L-22,32 L-23,32 L-23,35 L-24,35 L-24,51 L-23,51 L-23,54 L-22,54 L-22,56 L-21,56 L-21,58 L-20,58 L-20,60 L-19,60 L-19,62 L-18,62 L-18,63 L-17,63 L-17,65 L-16,65 L-16,66 L-15,66 L-15,67 L-14,67 L-14,68 L-13,68 L-13,69 L-12,69 L-12,70 L-11,70 L-11,71 L-10,71 L-10,72 L-8,72 L-8,73 L-7,73 L-7,74 L-5,74 L-5,75 L-1,75 L-1,76 L1,76 L1,77 L15,77 L15,76 L17,76 L17,75 L19,75 L19,74 L22,74 L22,73 L23,73 L23,72 L25,72 L25,71 L26,71 L26,70 L27,70 L27,69 L28,69 L28,68 L29,68 L29,67 L30,67 L30,66 L31,66 L31,64 L32,64 L32,63 L33,63 L33,61 L34,61 L34,59 L35,59 L35,53 L14,53 L14,43 L47,43 L47,54 L46,54 L46,60 L45,60 L45,63 L44,63 L44,65 L43,65 L43,67 L42,67 L42,69 L41,69 L41,70 L40,70 L40,71 L39,71 L39,73 L38,73 L38,74 L37,74 L37,75 L36,75 L36,76 L35,76 L35,77 L34,77 L34,78 L33,78 L33,79 L32,79 L32,80 L30,80 L30,81 L29,81 L29,82 L27,82 L27,83 L25,83 L25,84 L22,84 L22,85 L19,85 L19,86 L16,86 L16,87 L-1,87 L-1,86 L-5,86 L-5,85 L-7,85 L-7,84 L-10,84 L-10,83 L-12,83 L-12,82 L-14,82 L-14,81 L-15,81 L-15,80 L-16,80 L-16,79 L-18,79 L-18,78 L-19,78 L-19,77 L-20,77 L-20,76 L-21,76 L-21,75 L-22,75 L-22,74 L-23,74 L-23,73 L-24,73 L-24,72 L-25,72 L-25,71 L-26,71 L-26,69 L-27,69 L-27,68 L-28,68 L-28,66 L-29,66 L-29,64 L-30,64 L-30,62 L-31,62 L-31,60 L-32,60 L-32,56 L-33,56 L-33,53 L-34,53 L-34,49 L-35,49 L-35,35 L-34,35 L-34,33 L-33,33 L-33,29 L-32,29 L-32,26 L-31,26 L-31,24 L-30,24 L-30,22 L-29,22 L-29,21 L-28,21 L-28,19 L-27,19 L-27,18 L-26,18 L-26,16 L-25,16 L-25,15 L-24,15 L-24,14 L-23,14 L-23,13 L-22,13 L-22,12 L-21,12 L-21,11 L-20,11 L-20,10 L-19,10 L-19,9 L-17,9 L-17,8 L-16,8 L-16,7 L-15,7 L-15,6 L-13,6 L-13,5 L-11,5 L-11,4 L-10,4 L-10,3 L-6,3 L-6,2 L-3,2 L-3,1 L0,1 Z " transform="translate(996,802)" style="fill: #093E79;"/><path d="M0,0 L3,0 L3,3 L4,3 L4,5 L5,5 L5,7 L6,7 L6,10 L3,10 L3,11 L-2,11 L-2,12 L-6,12 L-6,13 L-9,13 L-9,14 L-11,14 L-11,30 L6,30 L6,40 L-11,40 L-11,41 L-10,41 L-10,42 L-9,42 L-9,43 L-8,43 L-8,44 L-7,44 L-7,45 L-6,45 L-6,46 L-5,46 L-5,47 L-4,47 L-4,48 L-3,48 L-3,49 L-2,49 L-2,50 L-1,50 L-1,51 L0,51 L0,52 L1,52 L1,53 L2,53 L2,54 L3,54 L3,55 L4,55 L4,56 L5,56 L5,57 L6,57 L6,58 L7,58 L7,59 L8,59 L8,61 L7,61 L7,62 L6,62 L6,64 L5,64 L5,65 L4,65 L4,67 L3,67 L3,68 L2,68 L2,69 L1,69 L1,68 L0,68 L0,67 L-1,67 L-1,65 L-2,65 L-2,64 L-3,64 L-3,63 L-4,63 L-4,62 L-5,62 L-5,61 L-6,61 L-6,59 L-7,59 L-7,58 L-8,58 L-8,57 L-9,57 L-9,55 L-10,55 L-10,54 L-11,54 L-11,106 L-22,106 L-22,62 L-23,62 L-23,64 L-24,64 L-24,66 L-25,66 L-25,68 L-26,68 L-26,70 L-27,70 L-27,71 L-28,71 L-28,73 L-29,73 L-29,74 L-30,74 L-30,76 L-31,76 L-31,77 L-32,77 L-32,79 L-33,79 L-33,80 L-34,80 L-34,82 L-35,82 L-35,83 L-36,83 L-36,85 L-38,85 L-38,83 L-39,83 L-39,81 L-40,81 L-40,80 L-41,80 L-41,78 L-42,78 L-42,77 L-43,77 L-43,73 L-42,73 L-42,72 L-41,72 L-41,71 L-40,71 L-40,70 L-39,70 L-39,68 L-38,68 L-38,67 L-37,67 L-37,66 L-36,66 L-36,64 L-35,64 L-35,63 L-34,63 L-34,61 L-33,61 L-33,60 L-32,60 L-32,58 L-31,58 L-31,57 L-30,57 L-30,55 L-29,55 L-29,53 L-28,53 L-28,51 L-27,51 L-27,49 L-26,49 L-26,47 L-25,47 L-25,45 L-24,45 L-24,42 L-23,42 L-23,40 L-43,40 L-43,30 L-22,30 L-22,16 L-25,16 L-25,17 L-34,17 L-34,18 L-39,18 L-39,17 L-40,17 L-40,13 L-41,13 L-41,8 L-33,8 L-33,7 L-27,7 L-27,6 L-20,6 L-20,5 L-15,5 L-15,4 L-10,4 L-10,3 L-6,3 L-6,2 L-3,2 L-3,1 L0,1 Z " transform="translate(814,653)" style="fill: #083D78;"/><path d="M0,0 L1,0 L1,1 L2,1 L2,2 L3,2 L3,3 L4,3 L4,4 L5,4 L5,5 L6,5 L6,6 L7,6 L7,7 L8,7 L8,9 L9,9 L9,10 L10,10 L10,11 L11,11 L11,12 L12,12 L12,13 L13,13 L13,14 L14,14 L14,15 L15,15 L15,16 L16,16 L16,17 L17,17 L17,18 L18,18 L18,19 L19,19 L19,20 L20,20 L20,21 L21,21 L21,22 L22,22 L22,23 L23,23 L23,24 L24,24 L24,25 L25,25 L25,26 L26,26 L26,27 L27,27 L27,28 L28,28 L28,29 L29,29 L29,31 L30,31 L30,32 L31,32 L31,33 L32,33 L32,34 L33,34 L33,35 L34,35 L34,36 L35,36 L35,37 L36,37 L36,38 L37,38 L37,39 L38,39 L38,40 L39,40 L39,41 L40,41 L40,42 L41,42 L41,43 L42,43 L42,44 L43,44 L43,45 L44,45 L44,46 L45,46 L45,47 L46,47 L46,48 L47,48 L47,49 L48,49 L48,51 L49,51 L49,52 L50,52 L50,53 L51,53 L51,54 L52,54 L52,55 L53,55 L53,56 L54,56 L54,57 L55,57 L55,58 L56,58 L56,59 L57,59 L57,60 L58,60 L58,61 L59,61 L59,62 L60,62 L60,63 L61,63 L61,65 L63,65 L63,4 L73,4 L73,90 L72,90 L72,89 L71,89 L71,88 L70,88 L70,87 L69,87 L69,86 L68,86 L68,85 L67,85 L67,84 L66,84 L66,83 L65,83 L65,82 L64,82 L64,81 L63,81 L63,80 L62,80 L62,79 L61,79 L61,78 L60,78 L60,77 L59,77 L59,76 L58,76 L58,75 L57,75 L57,74 L56,74 L56,73 L55,73 L55,72 L54,72 L54,71 L53,71 L53,69 L52,69 L52,68 L51,68 L51,67 L50,67 L50,66 L49,66 L49,65 L48,65 L48,64 L47,64 L47,63 L46,63 L46,62 L45,62 L45,61 L44,61 L44,60 L43,60 L43,59 L42,59 L42,58 L41,58 L41,57 L40,57 L40,56 L39,56 L39,55 L38,55 L38,54 L37,54 L37,53 L36,53 L36,52 L35,52 L35,51 L34,51 L34,50 L33,50 L33,49 L32,49 L32,47 L31,47 L31,46 L30,46 L30,45 L29,45 L29,44 L28,44 L28,43 L27,43 L27,42 L26,42 L26,41 L25,41 L25,40 L24,40 L24,39 L23,39 L23,38 L22,38 L22,37 L21,37 L21,36 L20,36 L20,35 L19,35 L19,34 L18,34 L18,33 L17,33 L17,32 L16,32 L16,31 L15,31 L15,30 L14,30 L14,29 L13,29 L13,28 L12,28 L12,26 L10,26 L10,87 L0,87 Z " transform="translate(878,800)" style="fill: #043B76;"/><path d="M0,0 L11,0 L11,34 L50,34 L50,0 L61,0 L61,85 L50,85 L50,44 L11,44 L11,85 L0,85 Z " transform="translate(541,803)" style="fill: #0D427B;"/><path d="M0,0 L25,0 L25,1 L32,1 L32,2 L35,2 L35,3 L38,3 L38,4 L41,4 L41,5 L43,5 L43,6 L45,6 L45,7 L47,7 L47,8 L48,8 L48,9 L49,9 L49,10 L50,10 L50,11 L52,11 L52,12 L53,12 L53,13 L54,13 L54,14 L55,14 L55,15 L56,15 L56,17 L57,17 L57,18 L58,18 L58,20 L59,20 L59,21 L60,21 L60,23 L61,23 L61,25 L62,25 L62,28 L63,28 L63,34 L64,34 L64,50 L63,50 L63,52 L62,52 L62,55 L61,55 L61,59 L60,59 L60,61 L59,61 L59,63 L58,63 L58,65 L57,65 L57,66 L56,66 L56,67 L55,67 L55,69 L54,69 L54,70 L53,70 L53,71 L52,71 L52,72 L51,72 L51,73 L50,73 L50,74 L48,74 L48,75 L47,75 L47,76 L45,76 L45,77 L43,77 L43,78 L42,78 L42,79 L39,79 L39,80 L37,80 L37,81 L33,81 L33,82 L30,82 L30,83 L0,83 Z M10,9 L10,74 L24,74 L24,73 L28,73 L28,72 L32,72 L32,71 L34,71 L34,70 L36,70 L36,69 L38,69 L38,68 L40,68 L40,67 L42,67 L42,66 L43,66 L43,65 L44,65 L44,64 L45,64 L45,63 L46,63 L46,62 L47,62 L47,61 L48,61 L48,59 L49,59 L49,58 L50,58 L50,56 L51,56 L51,54 L52,54 L52,51 L53,51 L53,32 L52,32 L52,29 L51,29 L51,27 L50,27 L50,25 L49,25 L49,24 L48,24 L48,22 L47,22 L47,21 L46,21 L46,20 L45,20 L45,19 L44,19 L44,18 L43,18 L43,17 L41,17 L41,16 L40,16 L40,15 L38,15 L38,14 L36,14 L36,13 L33,13 L33,12 L28,12 L28,11 L25,11 L25,10 L22,10 L22,9 Z " transform="translate(657,1070)" style="fill: #043A76;"/><path d="M0,0 L11,0 L11,34 L51,34 L51,1 L61,1 L61,84 L51,84 L51,44 L11,44 L11,85 L0,85 Z " transform="translate(949,1069)" style="fill: #083D78;"/><path d="M0,0 L11,0 L11,84 L0,84 L0,44 L-40,44 L-40,84 L-50,84 L-50,1 L-40,1 L-40,34 L0,34 Z " transform="translate(759,803)" style="fill: #063C77;"/><path d="M0,0 L63,0 L63,9 L62,9 L62,10 L59,10 L59,11 L57,11 L57,12 L56,12 L56,13 L52,13 L52,14 L51,14 L51,15 L47,15 L47,16 L44,16 L44,17 L42,17 L42,18 L86,18 L86,28 L39,28 L39,38 L38,38 L38,39 L37,39 L37,41 L36,41 L36,42 L35,42 L35,43 L33,43 L33,44 L11,44 L11,41 L10,41 L10,39 L9,39 L9,35 L27,35 L27,34 L28,34 L28,28 L-22,28 L-22,18 L28,18 L28,13 L33,13 L33,12 L36,12 L36,11 L40,11 L40,10 L43,10 L43,9 L0,9 Z " transform="translate(1229,714)" style="fill: #0D417A;"/><path d="M0,0 L10,0 L10,35 L12,35 L12,33 L13,33 L13,32 L14,32 L14,31 L15,31 L15,30 L16,30 L16,29 L17,29 L17,28 L18,28 L18,27 L19,27 L19,26 L20,26 L20,25 L21,25 L21,24 L22,24 L22,23 L23,23 L23,22 L24,22 L24,21 L25,21 L25,20 L26,20 L26,19 L27,19 L27,18 L28,18 L28,17 L29,17 L29,16 L30,16 L30,15 L31,15 L31,14 L32,14 L32,13 L33,13 L33,12 L34,12 L34,11 L35,11 L35,10 L36,10 L36,9 L37,9 L37,8 L38,8 L38,7 L39,7 L39,6 L40,6 L40,5 L41,5 L41,4 L42,4 L42,3 L43,3 L43,2 L44,2 L44,1 L45,1 L45,0 L59,0 L59,1 L58,1 L58,2 L57,2 L57,3 L56,3 L56,4 L55,4 L55,5 L54,5 L54,6 L53,6 L53,7 L52,7 L52,8 L51,8 L51,9 L50,9 L50,10 L49,10 L49,11 L48,11 L48,12 L47,12 L47,13 L46,13 L46,14 L45,14 L45,15 L44,15 L44,16 L43,16 L43,17 L42,17 L42,18 L41,18 L41,19 L40,19 L40,20 L39,20 L39,21 L38,21 L38,22 L37,22 L37,23 L36,23 L36,24 L35,24 L35,25 L34,25 L34,26 L33,26 L33,27 L32,27 L32,28 L31,28 L31,29 L30,29 L30,30 L29,30 L29,31 L28,31 L28,32 L27,32 L27,33 L26,33 L26,34 L25,34 L25,35 L24,35 L24,36 L23,36 L23,37 L22,37 L22,38 L23,38 L23,39 L24,39 L24,40 L25,40 L25,41 L26,41 L26,43 L27,43 L27,44 L28,44 L28,45 L29,45 L29,46 L30,46 L30,47 L31,47 L31,49 L32,49 L32,50 L33,50 L33,51 L34,51 L34,52 L35,52 L35,54 L36,54 L36,55 L37,55 L37,56 L38,56 L38,57 L39,57 L39,58 L40,58 L40,59 L41,59 L41,61 L42,61 L42,62 L43,62 L43,63 L44,63 L44,64 L45,64 L45,65 L46,65 L46,67 L47,67 L47,68 L48,68 L48,69 L49,69 L49,70 L50,70 L50,71 L51,71 L51,73 L52,73 L52,74 L53,74 L53,75 L54,75 L54,76 L55,76 L55,78 L56,78 L56,79 L57,79 L57,80 L58,80 L58,81 L59,81 L59,83 L45,83 L45,82 L44,82 L44,81 L43,81 L43,79 L42,79 L42,78 L41,78 L41,77 L40,77 L40,76 L39,76 L39,74 L38,74 L38,73 L37,73 L37,72 L36,72 L36,71 L35,71 L35,69 L34,69 L34,68 L33,68 L33,67 L32,67 L32,65 L31,65 L31,64 L30,64 L30,63 L29,63 L29,62 L28,62 L28,61 L27,61 L27,60 L26,60 L26,58 L25,58 L25,57 L24,57 L24,56 L23,56 L23,54 L22,54 L22,53 L21,53 L21,52 L20,52 L20,51 L19,51 L19,49 L18,49 L18,48 L17,48 L17,47 L16,47 L16,46 L15,46 L15,45 L13,45 L13,46 L12,46 L12,47 L11,47 L11,48 L10,48 L10,83 L0,83 Z " transform="translate(1088,804)" style="fill: #043A76;"/><path d="M0,0 L11,0 L11,60 L10,60 L10,64 L9,64 L9,67 L8,67 L8,70 L7,70 L7,72 L6,72 L6,74 L5,74 L5,75 L4,75 L4,76 L3,76 L3,77 L2,77 L2,78 L1,78 L1,79 L0,79 L0,80 L-1,80 L-1,81 L-3,81 L-3,82 L-4,82 L-4,83 L-6,83 L-6,84 L-9,84 L-9,85 L-12,85 L-12,86 L-27,86 L-27,85 L-31,85 L-31,84 L-34,84 L-34,83 L-35,83 L-35,82 L-37,82 L-37,81 L-39,81 L-39,80 L-40,80 L-40,79 L-41,79 L-41,78 L-42,78 L-42,76 L-43,76 L-43,75 L-44,75 L-44,74 L-45,74 L-45,73 L-46,73 L-46,71 L-47,71 L-47,68 L-48,68 L-48,65 L-49,65 L-49,64 L-50,64 L-50,1 L-40,1 L-40,58 L-39,58 L-39,61 L-38,61 L-38,64 L-37,64 L-37,67 L-36,67 L-36,68 L-35,68 L-35,70 L-34,70 L-34,71 L-33,71 L-33,72 L-32,72 L-32,73 L-31,73 L-31,74 L-29,74 L-29,75 L-26,75 L-26,76 L-14,76 L-14,75 L-10,75 L-10,74 L-9,74 L-9,73 L-7,73 L-7,72 L-6,72 L-6,71 L-5,71 L-5,69 L-4,69 L-4,68 L-3,68 L-3,66 L-2,66 L-2,64 L-1,64 L-1,61 L0,61 Z " transform="translate(539,936)" style="fill: #073D77;"/><path d="M0,0 L45,0 L45,9 L10,9 L10,33 L44,33 L44,42 L11,42 L11,74 L45,74 L45,84 L0,84 Z " transform="translate(817,1070)" style="fill: #013975;"/><path d="M0,0 L14,0 L14,1 L16,1 L16,2 L19,2 L19,3 L21,3 L21,4 L22,4 L22,5 L24,5 L24,6 L25,6 L25,7 L26,7 L26,8 L27,8 L27,10 L28,10 L28,11 L29,11 L29,13 L28,13 L28,14 L26,14 L26,15 L24,15 L24,16 L23,16 L23,17 L20,17 L20,16 L19,16 L19,15 L18,15 L18,14 L17,14 L17,13 L16,13 L16,12 L14,12 L14,11 L13,11 L13,10 L2,10 L2,11 L0,11 L0,12 L-1,12 L-1,13 L-3,13 L-3,14 L-4,14 L-4,16 L-5,16 L-5,17 L-6,17 L-6,25 L-5,25 L-5,27 L-4,27 L-4,28 L-3,28 L-3,29 L-2,29 L-2,30 L-1,30 L-1,31 L1,31 L1,32 L3,32 L3,33 L5,33 L5,34 L7,34 L7,35 L11,35 L11,36 L14,36 L14,37 L15,37 L15,38 L17,38 L17,39 L19,39 L19,40 L20,40 L20,41 L22,41 L22,42 L23,42 L23,43 L24,43 L24,44 L26,44 L26,45 L27,45 L27,47 L28,47 L28,48 L29,48 L29,50 L30,50 L30,52 L31,52 L31,54 L32,54 L32,67 L31,67 L31,69 L30,69 L30,72 L29,72 L29,74 L28,74 L28,76 L27,76 L27,77 L26,77 L26,79 L25,79 L25,80 L24,80 L24,81 L22,81 L22,82 L21,82 L21,83 L19,83 L19,84 L17,84 L17,85 L15,85 L15,86 L11,86 L11,87 L-1,87 L-1,86 L-5,86 L-5,85 L-7,85 L-7,84 L-9,84 L-9,83 L-10,83 L-10,82 L-12,82 L-12,81 L-13,81 L-13,79 L-14,79 L-14,78 L-15,78 L-15,77 L-16,77 L-16,76 L-17,76 L-17,74 L-18,74 L-18,72 L-19,72 L-19,70 L-20,70 L-20,68 L-21,68 L-21,64 L-20,64 L-20,63 L-17,63 L-17,62 L-10,62 L-10,67 L-9,67 L-9,68 L-8,68 L-8,70 L-7,70 L-7,71 L-6,71 L-6,73 L-5,73 L-5,74 L-3,74 L-3,75 L-2,75 L-2,76 L0,76 L0,77 L10,77 L10,76 L13,76 L13,75 L15,75 L15,74 L16,74 L16,73 L17,73 L17,71 L18,71 L18,70 L19,70 L19,68 L20,68 L20,66 L21,66 L21,56 L20,56 L20,54 L19,54 L19,53 L18,53 L18,52 L17,52 L17,51 L16,51 L16,50 L15,50 L15,49 L13,49 L13,48 L11,48 L11,47 L9,47 L9,46 L7,46 L7,45 L4,45 L4,44 L2,44 L2,43 L0,43 L0,42 L-2,42 L-2,41 L-4,41 L-4,40 L-6,40 L-6,39 L-8,39 L-8,38 L-9,38 L-9,37 L-10,37 L-10,36 L-11,36 L-11,35 L-12,35 L-12,34 L-13,34 L-13,33 L-14,33 L-14,31 L-15,31 L-15,29 L-16,29 L-16,27 L-17,27 L-17,15 L-16,15 L-16,13 L-15,13 L-15,11 L-14,11 L-14,10 L-13,10 L-13,8 L-12,8 L-12,7 L-11,7 L-11,6 L-10,6 L-10,5 L-8,5 L-8,4 L-7,4 L-7,3 L-5,3 L-5,2 L-3,2 L-3,1 L0,1 Z " transform="translate(1306,935)" style="fill: #093F79;"/><path d="M0,0 L13,0 L13,1 L16,1 L16,2 L19,2 L19,3 L21,3 L21,4 L22,4 L22,5 L23,5 L23,6 L25,6 L25,7 L26,7 L26,8 L27,8 L27,9 L28,9 L28,11 L29,11 L29,13 L28,13 L28,14 L26,14 L26,15 L25,15 L25,16 L23,16 L23,17 L20,17 L20,15 L19,15 L19,14 L18,14 L18,13 L16,13 L16,12 L14,12 L14,11 L12,11 L12,10 L2,10 L2,11 L0,11 L0,12 L-1,12 L-1,13 L-2,13 L-2,14 L-3,14 L-3,15 L-4,15 L-4,16 L-5,16 L-5,17 L-6,17 L-6,26 L-5,26 L-5,27 L-4,27 L-4,28 L-3,28 L-3,29 L-2,29 L-2,30 L-1,30 L-1,31 L1,31 L1,32 L3,32 L3,33 L5,33 L5,34 L7,34 L7,35 L10,35 L10,36 L14,36 L14,37 L15,37 L15,38 L17,38 L17,39 L19,39 L19,40 L21,40 L21,41 L22,41 L22,42 L23,42 L23,43 L25,43 L25,44 L26,44 L26,45 L27,45 L27,46 L28,46 L28,48 L29,48 L29,49 L30,49 L30,52 L31,52 L31,54 L32,54 L32,68 L31,68 L31,70 L30,70 L30,73 L29,73 L29,74 L28,74 L28,76 L27,76 L27,77 L26,77 L26,79 L25,79 L25,80 L24,80 L24,81 L23,81 L23,82 L21,82 L21,83 L19,83 L19,84 L17,84 L17,85 L15,85 L15,86 L11,86 L11,87 L-2,87 L-2,86 L-5,86 L-5,85 L-7,85 L-7,84 L-9,84 L-9,83 L-10,83 L-10,82 L-11,82 L-11,81 L-12,81 L-12,80 L-13,80 L-13,79 L-14,79 L-14,78 L-15,78 L-15,77 L-16,77 L-16,75 L-17,75 L-17,74 L-18,74 L-18,73 L-19,73 L-19,69 L-20,69 L-20,63 L-15,63 L-15,62 L-10,62 L-10,66 L-9,66 L-9,68 L-8,68 L-8,70 L-7,70 L-7,71 L-6,71 L-6,72 L-5,72 L-5,74 L-3,74 L-3,75 L-2,75 L-2,76 L2,76 L2,77 L10,77 L10,76 L13,76 L13,75 L15,75 L15,74 L16,74 L16,73 L17,73 L17,72 L18,72 L18,70 L19,70 L19,69 L20,69 L20,67 L21,67 L21,56 L20,56 L20,54 L19,54 L19,53 L18,53 L18,52 L17,52 L17,51 L16,51 L16,50 L15,50 L15,49 L13,49 L13,48 L12,48 L12,47 L10,47 L10,46 L7,46 L7,45 L6,45 L6,44 L2,44 L2,43 L0,43 L0,42 L-2,42 L-2,41 L-4,41 L-4,40 L-6,40 L-6,39 L-7,39 L-7,38 L-9,38 L-9,37 L-10,37 L-10,36 L-11,36 L-11,35 L-12,35 L-12,34 L-13,34 L-13,33 L-14,33 L-14,31 L-15,31 L-15,29 L-16,29 L-16,26 L-17,26 L-17,16 L-16,16 L-16,13 L-15,13 L-15,12 L-14,12 L-14,10 L-13,10 L-13,9 L-12,9 L-12,8 L-11,8 L-11,7 L-10,7 L-10,6 L-9,6 L-9,5 L-8,5 L-8,4 L-7,4 L-7,3 L-4,3 L-4,2 L-2,2 L-2,1 L0,1 Z " transform="translate(889,935)" style="fill: #083E78;"/><path d="M0,0 L45,0 L45,9 L10,9 L10,33 L44,33 L44,42 L10,42 L10,74 L45,74 L45,83 L0,83 Z " transform="translate(1673,937)" style="fill: #013874;"/><path d="M0,0 L45,0 L45,9 L10,9 L10,33 L44,33 L44,42 L10,42 L10,74 L45,74 L45,83 L0,83 Z " transform="translate(618,804)" style="fill: #013874;"/><path d="M0,0 L44,0 L44,9 L10,9 L10,33 L43,33 L43,42 L10,42 L10,74 L44,74 L44,83 L0,83 Z " transform="translate(1452,937)" style="fill: #003774;"/><path d="M0,0 L44,0 L44,9 L10,9 L10,33 L43,33 L43,42 L10,42 L10,74 L44,74 L44,83 L0,83 Z " transform="translate(753,937)" style="fill: #003874;"/><path d="M0,0 L16,0 L16,1 L20,1 L20,2 L23,2 L23,3 L26,3 L26,4 L28,4 L28,5 L30,5 L30,17 L28,17 L28,16 L27,16 L27,15 L25,15 L25,14 L23,14 L23,13 L20,13 L20,12 L18,12 L18,11 L15,11 L15,10 L0,10 L0,11 L-2,11 L-2,12 L-6,12 L-6,13 L-8,13 L-8,14 L-9,14 L-9,15 L-11,15 L-11,16 L-12,16 L-12,17 L-13,17 L-13,18 L-14,18 L-14,19 L-15,19 L-15,20 L-16,20 L-16,21 L-17,21 L-17,22 L-18,22 L-18,23 L-19,23 L-19,25 L-20,25 L-20,26 L-21,26 L-21,28 L-22,28 L-22,30 L-23,30 L-23,34 L-24,34 L-24,37 L-25,37 L-25,49 L-24,49 L-24,54 L-23,54 L-23,56 L-22,56 L-22,59 L-21,59 L-21,61 L-20,61 L-20,62 L-19,62 L-19,64 L-18,64 L-18,65 L-17,65 L-17,66 L-16,66 L-16,68 L-15,68 L-15,69 L-14,69 L-14,70 L-12,70 L-12,71 L-11,71 L-11,72 L-10,72 L-10,73 L-8,73 L-8,74 L-6,74 L-6,75 L-3,75 L-3,76 L-2,76 L-2,77 L14,77 L14,76 L18,76 L18,75 L21,75 L21,74 L23,74 L23,73 L25,73 L25,72 L26,72 L26,71 L28,71 L28,70 L29,70 L29,69 L30,69 L30,82 L28,82 L28,83 L27,83 L27,84 L23,84 L23,85 L21,85 L21,86 L16,86 L16,87 L-2,87 L-2,86 L-4,86 L-4,85 L-7,85 L-7,84 L-11,84 L-11,83 L-13,83 L-13,82 L-14,82 L-14,81 L-16,81 L-16,80 L-17,80 L-17,79 L-19,79 L-19,78 L-20,78 L-20,77 L-21,77 L-21,76 L-22,76 L-22,75 L-23,75 L-23,74 L-24,74 L-24,73 L-25,73 L-25,72 L-26,72 L-26,71 L-27,71 L-27,69 L-28,69 L-28,68 L-29,68 L-29,66 L-30,66 L-30,64 L-31,64 L-31,62 L-32,62 L-32,60 L-33,60 L-33,57 L-34,57 L-34,55 L-35,55 L-35,51 L-36,51 L-36,38 L-35,38 L-35,32 L-34,32 L-34,29 L-33,29 L-33,27 L-32,27 L-32,26 L-31,26 L-31,23 L-30,23 L-30,21 L-29,21 L-29,20 L-28,20 L-28,18 L-27,18 L-27,17 L-26,17 L-26,16 L-25,16 L-25,15 L-24,15 L-24,13 L-23,13 L-23,12 L-21,12 L-21,11 L-20,11 L-20,10 L-19,10 L-19,9 L-18,9 L-18,8 L-16,8 L-16,7 L-15,7 L-15,6 L-14,6 L-14,5 L-12,5 L-12,4 L-8,4 L-8,3 L-7,3 L-7,2 L-4,2 L-4,1 L0,1 Z " transform="translate(907,1068)" style="fill: #0A3F79;"/><path d="M0,0 L17,0 L17,1 L20,1 L20,2 L24,2 L24,3 L26,3 L26,4 L28,4 L28,5 L31,5 L31,18 L30,18 L30,17 L29,17 L29,16 L27,16 L27,15 L26,15 L26,14 L24,14 L24,13 L23,13 L23,12 L20,12 L20,11 L14,11 L14,10 L1,10 L1,11 L-3,11 L-3,12 L-5,12 L-5,13 L-7,13 L-7,14 L-9,14 L-9,15 L-10,15 L-10,16 L-11,16 L-11,17 L-13,17 L-13,18 L-14,18 L-14,19 L-15,19 L-15,20 L-16,20 L-16,21 L-17,21 L-17,23 L-18,23 L-18,24 L-19,24 L-19,26 L-20,26 L-20,27 L-21,27 L-21,29 L-22,29 L-22,33 L-23,33 L-23,35 L-24,35 L-24,51 L-23,51 L-23,54 L-22,54 L-22,57 L-21,57 L-21,60 L-20,60 L-20,61 L-19,61 L-19,63 L-18,63 L-18,64 L-17,64 L-17,66 L-16,66 L-16,67 L-15,67 L-15,68 L-14,68 L-14,69 L-13,69 L-13,70 L-12,70 L-12,71 L-10,71 L-10,72 L-9,72 L-9,73 L-8,73 L-8,74 L-6,74 L-6,75 L-2,75 L-2,76 L-1,76 L-1,77 L15,77 L15,76 L18,76 L18,75 L21,75 L21,74 L24,74 L24,73 L26,73 L26,72 L27,72 L27,71 L28,71 L28,70 L29,70 L29,69 L31,69 L31,82 L28,82 L28,83 L26,83 L26,84 L23,84 L23,85 L20,85 L20,86 L16,86 L16,87 L-1,87 L-1,86 L-4,86 L-4,85 L-6,85 L-6,84 L-10,84 L-10,83 L-12,83 L-12,82 L-14,82 L-14,81 L-15,81 L-15,80 L-17,80 L-17,79 L-18,79 L-18,78 L-19,78 L-19,77 L-20,77 L-20,76 L-21,76 L-21,75 L-22,75 L-22,74 L-23,74 L-23,73 L-24,73 L-24,72 L-25,72 L-25,71 L-26,71 L-26,70 L-27,70 L-27,68 L-28,68 L-28,67 L-29,67 L-29,65 L-30,65 L-30,63 L-31,63 L-31,61 L-32,61 L-32,58 L-33,58 L-33,55 L-34,55 L-34,52 L-35,52 L-35,35 L-34,35 L-34,31 L-33,31 L-33,28 L-32,28 L-32,26 L-31,26 L-31,24 L-30,24 L-30,22 L-29,22 L-29,20 L-28,20 L-28,19 L-27,19 L-27,18 L-26,18 L-26,16 L-25,16 L-25,15 L-24,15 L-24,14 L-23,14 L-23,13 L-22,13 L-22,12 L-21,12 L-21,11 L-20,11 L-20,10 L-19,10 L-19,9 L-17,9 L-17,8 L-16,8 L-16,7 L-14,7 L-14,6 L-13,6 L-13,5 L-11,5 L-11,4 L-9,4 L-9,3 L-5,3 L-5,2 L-2,2 L-2,1 L0,1 Z " transform="translate(1629,935)" style="fill: #0A3F79;"/><path d="M0,0 L12,0 L12,2 L13,2 L13,5 L14,5 L14,7 L15,7 L15,9 L16,9 L16,12 L17,12 L17,15 L18,15 L18,17 L19,17 L19,20 L20,20 L20,22 L21,22 L21,24 L22,24 L22,27 L23,27 L23,29 L24,29 L24,33 L25,33 L25,34 L26,34 L26,37 L27,37 L27,39 L28,39 L28,42 L29,42 L29,44 L30,44 L30,47 L31,47 L31,49 L32,49 L32,53 L33,53 L33,54 L34,54 L34,57 L35,57 L35,60 L36,60 L36,61 L37,61 L37,57 L38,57 L38,55 L39,55 L39,52 L40,52 L40,50 L41,50 L41,47 L42,47 L42,45 L43,45 L43,43 L44,43 L44,40 L45,40 L45,37 L46,37 L46,36 L47,36 L47,32 L48,32 L48,30 L49,30 L49,27 L50,27 L50,25 L51,25 L51,23 L52,23 L52,20 L53,20 L53,19 L54,19 L54,16 L55,16 L55,12 L56,12 L56,10 L57,10 L57,7 L58,7 L58,5 L59,5 L59,3 L60,3 L60,0 L72,0 L72,3 L71,3 L71,6 L70,6 L70,8 L69,8 L69,9 L68,9 L68,12 L67,12 L67,14 L66,14 L66,16 L65,16 L65,19 L64,19 L64,21 L63,21 L63,25 L62,25 L62,26 L61,26 L61,29 L60,29 L60,31 L59,31 L59,33 L58,33 L58,36 L57,36 L57,38 L56,38 L56,42 L55,42 L55,43 L54,43 L54,46 L53,46 L53,48 L52,48 L52,51 L51,51 L51,53 L50,53 L50,55 L49,55 L49,58 L48,58 L48,60 L47,60 L47,64 L46,64 L46,65 L45,65 L45,67 L44,67 L44,70 L43,70 L43,72 L42,72 L42,75 L41,75 L41,77 L40,77 L40,81 L39,81 L39,82 L38,82 L38,85 L37,85 L37,88 L36,88 L36,87 L35,87 L35,84 L34,84 L34,83 L33,83 L33,79 L32,79 L32,78 L31,78 L31,74 L30,74 L30,72 L29,72 L29,69 L28,69 L28,67 L27,67 L27,65 L26,65 L26,62 L25,62 L25,61 L24,61 L24,57 L23,57 L23,56 L22,56 L22,52 L21,52 L21,50 L20,50 L20,48 L19,48 L19,45 L18,45 L18,43 L17,43 L17,40 L16,40 L16,38 L15,38 L15,35 L14,35 L14,33 L13,33 L13,31 L12,31 L12,28 L11,28 L11,26 L10,26 L10,23 L9,23 L9,21 L8,21 L8,18 L7,18 L7,16 L6,16 L6,13 L5,13 L5,11 L4,11 L4,9 L3,9 L3,7 L2,7 L2,4 L1,4 L1,1 L0,1 Z " transform="translate(672,937)" style="fill: #093E78;"/><path d="M0,0 L16,0 L16,1 L19,1 L19,2 L24,2 L24,3 L25,3 L25,4 L27,4 L27,5 L29,5 L29,17 L28,17 L28,16 L26,16 L26,15 L25,15 L25,14 L23,14 L23,13 L20,13 L20,12 L17,12 L17,11 L14,11 L14,10 L0,10 L0,11 L-3,11 L-3,12 L-7,12 L-7,13 L-9,13 L-9,14 L-10,14 L-10,15 L-11,15 L-11,16 L-13,16 L-13,17 L-14,17 L-14,18 L-15,18 L-15,19 L-16,19 L-16,20 L-17,20 L-17,21 L-18,21 L-18,22 L-19,22 L-19,24 L-20,24 L-20,25 L-21,25 L-21,27 L-22,27 L-22,29 L-23,29 L-23,31 L-24,31 L-24,33 L-25,33 L-25,36 L-26,36 L-26,51 L-25,51 L-25,53 L-24,53 L-24,56 L-23,56 L-23,58 L-22,58 L-22,60 L-21,60 L-21,62 L-20,62 L-20,63 L-19,63 L-19,65 L-18,65 L-18,66 L-17,66 L-17,67 L-16,67 L-16,68 L-15,68 L-15,69 L-14,69 L-14,70 L-13,70 L-13,71 L-12,71 L-12,72 L-10,72 L-10,73 L-9,73 L-9,74 L-7,74 L-7,75 L-3,75 L-3,76 L-1,76 L-1,77 L13,77 L13,76 L17,76 L17,75 L20,75 L20,74 L22,74 L22,73 L24,73 L24,72 L26,72 L26,71 L27,71 L27,70 L29,70 L29,82 L27,82 L27,83 L25,83 L25,84 L22,84 L22,85 L20,85 L20,86 L15,86 L15,87 L-1,87 L-1,86 L-6,86 L-6,85 L-9,85 L-9,84 L-11,84 L-11,83 L-13,83 L-13,82 L-15,82 L-15,81 L-17,81 L-17,80 L-18,80 L-18,79 L-19,79 L-19,78 L-21,78 L-21,77 L-22,77 L-22,76 L-23,76 L-23,75 L-24,75 L-24,74 L-25,74 L-25,72 L-26,72 L-26,71 L-27,71 L-27,70 L-28,70 L-28,69 L-29,69 L-29,67 L-30,67 L-30,66 L-31,66 L-31,64 L-32,64 L-32,62 L-33,62 L-33,59 L-34,59 L-34,57 L-35,57 L-35,53 L-36,53 L-36,35 L-35,35 L-35,30 L-34,30 L-34,27 L-33,27 L-33,25 L-32,25 L-32,23 L-31,23 L-31,22 L-30,22 L-30,20 L-29,20 L-29,18 L-28,18 L-28,17 L-27,17 L-27,16 L-26,16 L-26,15 L-25,15 L-25,14 L-24,14 L-24,13 L-23,13 L-23,12 L-22,12 L-22,11 L-21,11 L-21,10 L-20,10 L-20,9 L-19,9 L-19,8 L-17,8 L-17,7 L-16,7 L-16,6 L-14,6 L-14,5 L-13,5 L-13,4 L-9,4 L-9,3 L-8,3 L-8,2 L-5,2 L-5,1 L0,1 Z " transform="translate(1382,935)" style="fill: #083E78;"/><path d="M0,0 L10,0 L10,64 L14,64 L14,63 L21,63 L21,73 L20,73 L20,74 L14,74 L14,75 L10,75 L10,107 L0,107 L0,76 L-5,76 L-5,77 L-9,77 L-9,78 L-16,78 L-16,79 L-23,79 L-23,80 L-29,80 L-29,81 L-38,81 L-38,71 L-36,71 L-36,70 L-30,70 L-30,69 L-23,69 L-23,68 L-16,68 L-16,67 L-6,67 L-6,66 L0,66 Z " transform="translate(857,652)" style="fill: #043B76;"/><path d="M0,0 L12,0 L12,2 L13,2 L13,3 L14,3 L14,5 L15,5 L15,7 L16,7 L16,8 L17,8 L17,10 L18,10 L18,12 L19,12 L19,14 L20,14 L20,15 L21,15 L21,17 L22,17 L22,19 L23,19 L23,21 L24,21 L24,22 L25,22 L25,24 L26,24 L26,26 L27,26 L27,28 L28,28 L28,29 L29,29 L29,31 L30,31 L30,33 L31,33 L31,34 L33,34 L33,32 L34,32 L34,30 L35,30 L35,29 L36,29 L36,27 L37,27 L37,25 L38,25 L38,24 L39,24 L39,22 L40,22 L40,20 L41,20 L41,18 L42,18 L42,16 L43,16 L43,15 L44,15 L44,13 L45,13 L45,11 L46,11 L46,10 L47,10 L47,8 L48,8 L48,6 L49,6 L49,4 L50,4 L50,2 L51,2 L51,1 L52,1 L52,0 L64,0 L64,2 L63,2 L63,3 L62,3 L62,5 L61,5 L61,7 L60,7 L60,8 L59,8 L59,10 L58,10 L58,12 L57,12 L57,14 L56,14 L56,15 L55,15 L55,17 L54,17 L54,19 L53,19 L53,20 L52,20 L52,22 L51,22 L51,24 L50,24 L50,26 L49,26 L49,27 L48,27 L48,29 L47,29 L47,31 L46,31 L46,33 L45,33 L45,34 L44,34 L44,36 L43,36 L43,38 L42,38 L42,39 L41,39 L41,41 L40,41 L40,43 L39,43 L39,45 L38,45 L38,46 L37,46 L37,83 L26,83 L26,45 L25,45 L25,43 L24,43 L24,42 L23,42 L23,40 L22,40 L22,38 L21,38 L21,37 L20,37 L20,35 L19,35 L19,33 L18,33 L18,31 L17,31 L17,30 L16,30 L16,28 L15,28 L15,26 L14,26 L14,25 L13,25 L13,23 L12,23 L12,21 L11,21 L11,19 L10,19 L10,17 L9,17 L9,16 L8,16 L8,14 L7,14 L7,12 L6,12 L6,11 L5,11 L5,9 L4,9 L4,7 L3,7 L3,5 L2,5 L2,4 L1,4 L1,2 L0,2 Z " transform="translate(1424,1070)" style="fill: #073D78;"/><path d="M0,0 L40,0 L40,9 L10,9 L10,33 L39,33 L39,42 L10,42 L10,83 L0,83 Z " transform="translate(1203,937)" style="fill: #003874;"/><path d="M0,0 L50,0 L50,9 L30,9 L30,84 L19,84 L19,10 L0,10 Z " transform="translate(758,1070)" style="fill: #0B407A;"/><path d="M0,0 L144,0 L144,4 L143,4 L143,7 L142,7 L142,9 L3,9 L3,8 L2,8 L2,6 L1,6 L1,3 L0,3 Z " transform="translate(175,740)" style="fill: #AA883F;"/><path d="M0,0 L49,0 L49,9 L30,9 L30,83 L19,83 L19,9 L0,9 Z " transform="translate(483,804)" style="fill: #063B77;"/><path d="M0,0 L10,0 L10,74 L35,74 L35,83 L0,83 Z " transform="translate(1208,1070)" style="fill: #013874;"/><path d="M0,0 L133,0 L133,2 L132,2 L132,4 L131,4 L131,5 L130,5 L130,6 L129,6 L129,8 L5,8 L5,7 L4,7 L4,6 L3,6 L3,4 L2,4 L2,3 L1,3 L1,2 L0,2 Z " transform="translate(180,753)" style="fill: #AE8D48;"/><path d="M0,0 L11,0 L11,85 L0,85 Z " transform="translate(1424,936)" style="fill: #10447C;"/><path d="M0,0 L11,0 L11,85 L0,85 Z " transform="translate(933,936)" style="fill: #0F437C;"/><path d="M0,0 L11,0 L11,85 L0,85 Z " transform="translate(653,936)" style="fill: #0F437C;"/><path d="M0,0 L12,0 L12,1 L15,1 L15,2 L18,2 L18,3 L19,3 L19,4 L20,4 L20,5 L22,5 L22,6 L23,6 L23,7 L24,7 L24,11 L25,11 L25,21 L24,21 L24,22 L23,22 L23,24 L22,24 L22,25 L21,25 L21,26 L20,26 L20,27 L18,27 L18,28 L16,28 L16,29 L13,29 L13,30 L0,30 Z " transform="translate(822,946)" style="fill: #F7F8FA;"/><path d="M0,0 L113,0 L113,2 L112,2 L112,3 L111,3 L111,4 L110,4 L110,5 L109,5 L109,6 L4,6 L4,4 L3,4 L3,3 L2,3 L2,2 L0,2 Z " transform="translate(190,766)" style="fill: #AC8B44;"/><path d="M0,0 L56,0 L56,10 L0,10 Z " transform="translate(505,735)" style="fill: #F3F5F8;"/><path d="M0,0 L56,0 L56,9 L0,9 Z " transform="translate(505,717)" style="fill: #EAEEF3;"/><path d="M0,0 L1,0 L1,2 L2,2 L2,4 L3,4 L3,7 L4,7 L4,9 L5,9 L5,11 L6,11 L6,13 L7,13 L7,16 L8,16 L8,18 L9,18 L9,20 L10,20 L10,24 L11,24 L11,25 L12,25 L12,27 L13,27 L13,29 L14,29 L14,31 L15,31 L15,33 L-14,33 L-14,30 L-13,30 L-13,28 L-12,28 L-12,26 L-11,26 L-11,24 L-10,24 L-10,22 L-9,22 L-9,19 L-8,19 L-8,18 L-7,18 L-7,14 L-6,14 L-6,12 L-5,12 L-5,10 L-4,10 L-4,8 L-3,8 L-3,5 L-2,5 L-2,3 L-1,3 L-1,1 L0,1 Z " transform="translate(521,1090)" style="fill: #F3F6F8;"/><path d="M0,0 L45,0 L45,2 L44,2 L44,3 L43,3 L43,6 L42,6 L42,8 L41,8 L41,10 L40,10 L40,11 L39,11 L39,13 L38,13 L38,14 L37,14 L37,16 L36,16 L36,17 L35,17 L35,18 L34,18 L34,19 L33,19 L33,20 L32,20 L32,21 L31,21 L31,22 L30,22 L30,23 L27,23 L27,21 L26,21 L26,20 L25,20 L25,19 L24,19 L24,18 L23,18 L23,17 L22,17 L22,15 L21,15 L21,14 L20,14 L20,13 L19,13 L19,11 L18,11 L18,9 L17,9 L17,8 L16,8 L16,6 L15,6 L15,5 L14,5 L14,3 L13,3 L13,2 L14,2 L14,1 L0,1 Z " transform="translate(961,704)" style="fill: #F1F4F7;"/><path d="M0,0 L3,0 L3,1 L4,1 L4,2 L5,2 L5,3 L6,3 L6,4 L7,4 L7,6 L6,6 L6,7 L5,7 L5,8 L4,8 L4,9 L3,9 L3,10 L1,10 L1,11 L0,11 L0,12 L1,12 L1,13 L2,13 L2,14 L3,14 L3,15 L4,15 L4,16 L5,16 L5,17 L6,17 L6,18 L5,18 L5,19 L4,19 L4,20 L3,20 L3,21 L1,21 L1,22 L0,22 L0,23 L-2,23 L-2,22 L-3,22 L-3,20 L-4,20 L-4,19 L-5,19 L-5,18 L-6,18 L-6,17 L-8,17 L-8,18 L-10,18 L-10,19 L-12,19 L-12,20 L-15,20 L-15,21 L-17,21 L-17,22 L-19,22 L-19,23 L-21,23 L-21,22 L-22,22 L-22,20 L-23,20 L-23,19 L-24,19 L-24,17 L-25,17 L-25,15 L-24,15 L-24,14 L-19,14 L-19,13 L-18,13 L-18,12 L-15,12 L-15,10 L-16,10 L-16,9 L-18,9 L-18,8 L-19,8 L-19,7 L-20,7 L-20,6 L-21,6 L-21,5 L-20,5 L-20,4 L-19,4 L-19,3 L-18,3 L-18,2 L-17,2 L-17,1 L-14,1 L-14,2 L-13,2 L-13,3 L-11,3 L-11,4 L-9,4 L-9,5 L-8,5 L-8,6 L-5,6 L-5,5 L-4,5 L-4,4 L-3,4 L-3,3 L-2,3 L-2,2 L-1,2 L-1,1 L0,1 Z " transform="translate(1271,675)" style="fill: #0C407A;"/><path d="M0,0 L3,0 L3,1 L5,1 L5,2 L7,2 L7,3 L8,3 L8,4 L10,4 L10,5 L11,5 L11,9 L10,9 L10,11 L9,11 L9,14 L8,14 L8,16 L7,16 L7,19 L6,19 L6,21 L5,21 L5,24 L4,24 L4,26 L3,26 L3,28 L2,28 L2,30 L1,30 L1,32 L0,32 L0,34 L-1,34 L-1,36 L-2,36 L-2,37 L-3,37 L-3,38 L-5,38 L-5,37 L-6,37 L-6,36 L-7,36 L-7,35 L-8,35 L-8,34 L-9,34 L-9,33 L-10,33 L-10,32 L-11,32 L-11,31 L-12,31 L-12,27 L-11,27 L-11,26 L-10,26 L-10,24 L-9,24 L-9,23 L-8,23 L-8,21 L-7,21 L-7,19 L-6,19 L-6,17 L-5,17 L-5,15 L-4,15 L-4,12 L-3,12 L-3,10 L-2,10 L-2,7 L-1,7 L-1,4 L0,4 Z " transform="translate(638,719)" style="fill: #093E79;"/><path d="M0,0 L2,0 L2,1 L3,1 L3,2 L4,2 L4,3 L6,3 L6,4 L7,4 L7,5 L9,5 L9,6 L11,6 L11,5 L12,5 L12,4 L13,4 L13,3 L15,3 L15,2 L16,2 L16,1 L18,1 L18,2 L19,2 L19,3 L21,3 L21,4 L22,4 L22,7 L21,7 L21,8 L20,8 L20,9 L19,9 L19,10 L17,10 L17,13 L18,13 L18,14 L19,14 L19,15 L20,15 L20,16 L21,16 L21,17 L22,17 L22,18 L21,18 L21,19 L20,19 L20,20 L18,20 L18,21 L17,21 L17,22 L14,22 L14,21 L13,21 L13,20 L12,20 L12,19 L11,19 L11,17 L7,17 L7,18 L6,18 L6,19 L3,19 L3,20 L1,20 L1,21 L-1,21 L-1,22 L-2,22 L-2,23 L-5,23 L-5,22 L-6,22 L-6,21 L-7,21 L-7,19 L-8,19 L-8,18 L-9,18 L-9,17 L-10,17 L-10,15 L-8,15 L-8,14 L-5,14 L-5,13 L-2,13 L-2,12 L2,12 L2,10 L0,10 L0,9 L-1,9 L-1,8 L-3,8 L-3,7 L-4,7 L-4,6 L-5,6 L-5,5 L-4,5 L-4,4 L-3,4 L-3,3 L-2,3 L-2,2 L-1,2 L-1,1 L0,1 Z " transform="translate(1254,652)" style="fill: #0B4079;"/><path d="M0,0 L88,0 L88,1 L87,1 L87,2 L85,2 L85,3 L83,3 L83,4 L4,4 L4,3 L2,3 L2,2 L1,2 L1,1 L0,1 Z " transform="translate(203,778)" style="fill: #A47E30;"/><path d="M0,0 L26,0 L26,1 L27,1 L27,12 L0,12 Z " transform="translate(672,714)" style="fill: #E3E9EF;"/><path d="M0,0 L2,0 L2,1 L3,1 L3,2 L5,2 L5,3 L7,3 L7,4 L8,4 L8,5 L10,5 L10,6 L11,6 L11,7 L13,7 L13,8 L14,8 L14,9 L16,9 L16,10 L17,10 L17,11 L18,11 L18,12 L19,12 L19,13 L21,13 L21,16 L20,16 L20,17 L19,17 L19,18 L18,18 L18,19 L17,19 L17,20 L16,20 L16,22 L12,22 L12,21 L11,21 L11,20 L10,20 L10,19 L9,19 L9,18 L7,18 L7,17 L6,17 L6,16 L5,16 L5,15 L3,15 L3,14 L2,14 L2,13 L1,13 L1,12 L-1,12 L-1,11 L-2,11 L-2,10 L-4,10 L-4,9 L-5,9 L-5,8 L-6,8 L-6,6 L-5,6 L-5,5 L-4,5 L-4,4 L-3,4 L-3,3 L-2,3 L-2,2 L-1,2 L-1,1 L0,1 Z " transform="translate(829,688)" style="fill: #0B407A;"/><path d="M0,0 L2,0 L2,1 L4,1 L4,2 L6,2 L6,3 L7,3 L7,4 L9,4 L9,5 L10,5 L10,6 L12,6 L12,7 L13,7 L13,8 L15,8 L15,9 L16,9 L16,10 L17,10 L17,11 L19,11 L19,12 L20,12 L20,13 L21,13 L21,15 L20,15 L20,16 L19,16 L19,18 L18,18 L18,19 L17,19 L17,20 L16,20 L16,21 L15,21 L15,22 L13,22 L13,21 L12,21 L12,20 L11,20 L11,19 L10,19 L10,18 L8,18 L8,17 L7,17 L7,16 L6,16 L6,15 L4,15 L4,14 L3,14 L3,13 L2,13 L2,12 L0,12 L0,11 L-1,11 L-1,10 L-3,10 L-3,9 L-4,9 L-4,8 L-6,8 L-6,6 L-5,6 L-5,5 L-4,5 L-4,4 L-3,4 L-3,3 L-2,3 L-2,2 L-1,2 L-1,1 L0,1 Z " transform="translate(831,661)" style="fill: #073D78;"/><path d="M0,0 L2,0 L2,82 L44,82 L44,74 L45,74 L45,84 L0,84 Z " transform="translate(817,1070)" style="fill: #1F4D83;"/><path d="M0,0 L2,0 L2,1 L3,1 L3,2 L4,2 L4,3 L6,3 L6,4 L7,4 L7,5 L9,5 L9,6 L10,6 L10,7 L11,7 L11,8 L13,8 L13,9 L14,9 L14,10 L16,10 L16,11 L17,11 L17,12 L16,12 L16,13 L17,13 L17,14 L16,14 L16,15 L15,15 L15,17 L14,17 L14,18 L13,18 L13,19 L12,19 L12,20 L11,20 L11,22 L9,22 L9,21 L8,21 L8,20 L7,20 L7,19 L6,19 L6,18 L4,18 L4,17 L3,17 L3,16 L2,16 L2,15 L1,15 L1,14 L-1,14 L-1,13 L-2,13 L-2,12 L-3,12 L-3,11 L-5,11 L-5,10 L-6,10 L-6,9 L-7,9 L-7,8 L-6,8 L-6,7 L-5,7 L-5,6 L-4,6 L-4,5 L-3,5 L-3,4 L-2,4 L-2,2 L-1,2 L-1,1 L0,1 Z " transform="translate(636,655)" style="fill: #0B3F79;"/><path d="M0,0 L20,0 L20,11 L0,11 Z " transform="translate(679,675)" style="fill: #F7F9FB;"/><path d="M0,0 L55,0 L55,1 L54,1 L54,2 L50,2 L50,3 L44,3 L44,4 L40,4 L40,5 L12,5 L12,4 L8,4 L8,3 L5,3 L5,2 L1,2 L1,1 L0,1 Z " transform="translate(220,789)" style="fill: #AB8840;"/><path d="M0,0 L2,0 L2,19 L-21,19 L-21,18 L-20,18 L-20,17 L-18,17 L-18,16 L-16,16 L-16,15 L-15,15 L-15,14 L-13,14 L-13,13 L-12,13 L-12,12 L-10,12 L-10,11 L-9,11 L-9,10 L-8,10 L-8,9 L-7,9 L-7,8 L-6,8 L-6,7 L-5,7 L-5,6 L-4,6 L-4,5 L-3,5 L-3,4 L-2,4 L-2,3 L-1,3 L-1,2 L0,2 Z " transform="translate(525,688)" style="fill: #F0F3F7;"/><path d="M0,0 L1,0 L1,1 L2,1 L2,2 L3,2 L3,4 L4,4 L4,5 L5,5 L5,6 L6,6 L6,7 L7,7 L7,8 L9,8 L9,9 L10,9 L10,10 L11,10 L11,11 L12,11 L12,12 L14,12 L14,13 L15,13 L15,14 L17,14 L17,15 L19,15 L19,16 L20,16 L20,17 L23,17 L23,18 L25,18 L25,19 L0,19 Z " transform="translate(538,688)" style="fill: #F9FAFC;"/><path d="M0,0 L17,0 L17,2 L18,2 L18,3 L19,3 L19,5 L20,5 L20,6 L21,6 L21,8 L22,8 L22,9 L-4,9 L-4,7 L-3,7 L-3,6 L-2,6 L-2,4 L-1,4 L-1,2 L0,2 Z " transform="translate(680,696)" style="fill: #F9FAFB;"/><path d="M0,0 L2,0 L2,1 L3,1 L3,2 L4,2 L4,3 L5,3 L5,5 L6,5 L6,6 L8,6 L8,5 L9,5 L9,4 L11,4 L11,5 L10,5 L10,6 L9,6 L9,7 L33,7 L33,1 L34,1 L34,8 L-37,8 L-37,7 L-13,7 L-13,6 L-11,6 L-11,5 L-9,5 L-9,4 L-7,4 L-7,3 L-4,3 L-4,2 L-2,2 L-2,1 L0,1 Z " transform="translate(1263,692)" style="fill: #EAEFF3;"/><path d="M0,0 L4,0 L4,2 L5,2 L5,3 L6,3 L6,4 L7,4 L7,5 L10,5 L10,4 L11,4 L11,3 L13,3 L13,4 L12,4 L12,6 L10,6 L10,7 L9,7 L9,8 L8,8 L8,9 L7,9 L7,10 L6,10 L6,11 L5,11 L5,12 L2,12 L2,11 L1,11 L1,10 L-1,10 L-1,9 L-3,9 L-3,8 L-4,8 L-4,7 L-7,7 L-7,8 L-8,8 L-8,6 L-9,6 L-9,5 L-8,5 L-8,4 L-6,4 L-6,3 L-4,3 L-4,2 L-1,2 L-1,1 L0,1 Z " transform="translate(1261,669)" style="fill: #EDF1F5;"/><path d="M0,0 L88,0 L88,1 L87,1 L87,2 L86,2 L86,1 L5,1 L5,3 L6,3 L6,4 L4,4 L4,3 L2,3 L2,2 L1,2 L1,1 L0,1 Z " transform="translate(203,778)" style="fill: #AE8C46;"/><path d="M0,0 L4,0 L4,1 L3,1 L3,2 L39,2 L39,3 L-5,3 L-5,2 L-3,2 L-3,1 L0,1 Z " transform="translate(1276,729)" style="fill: #E2E8EF;"/><path d="M0,0 L2,0 L2,1 L1,1 L1,2 L0,2 L0,3 L-1,3 L-1,4 L-2,4 L-2,5 L-3,5 L-3,6 L-4,6 L-4,7 L-5,7 L-5,8 L-6,8 L-6,9 L-7,9 L-7,10 L-8,10 L-8,11 L-9,11 L-9,12 L-10,12 L-10,13 L-11,13 L-11,14 L-12,14 L-12,15 L-13,15 L-13,12 L-12,12 L-12,11 L-11,11 L-11,10 L-10,10 L-10,9 L-9,9 L-9,8 L-8,8 L-8,7 L-7,7 L-7,6 L-6,6 L-6,5 L-5,5 L-5,4 L-4,4 L-4,3 L-3,3 L-3,2 L-1,2 L-1,1 L0,1 Z " transform="translate(1366,941)" style="fill: #15467E;"/><path d="M0,0 L2,0 L2,2 L1,2 L1,3 L0,3 L0,4 L-1,4 L-1,5 L-2,5 L-2,6 L-3,6 L-3,9 L-4,9 L-4,8 L-6,8 L-6,6 L-5,6 L-5,5 L-4,5 L-4,4 L-3,4 L-3,3 L-2,3 L-2,2 L-1,2 L-1,1 L0,1 Z " transform="translate(831,661)" style="fill: #1A4A80;"/><path d="M0,0 L2,0 L2,1 L3,1 L3,4 L4,4 L4,8 L3,8 L3,5 L2,5 L2,4 L1,4 L1,5 L0,5 L0,7 L-1,7 L-1,3 L0,3 Z " transform="translate(1116,693)" style="fill: #BFCDDC;"/><path d="M0,0 L2,0 L2,1 L3,1 L3,2 L1,2 L1,3 L0,3 L0,4 L-1,4 L-1,5 L-2,5 L-2,6 L-3,6 L-3,7 L-4,7 L-4,6 L-5,6 L-5,5 L-4,5 L-4,4 L-3,4 L-3,3 L-2,3 L-2,2 L-1,2 L-1,1 L0,1 Z " transform="translate(1254,652)" style="fill: #194880;"/></svg>