<svg id="svg" version="1.1" xmlns="http://www.w3.org/2000/svg" style="display: block;" viewBox="0 0 505 505"><path d="M0,0 L505,0 L505,505 L0,505 Z " transform="translate(0,0)" style="fill: #FEFEFE;"/><path d="M0,0 L59,0 L59,80 L56,80 L56,84 L-3,84 L-3,83 L-4,83 L-4,4 L-2,4 L-2,5 L0,5 Z " transform="translate(12,207)" style="fill: #FEFEFE;"/><path d="M0,0 L2,0 L2,2 L3,2 L3,3 L4,3 L4,4 L5,4 L5,5 L7,5 L7,6 L8,6 L8,8 L9,8 L9,9 L10,9 L10,10 L11,10 L11,11 L12,11 L12,12 L13,12 L13,13 L14,13 L14,65 L45,65 L45,66 L46,66 L46,67 L48,67 L48,68 L49,68 L49,69 L50,69 L50,70 L51,70 L51,71 L52,71 L52,73 L53,73 L53,74 L55,74 L55,75 L56,75 L56,77 L57,77 L57,78 L58,78 L58,79 L0,79 Z " transform="translate(8,211)" style="fill: #0699ED;"/><path d="M0,0 L57,0 L57,79 L56,79 L56,78 L55,78 L55,77 L54,77 L54,76 L53,76 L53,75 L52,75 L52,74 L51,74 L51,73 L50,73 L50,72 L49,72 L49,71 L48,71 L48,69 L47,69 L47,68 L45,68 L45,67 L44,67 L44,14 L12,14 L12,13 L11,13 L11,12 L10,12 L10,11 L9,11 L9,10 L8,10 L8,9 L7,9 L7,8 L6,8 L6,7 L5,7 L5,6 L4,6 L4,5 L3,5 L3,4 L2,4 L2,3 L1,3 L1,2 L0,2 Z " transform="translate(13,207)" style="fill: #4C66CA;"/><path d="M0,0 L5,0 L5,1 L9,1 L9,45 L3,45 L3,44 L0,44 L0,45 L-1,45 L-1,46 L-10,46 L-10,45 L-14,45 L-14,44 L-15,44 L-15,43 L-16,43 L-16,42 L-17,42 L-17,38 L-18,38 L-18,37 L-19,37 L-19,27 L-18,27 L-18,21 L-17,21 L-17,20 L-16,20 L-16,18 L-15,18 L-15,17 L-14,17 L-14,16 L-13,16 L-13,15 L-11,15 L-11,14 L0,14 Z " transform="translate(377,225)" style="fill: #121212;"/><path d="M0,0 L6,0 L6,15 L8,15 L8,14 L20,14 L20,15 L22,15 L22,18 L23,18 L23,19 L24,19 L24,21 L25,21 L25,23 L26,23 L26,34 L25,34 L25,37 L24,37 L24,39 L23,39 L23,40 L22,40 L22,41 L21,41 L21,45 L18,45 L18,46 L-2,46 L-2,1 L0,1 Z " transform="translate(472,225)" style="fill: #151515;"/><path d="M0,0 L8,0 L8,1 L10,1 L10,2 L11,2 L11,3 L14,3 L14,4 L15,4 L15,5 L16,5 L16,6 L17,6 L17,7 L18,7 L18,9 L19,9 L19,10 L20,10 L20,22 L19,22 L19,24 L18,24 L18,28 L17,28 L17,29 L16,29 L16,30 L15,30 L15,31 L13,31 L13,33 L8,33 L8,34 L1,34 L1,33 L-1,33 L-1,32 L-3,32 L-3,30 L-4,30 L-4,29 L-5,29 L-5,28 L-6,28 L-6,27 L-7,27 L-7,25 L-8,25 L-8,24 L-9,24 L-9,10 L-8,10 L-8,8 L-7,8 L-7,6 L-6,6 L-6,4 L-5,4 L-5,3 L-4,3 L-4,2 L-2,2 L-2,1 L0,1 Z " transform="translate(334,238)" style="fill: #191919;"/><path d="M0,0 L14,0 L14,1 L16,1 L16,3 L17,3 L17,4 L18,4 L18,6 L19,6 L19,7 L20,7 L20,8 L21,8 L21,11 L22,11 L22,21 L21,21 L21,23 L20,23 L20,25 L19,25 L19,27 L18,27 L18,28 L17,28 L17,29 L16,29 L16,30 L14,30 L14,31 L12,31 L12,32 L3,32 L3,31 L-1,31 L-1,30 L-2,30 L-2,28 L-3,28 L-3,27 L-4,27 L-4,25 L-5,25 L-5,23 L-6,23 L-6,22 L-7,22 L-7,12 L-6,12 L-6,9 L-5,9 L-5,5 L-4,5 L-4,4 L-3,4 L-3,3 L-2,3 L-2,2 L-1,2 L-1,1 L0,1 Z " transform="translate(298,239)" style="fill: #121212;"/><path d="M0,0 L7,0 L7,25 L8,25 L8,23 L9,23 L9,22 L10,22 L10,20 L11,20 L11,18 L12,18 L12,17 L13,17 L13,15 L14,15 L14,14 L24,14 L24,16 L23,16 L23,18 L22,18 L22,19 L20,19 L20,20 L19,20 L19,21 L18,21 L18,23 L17,23 L17,24 L16,24 L16,25 L15,25 L15,29 L17,29 L17,31 L18,31 L18,33 L19,33 L19,34 L20,34 L20,36 L21,36 L21,37 L22,37 L22,38 L23,38 L23,39 L24,39 L24,41 L25,41 L25,42 L26,42 L26,44 L27,44 L27,46 L18,46 L18,45 L17,45 L17,44 L15,44 L15,43 L14,43 L14,41 L13,41 L13,39 L12,39 L12,35 L11,35 L11,34 L10,34 L10,32 L8,32 L8,30 L7,30 L7,46 L-2,46 L-2,45 L-3,45 L-3,1 L0,1 Z " transform="translate(162,225)" style="fill: #3B3B3B;"/><path d="M0,0 L2,0 L2,1 L1,1 L1,78 L2,78 L2,77 L3,77 L3,76 L4,76 L4,75 L5,75 L5,73 L6,73 L6,72 L8,72 L8,70 L9,70 L9,69 L11,69 L11,68 L12,68 L12,67 L13,67 L13,13 L14,13 L14,65 L45,65 L45,66 L46,66 L46,67 L48,67 L48,68 L49,68 L49,69 L50,69 L50,70 L51,70 L51,71 L52,71 L52,73 L53,73 L53,74 L55,74 L55,75 L56,75 L56,77 L57,77 L57,78 L58,78 L58,79 L0,79 Z " transform="translate(8,211)" style="fill: #5CBEF6;"/><path d="M0,0 L7,0 L7,15 L8,15 L8,14 L10,14 L10,13 L18,13 L18,14 L21,14 L21,15 L22,15 L22,16 L23,16 L23,17 L24,17 L24,19 L25,19 L25,46 L16,46 L16,21 L15,21 L15,20 L8,20 L8,21 L7,21 L7,22 L6,22 L6,45 L-2,45 L-2,1 L0,1 Z " transform="translate(260,225)" style="fill: #191919;"/><path d="M0,0 L9,0 L9,1 L11,1 L11,2 L13,2 L13,3 L14,3 L14,4 L15,4 L15,6 L16,6 L16,28 L17,28 L17,32 L16,32 L16,34 L13,34 L13,33 L12,33 L12,32 L11,32 L11,31 L9,31 L9,32 L7,32 L7,33 L-5,33 L-5,32 L-6,32 L-6,31 L-7,31 L-7,30 L-8,30 L-8,27 L-9,27 L-9,18 L-8,18 L-8,17 L-7,17 L-7,16 L-4,16 L-4,15 L-3,15 L-3,14 L-1,14 L-1,13 L8,13 L8,8 L7,8 L7,7 L-1,7 L-1,8 L-2,8 L-2,9 L-3,9 L-3,10 L-6,10 L-6,7 L-7,7 L-7,3 L-6,3 L-6,2 L-2,2 L-2,1 L0,1 Z " transform="translate(445,238)" style="fill: #111111;"/><path d="M0,0 L10,0 L10,1 L11,1 L11,2 L13,2 L13,3 L14,3 L14,4 L16,4 L16,5 L17,5 L17,9 L18,9 L18,19 L1,19 L1,20 L0,20 L0,25 L1,25 L1,26 L3,26 L3,27 L13,27 L13,26 L14,26 L14,25 L16,25 L16,26 L17,26 L17,27 L18,27 L18,30 L16,30 L16,31 L15,31 L15,32 L12,32 L12,33 L1,33 L1,32 L-1,32 L-1,31 L-3,31 L-3,30 L-4,30 L-4,29 L-5,29 L-5,28 L-6,28 L-6,27 L-7,27 L-7,25 L-8,25 L-8,22 L-9,22 L-9,9 L-7,9 L-7,6 L-6,6 L-6,5 L-5,5 L-5,4 L-4,4 L-4,3 L-3,3 L-3,2 L-2,2 L-2,1 L0,1 Z " transform="translate(198,238)" style="fill: #141414;"/><path d="M0,0 L9,0 L9,1 L10,1 L10,36 L25,36 L25,44 L0,44 Z " transform="translate(408,227)" style="fill: #242424;"/><path d="M0,0 L9,0 L9,1 L10,1 L10,36 L25,36 L25,41 L24,41 L24,43 L23,43 L23,44 L1,44 L1,43 L0,43 Z " transform="translate(113,227)" style="fill: #020202;"/><path d="M0,0 L55,0 L55,1 L54,1 L54,3 L52,3 L52,4 L51,4 L51,5 L50,5 L50,6 L49,6 L49,7 L48,7 L48,8 L47,8 L47,9 L46,9 L46,10 L45,10 L45,11 L44,11 L44,12 L12,12 L12,11 L9,11 L9,10 L8,10 L8,9 L7,9 L7,8 L6,8 L6,7 L5,7 L5,6 L4,6 L4,5 L3,5 L3,4 L2,4 L2,3 L1,3 L1,2 L0,2 Z " transform="translate(14,208)" style="fill: #2732BA;"/><path d="M0,0 L8,0 L8,40 L10,40 L10,41 L11,41 L11,42 L12,42 L12,46 L11,46 L11,47 L3,47 L3,46 L2,46 L2,44 L1,44 L1,43 L-1,43 L-1,2 L0,2 Z " transform="translate(224,225)" style="fill: #202020;"/><path d="M0,0 L5,0 L5,33 L-4,33 L-4,1 L0,1 Z " transform="translate(244,238)" style="fill: #010101;"/><path d="M0,0 L8,0 L8,32 L0,32 Z " transform="translate(143,239)" style="fill: #131313;"/><path d="M0,0 L3,0 L3,43 L-3,43 L-3,1 L0,1 Z " transform="translate(164,226)" style="fill: #010101;"/><path d="M0,0 L1,0 L1,2 L2,2 L2,3 L3,3 L3,4 L4,4 L4,5 L5,5 L5,6 L6,6 L6,7 L7,7 L7,8 L8,8 L8,9 L9,9 L9,10 L10,10 L10,11 L11,11 L11,12 L12,12 L12,13 L13,13 L13,14 L45,14 L45,66 L44,66 L44,15 L12,15 L12,17 L11,17 L11,69 L10,69 L10,17 L9,17 L9,16 L8,16 L8,15 L7,15 L7,14 L6,14 L6,13 L5,13 L5,12 L4,12 L4,10 L3,10 L3,9 L1,9 L1,8 L0,8 L0,7 L-1,7 L-1,6 L-2,6 L-2,5 L0,5 Z " transform="translate(12,207)" style="fill: #BAD3F7;"/><path d="M0,0 L9,0 L9,1 L10,1 L10,36 L25,36 L25,41 L24,41 L24,43 L23,43 L23,44 L1,44 L1,43 L0,43 Z M2,2 L2,42 L23,42 L23,38 L9,38 L9,2 Z " transform="translate(113,227)" style="fill: #535353;"/><path d="M0,0 L1,0 L1,80 L-2,80 L-2,84 L-61,84 L-61,83 L-4,83 L-4,82 L-5,82 L-5,81 L-6,81 L-6,79 L-7,79 L-7,78 L-9,78 L-9,77 L-10,77 L-10,75 L-11,75 L-11,74 L-12,74 L-12,73 L-10,73 L-10,70 L-11,70 L-11,68 L-10,68 L-10,69 L-9,69 L-9,71 L-8,71 L-8,72 L-7,72 L-7,73 L-6,73 L-6,74 L-5,74 L-5,75 L-4,75 L-4,76 L-3,76 L-3,77 L-2,77 L-2,78 L-1,78 L-1,79 L0,79 Z " transform="translate(70,207)" style="fill: #C2D8F3;"/><path d="M0,0 L4,0 L4,1 L5,1 L5,2 L7,2 L7,17 L5,17 L5,19 L4,19 L4,20 L-1,20 L-1,19 L-2,19 L-2,18 L-3,18 L-3,17 L-4,17 L-4,3 L-2,3 L-2,2 L-1,2 L-1,1 L0,1 Z " transform="translate(304,245)" style="fill: #E2E2E2;"/><path d="M0,0 L30,0 L30,51 L31,51 L31,52 L32,52 L32,53 L33,53 L33,55 L34,55 L34,58 L31,58 L31,57 L30,57 L30,56 L28,56 L28,55 L27,55 L27,54 L-3,54 L-3,2 L-2,2 L-2,53 L28,53 L28,52 L29,52 L29,1 L0,1 Z " transform="translate(26,222)" style="fill: #E2F3FE;"/><path d="M0,0 L4,0 L4,1 L5,1 L5,2 L6,2 L6,6 L7,6 L7,16 L6,16 L6,20 L5,20 L5,21 L0,21 L0,20 L-1,20 L-1,19 L-2,19 L-2,18 L-3,18 L-3,3 L-2,3 L-2,2 L-1,2 L-1,1 L0,1 Z " transform="translate(337,244)" style="fill: #EAEAEA;"/><path d="M0,0 L6,0 L6,1 L7,1 L7,2 L8,2 L8,18 L7,18 L7,19 L0,19 L0,18 L-2,18 L-2,2 L-1,2 L-1,1 L0,1 Z " transform="translate(480,245)" style="fill: #DBDBDB;"/><path d="M0,0 L5,0 L5,1 L6,1 L6,17 L5,17 L5,18 L-2,18 L-2,17 L-3,17 L-3,3 L-2,3 L-2,1 L0,1 Z " transform="translate(371,246)" style="fill: #F1F1F1;"/><path d="M0,0 L5,0 L5,33 L-4,33 L-4,1 L0,1 Z M1,1 L1,2 L-2,2 L-2,31 L4,31 L4,1 Z " transform="translate(244,238)" style="fill: #515151;"/><path d="M0,0 L1,0 L1,43 L9,43 L9,20 L10,20 L10,19 L11,19 L11,18 L18,18 L18,19 L12,19 L12,21 L11,21 L11,29 L10,29 L10,44 L0,44 Z " transform="translate(257,227)" style="fill: #9C9C9C;"/><path d="M0,0 L5,0 L5,1 L1,1 L1,15 L-9,15 L-9,16 L-10,16 L-10,17 L-11,17 L-11,18 L-12,18 L-12,19 L-13,19 L-13,20 L-14,20 L-14,21 L-15,21 L-15,22 L-17,22 L-17,37 L-16,37 L-16,41 L-15,41 L-15,42 L-14,42 L-14,43 L-13,43 L-13,44 L-12,44 L-12,45 L-14,45 L-14,44 L-15,44 L-15,43 L-16,43 L-16,42 L-17,42 L-17,38 L-18,38 L-18,37 L-19,37 L-19,27 L-18,27 L-18,21 L-17,21 L-17,20 L-16,20 L-16,18 L-15,18 L-15,17 L-14,17 L-14,16 L-13,16 L-13,15 L-11,15 L-11,14 L0,14 Z " transform="translate(377,225)" style="fill: #585858;"/><path d="M0,0 L1,0 L1,55 L0,55 L0,56 L-1,56 L-1,58 L-2,58 L-2,59 L-3,59 L-3,60 L-4,60 L-4,61 L-5,61 L-5,62 L-6,62 L-6,63 L-7,63 L-7,65 L-11,65 L-11,64 L-10,64 L-10,63 L-9,63 L-9,62 L-8,62 L-8,60 L-7,60 L-7,59 L-5,59 L-5,57 L-4,57 L-4,56 L-2,56 L-2,55 L-1,55 L-1,54 L0,54 Z " transform="translate(21,224)" style="fill: #3DAFEE;"/><path d="M0,0 L1,0 L1,76 L0,76 L0,75 L-1,75 L-1,74 L-2,74 L-2,73 L-3,73 L-3,72 L-4,72 L-4,71 L-5,71 L-5,70 L-3,70 L-3,71 L0,71 Z " transform="translate(69,210)" style="fill: #5E76C9;"/><path d="M0,0 L5,0 L5,1 L6,1 L6,2 L8,2 L8,9 L7,9 L7,10 L1,10 L1,9 L-1,9 L-1,8 L-2,8 L-2,2 L-1,2 L-1,1 L0,1 Z " transform="translate(242,225)" style="fill: #232323;"/><path d="M0,0 L5,0 L5,1 L6,1 L6,2 L8,2 L8,8 L7,8 L7,9 L5,9 L5,10 L0,10 L0,9 L-1,9 L-1,8 L-2,8 L-2,2 L-1,2 L-1,1 L0,1 Z " transform="translate(144,225)" style="fill: #202020;"/><path d="M0,0 L5,0 L5,1 L6,1 L6,2 L7,2 L7,8 L-2,8 L-2,7 L-3,7 L-3,3 L-2,3 L-2,2 L-1,2 L-1,1 L0,1 Z " transform="translate(201,244)" style="fill: #E1E1E1;"/><path d="M0,0 L7,0 L7,7 L6,7 L6,8 L0,8 L0,7 L-1,7 L-1,1 L0,1 Z " transform="translate(446,257)" style="fill: #DCDCDC;"/><path d="M0,0 L8,0 L8,1 L9,1 L9,6 L0,6 L0,7 L-2,7 L-2,5 L-1,5 L-1,4 L0,4 L0,3 L-2,3 L-2,2 L-1,2 L-1,1 L0,1 Z " transform="translate(444,245)" style="fill: #D4D4D4;"/><path d="M0,0 L2,0 L2,1 L6,1 L6,3 L9,3 L9,37 L8,37 L8,4 L3,4 L3,2 L1,2 L1,1 L0,1 Z " transform="translate(241,234)" style="fill: #CACACA;"/><path d="M0,0 L30,0 L30,1 L31,1 L31,2 L33,2 L33,3 L34,3 L34,4 L35,4 L35,5 L33,5 L33,4 L31,4 L31,3 L29,3 L29,2 L27,2 L27,1 L0,1 Z " transform="translate(23,276)" style="fill: #80C9F4;"/><path d="M0,0 L9,0 L9,1 L2,1 L2,2 L-1,2 L-1,3 L-2,3 L-2,4 L-3,4 L-3,5 L-4,5 L-4,6 L-5,6 L-5,7 L-6,7 L-6,8 L-7,8 L-7,14 L-8,14 L-8,5 L-7,5 L-7,4 L-6,4 L-6,3 L-3,3 L-3,2 L-2,2 L-2,1 L0,1 Z " transform="translate(444,251)" style="fill: #444444;"/><path d="M0,0 L1,0 L1,2 L0,2 L0,3 L-1,3 L-1,5 L-2,5 L-2,6 L-3,6 L-3,7 L-4,7 L-4,8 L-5,8 L-5,9 L-6,9 L-6,10 L-7,10 L-7,12 L-11,12 L-11,11 L-10,11 L-10,10 L-9,10 L-9,9 L-8,9 L-8,7 L-7,7 L-7,6 L-5,6 L-5,4 L-4,4 L-4,3 L-2,3 L-2,2 L-1,2 L-1,1 L0,1 Z " transform="translate(21,277)" style="fill: #40B8FB;"/><path d="M0,0 L1,0 L1,1 L2,1 L2,7 L-7,7 L-7,6 L-8,6 L-8,2 L-7,2 L-7,1 L-6,1 L-6,5 L1,5 L1,2 L0,2 Z " transform="translate(206,245)" style="fill: #9A9A9A;"/><path d="M0,0 L8,0 L8,1 L2,1 L2,2 L0,2 L0,3 L-1,3 L-1,4 L-2,4 L-2,5 L-3,5 L-3,6 L-4,6 L-4,7 L-5,7 L-5,8 L-7,8 L-7,6 L-6,6 L-6,4 L-5,4 L-5,3 L-4,3 L-4,2 L-2,2 L-2,1 L0,1 Z " transform="translate(334,238)" style="fill: #515151;"/><path d="M0,0 L2,0 L2,2 L1,2 L1,3 L0,3 L0,4 L-1,4 L-1,5 L-2,5 L-2,6 L-3,6 L-3,7 L-4,7 L-4,8 L-5,8 L-5,9 L-6,9 L-6,10 L-9,10 L-9,9 L-8,9 L-8,8 L-7,8 L-7,7 L-6,7 L-6,6 L-5,6 L-5,5 L-4,5 L-4,4 L-3,4 L-3,3 L-2,3 L-2,2 L-1,2 L-1,1 L0,1 Z " transform="translate(66,211)" style="fill: #3D55CB;"/><path d="M0,0 L7,0 L7,1 L5,1 L5,3 L6,3 L6,6 L5,6 L5,5 L4,5 L4,4 L3,4 L3,3 L2,3 L2,2 L1,2 L1,1 L0,1 Z " transform="translate(14,209)" style="fill: #464FC0;"/><path d="M0,0 L2,0 L2,1 L5,1 L5,0 L6,0 L6,6 L5,6 L5,5 L4,5 L4,4 L3,4 L3,3 L2,3 L2,2 L1,2 L1,1 L0,1 Z " transform="translate(64,280)" style="fill: #6D7FCF;"/><path d="M0,0 L1,0 L1,1 L2,1 L2,3 L3,3 L3,5 L-6,5 L-6,4 L-1,4 L-1,3 L0,3 Z " transform="translate(186,266)" style="fill: #646464;"/></svg>