<svg id="svg" version="1.1" xmlns="http://www.w3.org/2000/svg" style="display: block;" viewBox="0 0 800 600"><path d="M0,0 L800,0 L800,600 L0,600 Z " transform="translate(0,0)" style="fill: #FEFEFE;"/><path d="M0,0 L121,0 L121,1 L148,1 L148,2 L176,2 L176,3 L182,3 L182,4 L186,4 L186,5 L189,5 L189,6 L191,6 L191,7 L193,7 L193,8 L195,8 L195,9 L196,9 L196,10 L198,10 L198,11 L199,11 L199,12 L200,12 L200,13 L201,13 L201,14 L202,14 L202,15 L203,15 L203,16 L204,16 L204,17 L205,17 L205,18 L206,18 L206,20 L207,20 L207,21 L208,21 L208,23 L209,23 L209,26 L210,26 L210,28 L211,28 L211,36 L212,36 L212,48 L213,48 L213,65 L214,65 L214,102 L213,102 L213,119 L212,119 L212,131 L211,131 L211,141 L210,141 L210,144 L209,144 L209,147 L208,147 L208,149 L207,149 L207,150 L206,150 L206,152 L205,152 L205,153 L204,153 L204,154 L203,154 L203,155 L202,155 L202,156 L201,156 L201,157 L200,157 L200,158 L199,158 L199,159 L198,159 L198,160 L197,160 L197,161 L195,161 L195,162 L193,162 L193,163 L192,163 L192,164 L189,164 L189,165 L187,165 L187,166 L183,166 L183,167 L178,167 L178,168 L150,168 L150,169 L124,169 L124,170 L8,170 L8,169 L-38,169 L-38,168 L-60,168 L-60,167 L-64,167 L-64,166 L-67,166 L-67,165 L-69,165 L-69,164 L-71,164 L-71,163 L-73,163 L-73,162 L-75,162 L-75,161 L-76,161 L-76,160 L-78,160 L-78,159 L-79,159 L-79,158 L-80,158 L-80,157 L-81,157 L-81,156 L-82,156 L-82,155 L-83,155 L-83,154 L-84,154 L-84,153 L-85,153 L-85,151 L-86,151 L-86,150 L-87,150 L-87,148 L-88,148 L-88,146 L-89,146 L-89,143 L-90,143 L-90,137 L-91,137 L-91,126 L-92,126 L-92,115 L-93,115 L-93,50 L-92,50 L-92,43 L-91,43 L-91,30 L-90,30 L-90,27 L-89,27 L-89,24 L-88,24 L-88,22 L-87,22 L-87,20 L-86,20 L-86,19 L-85,19 L-85,17 L-84,17 L-84,16 L-83,16 L-83,15 L-82,15 L-82,14 L-81,14 L-81,13 L-80,13 L-80,12 L-79,12 L-79,11 L-77,11 L-77,10 L-76,10 L-76,9 L-74,9 L-74,8 L-73,8 L-73,7 L-71,7 L-71,6 L-68,6 L-68,5 L-66,5 L-66,4 L-63,4 L-63,3 L-59,3 L-59,2 L-33,2 L-33,1 L0,1 Z " transform="translate(528,167)" style="fill: #C50333;"/><path d="M0,0 L6,0 L6,2 L7,2 L7,4 L8,4 L8,6 L9,6 L9,8 L10,8 L10,10 L11,10 L11,15 L10,15 L10,16 L9,16 L9,17 L-6,17 L-6,18 L-14,18 L-14,19 L-34,19 L-34,20 L-44,20 L-44,21 L-52,21 L-52,33 L2,33 L2,34 L3,34 L3,42 L-52,42 L-52,53 L19,53 L19,61 L-53,61 L-53,75 L-54,75 L-54,78 L-55,78 L-55,80 L-56,80 L-56,81 L-57,81 L-57,82 L-58,82 L-58,83 L-59,83 L-59,84 L-60,84 L-60,85 L-61,85 L-61,86 L-62,86 L-62,87 L-64,87 L-64,88 L-65,88 L-65,89 L-68,89 L-68,90 L-70,90 L-70,91 L-74,91 L-74,92 L-80,92 L-80,93 L-91,93 L-91,92 L-92,92 L-92,90 L-93,90 L-93,88 L-94,88 L-94,86 L-91,86 L-91,85 L-90,85 L-90,84 L-88,84 L-88,83 L-86,83 L-86,82 L-85,82 L-85,81 L-84,81 L-84,80 L-83,80 L-83,79 L-82,79 L-82,78 L-81,78 L-81,77 L-80,77 L-80,76 L-79,76 L-79,74 L-78,74 L-78,72 L-77,72 L-77,70 L-76,70 L-76,61 L-147,61 L-147,60 L-148,60 L-148,54 L-147,54 L-147,53 L-76,53 L-76,42 L-132,42 L-132,34 L-131,34 L-131,33 L-77,33 L-77,22 L-84,22 L-84,23 L-132,23 L-132,22 L-133,22 L-133,21 L-134,21 L-134,16 L-133,16 L-133,15 L-132,15 L-132,14 L-111,14 L-111,13 L-105,13 L-105,12 L-90,12 L-90,11 L-79,11 L-79,10 L-66,10 L-66,9 L-56,9 L-56,8 L-50,8 L-50,7 L-41,7 L-41,6 L-30,6 L-30,5 L-22,5 L-22,4 L-19,4 L-19,3 L-11,3 L-11,2 L-7,2 L-7,1 L0,1 Z " transform="translate(204,242)" style="fill: #040404;"/><path d="M0,0 L89,0 L89,1 L91,1 L91,2 L93,2 L93,3 L94,3 L94,4 L95,4 L95,5 L96,5 L96,6 L97,6 L97,8 L98,8 L98,141 L97,141 L97,143 L96,143 L96,145 L95,145 L95,147 L94,147 L94,149 L93,149 L93,150 L92,150 L92,151 L91,151 L91,152 L90,152 L90,153 L88,153 L88,154 L87,154 L87,155 L85,155 L85,156 L83,156 L83,157 L80,157 L80,158 L78,158 L78,159 L72,159 L72,160 L59,160 L59,158 L58,158 L58,156 L57,156 L57,153 L59,153 L59,152 L61,152 L61,151 L63,151 L63,150 L64,150 L64,149 L65,149 L65,148 L67,148 L67,147 L68,147 L68,146 L69,146 L69,145 L70,145 L70,143 L71,143 L71,142 L72,142 L72,140 L73,140 L73,137 L74,137 L74,9 L-8,9 L-8,7 L-7,7 L-7,6 L-6,6 L-6,5 L-5,5 L-5,4 L-4,4 L-4,3 L-3,3 L-3,2 L-2,2 L-2,1 L0,1 Z " transform="translate(311,175)" style="fill: #020202;"/><path d="M0,0 L15,0 L15,2 L16,2 L16,3 L17,3 L17,4 L18,4 L18,5 L19,5 L19,6 L20,6 L20,7 L21,7 L21,8 L22,8 L22,9 L23,9 L23,11 L24,11 L24,12 L25,12 L25,13 L26,13 L26,14 L27,14 L27,15 L28,15 L28,16 L29,16 L29,17 L47,17 L47,0 L71,0 L71,17 L87,17 L87,16 L88,16 L88,15 L89,15 L89,14 L90,14 L90,13 L91,13 L91,11 L92,11 L92,10 L93,10 L93,9 L94,9 L94,8 L95,8 L95,7 L96,7 L96,6 L97,6 L97,5 L98,5 L98,4 L99,4 L99,2 L100,2 L100,1 L101,1 L101,0 L116,0 L116,1 L117,1 L117,5 L116,5 L116,7 L115,7 L115,9 L114,9 L114,12 L113,12 L113,14 L112,14 L112,17 L132,17 L132,18 L135,18 L135,19 L137,19 L137,20 L138,20 L138,21 L139,21 L139,23 L140,23 L140,24 L141,24 L141,50 L117,50 L117,26 L-2,26 L-2,50 L-26,50 L-26,25 L-25,25 L-25,23 L-24,23 L-24,22 L-23,22 L-23,21 L-22,21 L-22,20 L-21,20 L-21,19 L-20,19 L-20,18 L-18,18 L-18,17 L4,17 L4,15 L3,15 L3,12 L2,12 L2,10 L1,10 L1,7 L0,7 L0,5 L-1,5 L-1,1 L0,1 Z " transform="translate(82,168)" style="fill: #050505;"/><path d="M0,0 L12,0 L12,1 L13,1 L13,2 L14,2 L14,15 L25,15 L25,20 L26,20 L26,18 L27,18 L27,16 L28,16 L28,13 L29,13 L29,11 L30,11 L30,8 L31,8 L31,6 L46,6 L46,7 L45,7 L45,9 L44,9 L44,11 L43,11 L43,13 L42,13 L42,15 L41,15 L41,17 L40,17 L40,19 L39,19 L39,21 L38,21 L38,23 L37,23 L37,24 L36,24 L36,26 L35,26 L35,28 L34,28 L34,29 L33,29 L33,31 L32,31 L32,32 L31,32 L31,34 L30,34 L30,36 L45,36 L45,42 L25,42 L25,43 L24,43 L24,44 L23,44 L23,45 L22,45 L22,46 L21,46 L21,48 L20,48 L20,49 L19,49 L19,50 L18,50 L18,51 L17,51 L17,53 L27,53 L27,51 L28,51 L28,50 L30,50 L30,51 L32,51 L32,52 L34,52 L34,53 L36,53 L36,54 L37,54 L37,55 L39,55 L39,57 L38,57 L38,58 L37,58 L37,60 L36,60 L36,61 L35,61 L35,62 L34,62 L34,63 L33,63 L33,64 L32,64 L32,65 L31,65 L31,66 L30,66 L30,67 L29,67 L29,68 L27,68 L27,69 L26,69 L26,70 L25,70 L25,71 L23,71 L23,72 L21,72 L21,77 L27,77 L27,76 L36,76 L36,75 L40,75 L40,83 L39,83 L39,84 L33,84 L33,85 L28,85 L28,86 L21,86 L21,104 L20,104 L20,106 L19,106 L19,108 L18,108 L18,109 L17,109 L17,110 L16,110 L16,111 L14,111 L14,112 L11,112 L11,113 L8,113 L8,114 L-1,114 L-1,112 L-2,112 L-2,110 L0,110 L0,109 L2,109 L2,108 L3,108 L3,107 L4,107 L4,106 L5,106 L5,105 L6,105 L6,104 L7,104 L7,102 L8,102 L8,89 L4,89 L4,90 L1,90 L1,91 L-5,91 L-5,92 L-10,92 L-10,93 L-16,93 L-16,94 L-18,94 L-18,81 L-10,81 L-10,80 L-1,80 L-1,79 L8,79 L8,69 L14,69 L14,68 L15,68 L15,66 L16,66 L16,65 L17,65 L17,64 L18,64 L18,63 L19,63 L19,62 L20,62 L20,61 L21,61 L21,60 L22,60 L22,59 L10,59 L10,60 L9,60 L9,61 L8,61 L8,62 L7,62 L7,63 L6,63 L6,64 L5,64 L5,65 L4,65 L4,66 L3,66 L3,67 L2,67 L2,68 L0,68 L0,69 L-1,69 L-1,70 L-2,70 L-2,71 L-4,71 L-4,72 L-5,72 L-5,73 L-6,73 L-6,74 L-8,74 L-8,75 L-10,75 L-10,76 L-11,76 L-11,77 L-13,77 L-13,78 L-15,78 L-15,79 L-16,79 L-16,80 L-18,80 L-18,79 L-20,79 L-20,78 L-22,78 L-22,76 L-20,76 L-20,75 L-19,75 L-19,74 L-17,74 L-17,73 L-16,73 L-16,72 L-15,72 L-15,71 L-13,71 L-13,70 L-12,70 L-12,69 L-11,69 L-11,68 L-10,68 L-10,67 L-9,67 L-9,66 L-8,66 L-8,65 L-7,65 L-7,64 L-6,64 L-6,63 L-5,63 L-5,62 L-4,62 L-4,61 L-3,61 L-3,60 L-2,60 L-2,59 L-20,59 L-20,53 L5,53 L5,51 L6,51 L6,50 L7,50 L7,49 L8,49 L8,48 L9,48 L9,46 L10,46 L10,45 L11,45 L11,44 L12,44 L12,42 L-20,42 L-20,36 L-2,36 L-2,21 L-17,21 L-17,15 L-2,15 L-2,2 L-1,2 L-1,1 L0,1 Z " transform="translate(489,195)" style="fill: #FEF3F8;"/><path d="M0,0 L107,0 L107,20 L106,20 L106,23 L105,23 L105,25 L104,25 L104,27 L103,27 L103,28 L102,28 L102,29 L101,29 L101,30 L99,30 L99,31 L98,31 L98,32 L95,32 L95,33 L0,33 Z " transform="translate(86,206)" style="fill: #010101;"/><path d="M0,0 L17,0 L17,2 L16,2 L16,7 L15,7 L15,11 L14,11 L14,13 L13,13 L13,17 L12,17 L12,20 L11,20 L11,21 L43,21 L43,27 L35,27 L35,37 L34,37 L34,45 L33,45 L33,51 L32,51 L32,54 L31,54 L31,58 L30,58 L30,61 L29,61 L29,64 L28,64 L28,67 L27,67 L27,69 L26,69 L26,71 L25,71 L25,73 L24,73 L24,74 L23,74 L23,76 L22,76 L22,77 L21,77 L21,78 L20,78 L20,79 L19,79 L19,81 L18,81 L18,82 L19,82 L19,83 L20,83 L20,85 L21,85 L21,86 L22,86 L22,87 L23,87 L23,88 L24,88 L24,89 L25,89 L25,91 L26,91 L26,92 L27,92 L27,93 L28,93 L28,94 L29,94 L29,95 L31,95 L31,96 L32,96 L32,97 L33,97 L33,98 L34,98 L34,99 L36,99 L36,100 L37,100 L37,101 L38,101 L38,102 L40,102 L40,103 L42,103 L42,104 L43,104 L43,105 L42,105 L42,106 L41,106 L41,107 L40,107 L40,108 L38,108 L38,109 L37,109 L37,110 L36,110 L36,111 L34,111 L34,110 L32,110 L32,109 L31,109 L31,108 L29,108 L29,107 L27,107 L27,106 L26,106 L26,105 L25,105 L25,104 L23,104 L23,103 L22,103 L22,102 L21,102 L21,101 L20,101 L20,100 L19,100 L19,99 L17,99 L17,98 L16,98 L16,97 L15,97 L15,96 L14,96 L14,95 L13,95 L13,94 L12,94 L12,93 L11,93 L11,92 L10,92 L10,90 L8,90 L8,91 L7,91 L7,92 L6,92 L6,93 L4,93 L4,94 L3,94 L3,95 L2,95 L2,96 L0,96 L0,97 L-1,97 L-1,98 L-2,98 L-2,99 L-4,99 L-4,100 L-5,100 L-5,101 L-7,101 L-7,102 L-8,102 L-8,103 L-10,103 L-10,104 L-12,104 L-12,105 L-13,105 L-13,106 L-15,106 L-15,107 L-17,107 L-17,108 L-18,108 L-18,109 L-20,109 L-20,110 L-22,110 L-22,111 L-23,111 L-23,112 L-25,112 L-25,113 L-28,113 L-28,112 L-29,112 L-29,110 L-30,110 L-30,108 L-29,108 L-29,107 L-28,107 L-28,106 L-26,106 L-26,105 L-25,105 L-25,104 L-24,104 L-24,103 L-23,103 L-23,102 L-22,102 L-22,101 L-20,101 L-20,100 L-19,100 L-19,99 L-18,99 L-18,98 L-17,98 L-17,97 L-16,97 L-16,96 L-14,96 L-14,95 L-13,95 L-13,94 L-12,94 L-12,93 L-11,93 L-11,92 L-10,92 L-10,91 L-9,91 L-9,90 L-8,90 L-8,89 L-7,89 L-7,88 L-6,88 L-6,87 L-5,87 L-5,86 L-4,86 L-4,85 L-3,85 L-3,84 L-2,84 L-2,83 L-1,83 L-1,82 L0,82 L0,81 L1,81 L1,78 L0,78 L0,77 L-1,77 L-1,75 L-2,75 L-2,73 L-3,73 L-3,71 L-4,71 L-4,69 L-5,69 L-5,67 L-6,67 L-6,65 L-7,65 L-7,62 L-8,62 L-8,60 L-9,60 L-9,56 L7,56 L7,59 L8,59 L8,62 L9,62 L9,65 L10,65 L10,68 L12,68 L12,66 L13,66 L13,63 L14,63 L14,60 L15,60 L15,57 L16,57 L16,54 L17,54 L17,48 L18,48 L18,38 L19,38 L19,27 L9,27 L9,29 L8,29 L8,31 L7,31 L7,34 L6,34 L6,36 L5,36 L5,38 L4,38 L4,40 L3,40 L3,41 L2,41 L2,43 L1,43 L1,45 L0,45 L0,46 L-1,46 L-1,47 L-2,47 L-2,48 L-3,48 L-3,49 L-4,49 L-4,50 L-5,50 L-5,51 L-12,51 L-12,48 L-11,48 L-11,45 L-10,45 L-10,43 L-9,43 L-9,40 L-8,40 L-8,37 L-7,37 L-7,34 L-6,34 L-6,31 L-5,31 L-5,29 L-4,29 L-4,25 L-3,25 L-3,19 L-2,19 L-2,14 L-1,14 L-1,8 L0,8 Z " transform="translate(546,196)" style="fill: #FEF4F8;"/><path d="M0,0 L2,0 L2,114 L-22,114 L-22,27 L-21,27 L-21,25 L-20,25 L-20,23 L-19,23 L-19,22 L-18,22 L-18,21 L-17,21 L-17,20 L-16,20 L-16,18 L-15,18 L-15,17 L-14,17 L-14,16 L-13,16 L-13,15 L-12,15 L-12,14 L-11,14 L-11,13 L-10,13 L-10,12 L-9,12 L-9,10 L-8,10 L-8,9 L-7,9 L-7,8 L-6,8 L-6,7 L-5,7 L-5,6 L-4,6 L-4,5 L-3,5 L-3,4 L-2,4 L-2,2 L-1,2 L-1,1 L0,1 Z " transform="translate(268,221)" style="fill: #010101;"/><path d="M0,0 L16,0 L16,2 L17,2 L17,4 L18,4 L18,6 L19,6 L19,8 L20,8 L20,11 L67,11 L67,16 L10,16 L10,17 L8,17 L8,18 L7,18 L7,19 L5,19 L5,20 L3,20 L3,21 L1,21 L1,22 L-1,22 L-1,23 L-2,23 L-2,24 L-4,24 L-4,25 L-6,25 L-6,26 L-8,26 L-8,27 L-9,27 L-9,28 L-11,28 L-11,29 L-13,29 L-13,30 L-15,30 L-15,31 L-17,31 L-17,32 L-19,32 L-19,33 L-20,33 L-20,34 L-9,34 L-9,33 L14,33 L14,32 L38,32 L38,30 L37,30 L37,28 L36,28 L36,27 L35,27 L35,25 L51,25 L51,27 L52,27 L52,28 L53,28 L53,30 L54,30 L54,31 L55,31 L55,33 L56,33 L56,35 L57,35 L57,36 L58,36 L58,38 L59,38 L59,39 L60,39 L60,41 L61,41 L61,43 L62,43 L62,45 L46,45 L46,43 L45,43 L45,41 L44,41 L44,40 L43,40 L43,38 L35,38 L35,39 L24,39 L24,40 L12,40 L12,41 L-1,41 L-1,42 L-14,42 L-14,43 L-27,43 L-27,44 L-33,44 L-33,43 L-34,43 L-34,42 L-35,42 L-35,34 L-34,34 L-34,33 L-33,33 L-33,32 L-32,32 L-32,31 L-31,31 L-31,30 L-29,30 L-29,29 L-28,29 L-28,28 L-27,28 L-27,27 L-26,27 L-26,26 L-24,26 L-24,25 L-23,25 L-23,24 L-22,24 L-22,23 L-20,23 L-20,22 L-19,22 L-19,21 L-18,21 L-18,20 L-17,20 L-17,19 L-15,19 L-15,18 L-14,18 L-14,17 L-13,17 L-13,16 L-47,16 L-47,11 L4,11 L4,9 L3,9 L3,6 L2,6 L2,5 L1,5 L1,3 L0,3 Z " transform="translate(642,197)" style="fill: #FEF5FA;"/><path d="M0,0 L57,0 L57,1 L59,1 L59,2 L60,2 L60,3 L61,3 L61,4 L62,4 L62,49 L61,49 L61,51 L60,51 L60,53 L59,53 L59,54 L58,54 L58,55 L57,55 L57,56 L56,56 L56,57 L55,57 L55,58 L53,58 L53,59 L49,59 L49,60 L47,60 L47,61 L36,61 L36,59 L35,59 L35,56 L37,56 L37,55 L39,55 L39,54 L40,54 L40,53 L41,53 L41,52 L42,52 L42,51 L43,51 L43,50 L44,50 L44,49 L45,49 L45,47 L46,47 L46,41 L0,41 L0,36 L46,36 L46,24 L0,24 L0,19 L46,19 L46,6 L0,6 Z " transform="translate(631,248)" style="fill: #FEF5FA;"/><path d="M0,0 L59,0 L59,17 L0,17 Z " transform="translate(110,214)" style="fill: #EFEFEF;"/><path d="M0,0 L16,0 L16,60 L0,60 Z " transform="translate(611,249)" style="fill: #FEF9FE;"/><path d="M0,0 L2,0 L2,1 L7,1 L7,2 L10,2 L10,3 L15,3 L15,4 L21,4 L21,5 L26,5 L26,6 L31,6 L31,7 L34,7 L34,8 L35,8 L35,9 L34,9 L34,10 L33,10 L33,11 L32,11 L32,12 L31,12 L31,13 L30,13 L30,14 L29,14 L29,15 L28,15 L28,16 L27,16 L27,20 L28,20 L28,21 L29,21 L29,22 L30,22 L30,23 L31,23 L31,24 L32,24 L32,25 L33,25 L33,26 L34,26 L34,27 L35,27 L35,28 L36,28 L36,29 L37,29 L37,30 L38,30 L38,31 L39,31 L39,32 L40,32 L40,33 L41,33 L41,34 L42,34 L42,35 L43,35 L43,36 L44,36 L44,37 L45,37 L45,38 L44,38 L44,39 L43,39 L43,40 L42,40 L42,41 L41,41 L41,42 L40,42 L40,43 L39,43 L39,44 L38,44 L38,45 L37,45 L37,44 L36,44 L36,43 L35,43 L35,42 L34,42 L34,41 L33,41 L33,40 L32,40 L32,39 L31,39 L31,38 L30,38 L30,37 L29,37 L29,36 L28,36 L28,35 L27,35 L27,34 L26,34 L26,33 L25,33 L25,32 L24,32 L24,31 L23,31 L23,30 L22,30 L22,29 L21,29 L21,28 L20,28 L20,27 L17,27 L17,28 L16,28 L16,29 L15,29 L15,30 L14,30 L14,31 L13,31 L13,32 L12,32 L12,33 L11,33 L11,34 L10,34 L10,35 L9,35 L9,36 L7,36 L7,33 L6,33 L6,28 L5,28 L5,22 L4,22 L4,17 L3,17 L3,14 L2,14 L2,9 L1,9 L1,3 L0,3 Z " transform="translate(246,168)" style="fill: #C20534;"/><path d="M0,0 L17,0 L17,1 L18,1 L18,0 L19,0 L19,6 L18,6 L18,18 L66,18 L66,19 L20,19 L20,24 L66,24 L66,36 L20,36 L20,41 L66,41 L66,47 L65,47 L65,48 L64,48 L64,43 L19,43 L19,42 L18,42 L18,61 L17,61 L17,63 L0,63 L0,61 L16,61 L16,1 L0,1 Z " transform="translate(611,248)" style="fill: #C10233;"/><path d="M0,0 L17,0 L17,1 L18,1 L18,0 L19,0 L19,6 L18,6 L18,18 L66,18 L66,19 L20,19 L20,24 L66,24 L66,25 L18,25 L18,35 L19,35 L19,34 L21,34 L21,35 L66,35 L66,36 L20,36 L20,41 L66,41 L66,47 L65,47 L65,48 L64,48 L64,43 L19,43 L19,42 L18,42 L18,61 L17,61 L17,63 L0,63 L0,61 L16,61 L16,1 L0,1 Z " transform="translate(611,248)" style="fill: #AC133D;"/><path d="M0,0 L12,0 L12,1 L11,1 L11,2 L10,2 L10,3 L9,3 L9,4 L8,4 L8,5 L7,5 L7,6 L6,6 L6,7 L5,7 L5,9 L4,9 L4,10 L-2,10 L-2,20 L-11,20 L-11,21 L-20,21 L-20,22 L-28,22 L-28,23 L-29,23 L-29,35 L-30,35 L-30,21 L-31,21 L-31,19 L-30,19 L-30,20 L-28,20 L-28,21 L-26,21 L-26,20 L-25,20 L-25,19 L-23,19 L-23,18 L-21,18 L-21,17 L-20,17 L-20,16 L-18,16 L-18,15 L-16,15 L-16,14 L-15,14 L-15,13 L-14,13 L-14,12 L-12,12 L-12,11 L-11,11 L-11,10 L-10,10 L-10,9 L-8,9 L-8,8 L-7,8 L-7,7 L-6,7 L-6,6 L-5,6 L-5,5 L-4,5 L-4,4 L-3,4 L-3,3 L-2,3 L-2,2 L-1,2 L-1,1 L0,1 Z " transform="translate(499,254)" style="fill: #C00E3B;"/><path d="M0,0 L17,0 L17,1 L18,1 L18,0 L19,0 L19,6 L18,6 L18,18 L66,18 L66,19 L20,19 L20,24 L66,24 L66,25 L18,25 L18,35 L19,35 L19,34 L21,34 L21,35 L66,35 L66,36 L20,36 L20,41 L19,41 L19,36 L17,36 L17,2 L16,2 L16,1 L0,1 Z " transform="translate(611,248)" style="fill: #D04C6E;"/><path d="M0,0 L1,0 L1,1 L3,1 L3,3 L4,3 L4,4 L5,4 L5,6 L3,6 L3,8 L5,8 L5,10 L6,10 L6,0 L7,0 L7,10 L8,10 L8,13 L7,13 L7,15 L6,15 L6,16 L5,16 L5,15 L4,15 L4,14 L0,14 L0,15 L-8,15 L-8,14 L-6,14 L-6,9 L-5,9 L-5,14 L-3,14 L-3,5 L0,5 L0,4 L-3,4 L-3,2 L0,2 Z " transform="translate(119,556)" style="fill: #E7E7E7;"/><path d="M0,0 L11,0 L11,1 L10,1 L10,3 L9,3 L9,5 L8,5 L8,7 L7,7 L7,8 L6,8 L6,10 L5,10 L5,12 L4,12 L4,13 L3,13 L3,15 L0,15 Z " transform="translate(503,216)" style="fill: #BA1741;"/><path d="M0,0 L47,0 L47,6 L46,6 L46,7 L45,7 L45,2 L0,2 Z " transform="translate(630,289)" style="fill: #B72A4D;"/><path d="M0,0 L1,0 L1,2 L0,2 L0,3 L-2,3 L-2,4 L-5,4 L-5,5 L-6,5 L-6,6 L-7,6 L-7,7 L-10,7 L-10,8 L-12,8 L-12,9 L-13,9 L-13,10 L-14,10 L-14,11 L-17,11 L-17,12 L-18,12 L-18,13 L9,13 L9,14 L-14,14 L-14,15 L-25,15 L-25,14 L-24,14 L-24,13 L-22,13 L-22,12 L-20,12 L-20,11 L-18,11 L-18,10 L-16,10 L-16,9 L-14,9 L-14,8 L-13,8 L-13,7 L-11,7 L-11,6 L-9,6 L-9,5 L-7,5 L-7,4 L-6,4 L-6,3 L-4,3 L-4,2 L-2,2 L-2,1 L0,1 Z " transform="translate(647,216)" style="fill: #BA2E53;"/><path d="M0,0 L32,0 L32,2 L31,2 L31,3 L30,3 L30,4 L29,4 L29,5 L28,5 L28,2 L1,2 L1,1 L0,1 Z " transform="translate(469,237)" style="fill: #B50B38;"/><path d="M0,0 L1,0 L1,15 L-14,15 L-14,14 L-5,14 L-5,5 L-4,5 L-4,6 L-2,6 L-2,14 L0,14 L0,4 L-3,4 L-3,2 L0,2 Z " transform="translate(65,556)" style="fill: #E6E6E6;"/><path d="M0,0 L1,0 L1,1 L3,1 L3,3 L4,3 L4,4 L5,4 L5,6 L3,6 L3,8 L2,8 L2,6 L1,6 L1,7 L0,7 L0,12 L-1,12 L-1,6 L-2,6 L-2,14 L0,14 L0,15 L-8,15 L-8,14 L-6,14 L-6,9 L-5,9 L-5,14 L-3,14 L-3,5 L0,5 L0,4 L-3,4 L-3,2 L0,2 Z " transform="translate(119,556)" style="fill: #DDDDDD;"/><path d="M0,0 L2,0 L2,1 L1,1 L1,2 L0,2 L0,3 L-1,3 L-1,4 L-2,4 L-2,5 L7,5 L7,6 L-2,6 L-2,7 L-10,7 L-10,8 L-11,8 L-11,20 L-12,20 L-12,6 L-13,6 L-13,4 L-12,4 L-12,5 L-10,5 L-10,6 L-8,6 L-8,5 L-7,5 L-7,4 L-5,4 L-5,3 L-3,3 L-3,2 L-2,2 L-2,1 L0,1 Z " transform="translate(481,269)" style="fill: #B81B44;"/><path d="M0,0 L2,0 L2,1 L7,1 L7,2 L10,2 L10,3 L15,3 L15,4 L21,4 L21,5 L26,5 L26,6 L31,6 L31,7 L34,7 L34,8 L35,8 L35,9 L34,9 L34,10 L33,10 L33,8 L29,8 L29,7 L20,7 L20,6 L19,6 L19,5 L14,5 L14,4 L9,4 L9,3 L5,3 L5,2 L1,2 L1,3 L0,3 Z " transform="translate(246,168)" style="fill: #B6244B;"/><path d="M0,0 L2,0 L2,2 L3,2 L3,3 L4,3 L4,5 L5,5 L5,7 L-17,7 L-17,6 L-11,6 L-11,5 L2,5 L2,3 L1,3 L1,2 L0,2 Z " transform="translate(675,222)" style="fill: #B21740;"/><path d="M0,0 L1,0 L1,3 L0,3 L0,4 L1,4 L1,10 L-3,10 L-3,9 L-4,9 L-4,8 L-5,8 L-5,4 L-4,4 L-4,3 L-3,3 L-3,2 L0,2 Z " transform="translate(77,559)" style="fill: #EAEAEA;"/><path d="M0,0 L1,0 L1,1 L2,1 L2,3 L3,3 L3,5 L4,5 L4,7 L-12,7 L-12,5 L-13,5 L-13,4 L-11,4 L-11,5 L1,5 L1,2 L0,2 Z " transform="translate(700,235)" style="fill: #F1BCCF;"/><path d="M0,0 L1,0 L1,7 L-1,7 L-1,8 L-6,8 L-6,14 L-7,14 L-7,19 L-8,19 L-8,6 L0,6 Z " transform="translate(589,217)" style="fill: #B20E3A;"/><path d="M0,0 L11,0 L11,5 L12,5 L12,6 L0,6 L0,5 L9,5 L9,2 L1,2 L1,1 L0,1 Z " transform="translate(503,210)" style="fill: #F2C7D7;"/><path d="M0,0 L4,0 L4,8 L3,8 L3,9 L-2,9 L-2,8 L-1,8 L-1,7 L2,7 L2,2 L-9,2 L-9,1 L0,1 Z " transform="translate(525,270)" style="fill: #F6B1CA;"/><path d="M0,0 L4,0 L4,13 L3,13 L3,14 L2,14 L2,2 L-3,2 L-3,1 L0,1 Z " transform="translate(493,284)" style="fill: #BF4161;"/><path d="M0,0 L2,0 L2,1 L1,1 L1,2 L0,2 L0,3 L-1,3 L-1,4 L-2,4 L-2,5 L-3,5 L-3,6 L-4,6 L-4,7 L-5,7 L-5,8 L-6,8 L-6,9 L-7,9 L-7,10 L-8,10 L-8,16 L-9,16 L-9,8 L-8,8 L-8,7 L-7,7 L-7,6 L-6,6 L-6,5 L-5,5 L-5,4 L-3,4 L-3,3 L-2,3 L-2,2 L-1,2 L-1,1 L0,1 Z " transform="translate(616,223)" style="fill: #FEE2F0;"/><path d="M0,0 L1,0 L1,1 L3,1 L3,2 L5,2 L5,1 L6,1 L6,2 L9,2 L9,3 L3,3 L3,4 L2,4 L2,16 L1,16 L1,2 L0,2 Z " transform="translate(468,273)" style="fill: #B00F38;"/><path d="M0,0 L1,0 L1,6 L2,6 L2,1 L3,1 L3,0 L4,0 L4,2 L5,2 L5,3 L3,3 L3,4 L4,4 L4,5 L6,5 L6,6 L5,6 L5,7 L2,7 L2,8 L0,8 Z " transform="translate(117,562)" style="fill: #FCFCFC;"/><path d="M0,0 L1,0 L1,3 L0,3 L0,4 L-1,4 L-1,5 L-2,5 L-2,6 L-3,6 L-3,11 L-2,11 L-2,12 L-1,12 L-1,14 L-2,14 L-2,13 L-3,13 L-3,12 L-4,12 L-4,10 L-5,10 L-5,9 L-6,9 L-6,8 L-5,8 L-5,6 L-4,6 L-4,5 L-3,5 L-3,4 L-2,4 L-2,3 L-1,3 L-1,1 L0,1 Z " transform="translate(570,269)" style="fill: #B51E46;"/><path d="M0,0 L3,0 L3,1 L5,1 L5,9 L3,9 L3,4 L2,4 L2,1 L1,1 L1,2 L0,2 Z " transform="translate(111,561)" style="fill: #F0F0F0;"/><path d="M0,0 L1,0 L1,4 L12,4 L12,5 L-2,5 L-2,3 L-1,3 L-1,1 L0,1 Z " transform="translate(521,226)" style="fill: #A92348;"/><path d="M0,0 L1,0 L1,5 L0,5 L0,6 L1,6 L1,7 L5,7 L5,8 L-2,8 L-2,5 L-1,5 L-1,2 L0,2 Z " transform="translate(536,239)" style="fill: #FBB8CF;"/><path d="M0,0 L2,0 L2,2 L3,2 L3,3 L4,3 L4,5 L2,5 L2,7 L1,7 L1,5 L0,5 Z " transform="translate(120,557)" style="fill: #EBEBEB;"/></svg>